<?xml version="1.0" standalone="no"?>
<!DOCTYPE svg PUBLIC "-//W3C//DTD SVG 1.1//EN" "http://www.w3.org/Graphics/SVG/1.1/DTD/svg11.dtd" >
<svg>
<font id="Vazin" horiz-adv-x="30.260870000000001" >
<font-face units-per-em="100" ascent="80" descent="-20" />
<glyph unicode=" " horiz-adv-x="30.260870000000001" d="" />
<glyph unicode="!" horiz-adv-x="25.173912999999999" d="M9.347830000000000 20.043479999999999 C8.934785000000034 29.521740000000023 8.108695000000012 48.478259999999977 7.695650000000001 57.956520000000012 C7.695650000000001 61.260867500000018 7.695650000000001 67.869562500000029 7.695650000000001 71.173909999999978 C10.206519999999955 71.173909999999978 15.228259999999977 71.173909999999978 17.739130000000046 71.173909999999978 C17.739130000000046 67.869562500000029 17.739130000000046 61.260867500000018 17.739130000000046 57.956520000000012 C17.456522500000005 48.478259999999977 16.891307500000039 29.521740000000023 16.608699999999999 20.043479999999988 C14.793482499999982 20.043479999999988 11.163047499999948 20.043479999999988 9.347830000000044 20.043479999999988 zM19.478259999999999 6.739130000000000 C17.706519999999955 4.967390000000023 14.163040000000024 1.423909999999978 12.391300000000001 -0.347829999999988 C10.706517500000018 1.336952499999995 7.336952500000052 4.706517500000018 5.652169999999956 6.391300000000001 C7.413040000000024 8.173909999999978 10.934780000000046 11.739129999999989 12.695650000000001 13.521740000000023 C14.391302500000052 11.826087499999971 17.782607500000040 8.434782499999983 19.478259999999977 6.739129999999989 z" />
<glyph unicode="&#x22;" horiz-adv-x="32" d="M13.521739999999999 68.347830000000002 C13.152174999999943 63.978265000000022 12.413045000000011 55.239135000000033 12.043480000000045 50.869570000000010 C10.695652500000051 50.869570000000010 7.999997499999949 50.869570000000010 6.652169999999956 50.869570000000010 C6.663040000000024 56.902177499999993 6.684780000000046 68.967392500000017 6.695650000000001 75.000000000000000 C8.402172500000006 75.000000000000000 11.815217500000017 75.000000000000000 13.521740000000023 75.000000000000000 C13.521740000000023 73.336957499999983 13.521740000000023 70.010872500000005 13.521740000000023 68.347829999999988 zM26.695650000000001 68.347830000000002 C26.336954999999989 63.978265000000022 25.619564999999966 55.239135000000033 25.260869999999954 50.869570000000010 C23.902174999999943 50.869570000000010 21.184785000000034 50.869570000000010 19.826090000000022 50.869570000000010 C19.836959999999976 56.902177499999993 19.858699999999999 68.967392500000017 19.869569999999953 75.000000000000000 C21.576090000000022 75.000000000000000 24.989130000000046 75.000000000000000 26.695650000000001 75.000000000000000 C26.695650000000001 73.336957499999983 26.695650000000001 70.010872500000005 26.695650000000001 68.347829999999988 z" />
<glyph unicode="#" horiz-adv-x="61.565216999999997" d="M37.347830000000002 20.000000000000000 C34.130437499999971 20.000000000000000 27.695652500000051 20.000000000000000 24.478259999999977 20.000000000000000 C23.500000000000000 15.000000000000000 21.543480000000045 5.000000000000000 20.565219999999954 0.000000000000000 C18.815219999999954 0.000000000000000 15.315219999999954 0.000000000000000 13.565219999999954 0.000000000000000 C14.543480000000045 5.000000000000000 16.500000000000000 15.000000000000000 17.478259999999977 20.000000000000000 C14.565217500000017 20.000000000000000 8.739132499999982 20.000000000000000 5.826090000000022 20.000000000000000 C5.826090000000022 21.673912500000029 5.826090000000022 25.021737499999972 5.826090000000022 26.695650000000001 C9.054349999999999 26.695650000000001 15.510869999999954 26.695650000000001 18.739130000000046 26.695650000000001 C19.586954999999989 31.021737499999972 21.282604999999990 39.673912500000029 22.130430000000047 44.000000000000000 C18.978257500000041 44.000000000000000 12.673912500000029 44.000000000000000 9.521740000000023 44.000000000000000 C9.521740000000023 45.695652499999994 9.521740000000023 49.086957499999983 9.521740000000023 50.782609999999977 C13.000000000000000 50.782609999999977 19.956519999999955 50.782609999999977 23.434780000000046 50.782609999999977 C24.434780000000046 55.858697500000005 26.434780000000046 66.010872500000005 27.434780000000046 71.086959999999976 C29.184780000000046 71.086959999999976 32.684780000000046 71.086959999999976 34.434780000000046 71.086959999999976 C33.434780000000046 66.010872500000005 31.434780000000046 55.858697500000005 30.434780000000046 50.782609999999977 C33.652172500000006 50.782609999999977 40.086957500000040 50.782609999999977 43.304349999999999 50.782609999999977 C44.304349999999999 55.858697500000005 46.304349999999999 66.010872500000005 47.304349999999999 71.086959999999976 C49.065219999999954 71.086959999999976 52.586959999999976 71.086959999999976 54.347830000000044 71.086959999999976 C53.347830000000044 66.010872500000005 51.347830000000044 55.858697500000005 50.347830000000044 50.782609999999977 C52.836959999999976 50.782609999999977 57.815219999999954 50.782609999999977 60.304349999999999 50.782609999999977 C60.304349999999999 49.086957499999983 60.304349999999999 45.695652499999994 60.304349999999999 44.000000000000000 C57.489132499999982 44.000000000000000 51.858697500000062 44.000000000000000 49.043480000000045 44.000000000000000 C48.195652500000051 39.673912500000029 46.499997499999949 31.021737499999972 45.652169999999956 26.695650000000001 C48.402169999999956 26.695650000000001 53.902169999999956 26.695650000000001 56.652169999999956 26.695650000000001 C56.652169999999956 25.021737499999972 56.652169999999956 21.673912500000029 56.652169999999956 20.000000000000000 C53.586952500000052 20.000000000000000 47.456517500000018 20.000000000000000 44.391300000000001 20.000000000000000 C43.413040000000024 15.000000000000000 41.456519999999955 5.000000000000000 40.478259999999977 0.000000000000000 C38.717390000000023 0.000000000000000 35.195650000000001 0.000000000000000 33.434780000000046 0.000000000000000 C34.413042499999960 5.000000000000000 36.369567500000016 15.000000000000000 37.347830000000044 20.000000000000000 zM25.739129999999999 26.695650000000001 C28.956522500000005 26.695650000000001 35.391307500000039 26.695650000000001 38.608699999999999 26.695650000000001 C39.456525000000056 31.021737499999972 41.152174999999943 39.673912500000029 42.000000000000000 44.000000000000000 C38.771740000000023 44.000000000000000 32.315219999999954 44.000000000000000 29.086959999999976 44.000000000000000 C28.250002500000051 39.673912500000029 26.576087499999971 31.021737499999972 25.739130000000046 26.695650000000001 z" />
<glyph unicode="$" horiz-adv-x="56.173912999999999" d="M41.782609999999998 18.304349999999999 Q41.782609999999977 22.782609999999977 38.630435000000034 25.869565000000023 Q35.478259999999977 28.956520000000012 28.043480000000045 31.434779999999989 Q17.608699999999999 34.608699999999999 12.847830000000044 39.717395000000010 Q8.086959999999976 44.826090000000022 8.086959999999976 52.695650000000001 Q8.086959999999976 60.695650000000001 12.760869999999954 65.826085000000035 Q17.434780000000046 70.956520000000012 25.565219999999954 71.913040000000024 C25.565219999999954 75.478259999999977 25.565219999999954 79.934785000000034 25.565219999999954 82.608699999999999 C27.391307500000039 82.608699999999999 31.043482499999982 82.608699999999999 32.869569999999953 82.608699999999999 C32.869569999999953 79.923914999999965 32.869569999999953 74.554345000000012 32.869569999999953 71.869559999999979 Q41.043480000000045 70.739129999999989 45.608695000000012 64.978259999999977 Q50.173909999999978 59.217390000000023 50.173909999999978 49.217390000000023 C47.188403333333326 49.217390000000023 43.456519999999955 49.217390000000023 41.217390000000023 49.217390000000023 Q41.217390000000023 56.086959999999976 37.934780000000046 60.152175000000000 Q34.652169999999956 64.217390000000023 29.086959999999976 64.217390000000023 Q23.304349999999999 64.217390000000023 20.217390000000023 61.217390000000023 Q17.130430000000047 58.217390000000023 17.130430000000047 52.826090000000022 Q17.130430000000047 47.869570000000010 20.391300000000001 44.913045000000011 Q23.652169999999956 41.956520000000012 31.086959999999976 39.521740000000023 Q38.521740000000023 37.130429999999990 42.695654999999988 34.217390000000023 Q46.869569999999953 31.304349999999999 48.826090000000022 27.434779999999989 Q50.826090000000022 23.565220000000011 50.826090000000022 18.391300000000001 Q50.826090000000022 10.173909999999978 45.869564999999966 5.130434999999977 Q40.913040000000024 0.086959999999976 32.000000000000000 -0.826090000000022 C32.000000000000000 -3.942029999999988 32.000000000000000 -7.836954999999989 32.000000000000000 -10.173909999999978 C30.184782499999983 -10.173909999999978 26.554347499999949 -10.173909999999978 24.739130000000046 -10.173909999999978 C24.739130000000046 -7.836954999999989 24.739130000000046 -3.163045000000011 24.739130000000046 -0.826090000000022 Q15.652169999999956 0.000000000000000 10.521735000000035 5.630434999999977 Q5.391300000000001 11.260870000000011 5.391300000000001 20.956520000000012 C8.391300000000001 20.956520000000012 12.141300000000001 20.956520000000012 14.391300000000001 20.956520000000012 Q14.391300000000001 14.173909999999978 17.956519999999955 10.500000000000000 Q21.521740000000023 6.826090000000022 28.086959999999976 6.826090000000022 Q34.478259999999977 6.826090000000022 38.130435000000034 9.913045000000011 Q41.782609999999977 13.000000000000000 41.782609999999977 18.304349999999999 z" />
<glyph unicode="%" horiz-adv-x="73.260869999999997" d="M5.130440000000000 57.434780000000003 Q5.130440000000021 63.826090000000022 9.195654999999988 67.978264999999965 Q13.260869999999954 72.130440000000021 19.695650000000001 72.130440000000021 Q26.173909999999978 72.130440000000021 30.195650000000001 67.956524999999999 Q34.217390000000023 63.782609999999977 34.217390000000023 57.130429999999990 C34.217390000000023 55.971009999999978 34.217390000000023 54.521734999999978 34.217390000000023 53.652170000000012 Q34.217390000000023 47.217390000000023 30.152174999999943 43.130435000000034 Q26.086959999999976 39.043479999999988 19.782609999999977 39.043479999999988 Q13.434780000000046 39.043479999999988 9.282604999999990 43.130435000000034 Q5.130430000000047 47.217390000000023 5.130440000000021 54.000000000000000 C5.130440000000021 55.144926666666663 5.130440000000021 56.576085000000035 5.130440000000021 57.434779999999989 zM11.869560000000000 53.652169999999998 Q11.869559999999979 49.869570000000010 14.021735000000035 47.391304999999988 Q16.173909999999978 44.913040000000024 19.782609999999977 44.913040000000024 Q23.260869999999954 44.913040000000024 25.369564999999966 47.304345000000012 Q27.478259999999977 49.695650000000001 27.478259999999977 53.869570000000010 C27.478259999999977 55.057973333333337 27.478259999999977 56.543477499999995 27.478259999999977 57.434779999999989 Q27.478259999999977 61.217390000000023 25.391304999999988 63.717390000000023 Q23.304349999999999 66.217390000000023 19.695650000000001 66.217390000000023 Q16.043480000000045 66.217390000000023 13.956519999999955 63.717390000000023 Q11.869559999999979 61.217390000000023 11.869559999999979 57.217390000000023 C11.869559999999979 56.028983333333315 11.869559999999979 54.543475000000001 11.869559999999979 53.652170000000012 zM39.739130000000003 17.434780000000000 Q39.739130000000046 23.826090000000022 43.826085000000035 27.956524999999999 Q47.913040000000024 32.086959999999976 54.304349999999999 32.086959999999976 Q60.695650000000001 32.086959999999976 64.804345000000012 27.978265000000022 Q68.913040000000024 23.869570000000010 68.913040000000024 17.086959999999976 C68.913040000000024 15.927540000000022 68.913040000000024 14.478265000000022 68.913040000000024 13.608699999999999 Q68.913040000000024 7.217390000000023 64.826085000000035 3.086954999999989 Q60.739130000000046 -1.043479999999988 54.391300000000001 -1.043479999999988 Q48.043480000000045 -1.043479999999988 43.891304999999988 3.043479999999988 Q39.739130000000046 7.130440000000021 39.739130000000046 13.913040000000024 C39.739130000000046 15.086953333333327 39.739130000000046 16.554345000000012 39.739130000000046 17.434779999999989 zM46.478259999999999 13.608700000000001 Q46.478259999999977 9.782609999999977 48.630435000000034 7.304349999999999 Q50.782609999999977 4.826090000000022 54.391300000000001 4.826090000000022 Q57.913040000000024 4.826090000000022 60.021735000000035 7.239129999999989 Q62.130430000000047 9.652170000000012 62.130430000000047 13.826090000000022 C62.130430000000047 15.028986666666640 62.130430000000047 16.532607499999983 62.130430000000047 17.434779999999989 Q62.130430000000047 21.304349999999999 60.000000000000000 23.739129999999989 Q57.869569999999953 26.173909999999978 54.304349999999999 26.173909999999978 Q50.826090000000022 26.173909999999978 48.652174999999943 23.760870000000011 Q46.478259999999977 21.347829999999988 46.478259999999977 17.217390000000023 C46.478259999999977 16.014493333333348 46.478259999999977 14.510872500000005 46.478259999999977 13.608699999999999 zM21.826090000000001 5.391300000000000 C20.543480000000045 6.195650000000001 17.978259999999977 7.804349999999999 16.695650000000001 8.608699999999999 C25.380432499999984 22.500002499999994 42.749997499999949 50.282607500000040 51.434780000000046 64.173909999999978 C52.706519999999955 63.369562500000029 55.250000000000000 61.760867500000018 56.521740000000023 60.956520000000012 C47.847827499999994 47.065214999999966 30.500002500000051 19.282604999999990 21.826090000000022 5.391300000000001 z" />
<glyph unicode="&#x26;" horiz-adv-x="62.173912999999999" d="M4.913040000000000 19.086960000000001 Q4.913040000000024 24.217390000000023 7.782604999999990 28.521740000000023 Q10.652169999999956 32.826090000000022 18.695650000000001 38.521740000000023 Q13.956519999999955 44.304349999999999 12.347825000000057 47.804349999999999 Q10.739130000000046 51.304349999999999 10.739130000000046 54.782609999999977 Q10.739130000000046 62.869570000000010 15.521740000000023 67.478265000000022 Q20.304349999999999 72.086959999999976 28.521740000000023 72.086959999999976 Q35.826090000000022 72.086959999999976 40.608695000000012 67.804349999999999 Q45.391300000000001 63.521740000000023 45.391300000000001 57.043479999999988 Q45.391300000000001 52.739129999999989 43.217390000000023 49.108695000000012 Q41.043480000000045 45.478259999999977 35.652169999999956 41.434779999999989 C33.913040000000024 40.159420000000011 31.739127499999995 38.565220000000011 30.434780000000046 37.608699999999999 C34.391302500000052 32.880437499999971 42.304347499999949 23.423912500000029 46.260869999999954 18.695650000000001 Q49.565219999999954 25.043479999999988 49.565219999999954 32.826090000000022 C52.275363333333303 32.826090000000022 55.663042499999960 32.826090000000022 57.695650000000001 32.826090000000022 Q57.695650000000001 20.347829999999988 51.695650000000001 12.173909999999978 C55.086956666666651 8.115940000000023 59.326090000000022 3.043477499999995 61.869569999999953 0.000000000000000 C59.163047499999948 0.000000000000000 53.750002500000051 0.000000000000000 51.043480000000045 0.000000000000000 C49.858697500000062 1.402175000000000 47.489132499999982 4.206524999999999 46.304349999999999 5.608699999999999 Q42.695650000000001 2.391300000000001 37.826085000000035 0.717390000000023 Q32.956519999999955 -0.956520000000012 27.913040000000024 -0.956520000000012 Q17.521740000000023 -0.956520000000012 11.217390000000023 4.543479999999988 Q4.913040000000024 10.043479999999988 4.913040000000024 19.086959999999976 zM27.913039999999999 6.391300000000000 Q35.086959999999976 6.391300000000001 41.043480000000045 11.869559999999979 C35.275363333333303 18.782606666666652 28.065217500000017 27.423915000000022 23.739130000000046 32.608699999999999 C23.336954999999989 32.315220000000011 22.532604999999990 31.728259999999977 22.130430000000047 31.434779999999989 Q13.956519999999955 25.434779999999989 13.956519999999955 19.086959999999976 Q13.956519999999955 13.347829999999988 17.695650000000001 9.869565000000023 Q21.434780000000046 6.391300000000001 27.913040000000024 6.391300000000001 zM19.782609999999998 55.086959999999998 Q19.782609999999977 50.391300000000001 25.521740000000023 43.347829999999988 C27.449276666666719 44.695653333333325 29.858697499999948 46.380432499999984 31.304349999999999 47.391300000000001 Q34.608699999999999 49.739129999999989 35.826090000000022 51.869565000000023 Q37.043480000000045 54.000000000000000 37.043480000000045 57.043479999999988 Q37.043480000000045 60.304349999999999 34.608695000000012 62.478259999999977 Q32.173909999999978 64.652170000000012 28.478259999999977 64.652170000000012 Q24.478259999999977 64.652170000000012 22.130435000000034 61.934779999999989 Q19.782609999999977 59.217390000000023 19.782609999999977 55.086959999999976 z" />
<glyph unicode="'" horiz-adv-x="17.434782999999999" d="M12.347830000000000 69.565219999999997 C12.097830000000044 65.076090000000022 11.597830000000044 56.097829999999988 11.347830000000044 51.608699999999999 C9.771742499999959 51.608699999999999 6.619567500000016 51.608699999999999 5.043480000000045 51.608699999999999 C5.054349999999999 57.456524999999999 5.076090000000022 69.152175000000000 5.086959999999976 75.000000000000000 C6.902177499999993 75.000000000000000 10.532612500000027 75.000000000000000 12.347830000000044 75.000000000000000 C12.347830000000044 73.641304999999988 12.347830000000044 70.923914999999965 12.347830000000044 69.565220000000011 z" />
<glyph unicode="(" horiz-adv-x="38.521738999999997" d="M11.043480000000001 56.521740000000001 Q18.173909999999978 71.304349999999999 30.956519999999955 79.782609999999977 Q31.391300000000001 79.000000000000000 31.956519999999955 78.130440000000021 C32.275359999999978 77.608699999999999 32.673909999999978 76.956524999999999 32.913040000000024 76.565220000000011 C33.163040000000024 76.173914999999965 33.663040000000024 75.391304999999988 33.913040000000024 75.000000000000000 Q34.434780000000046 74.086959999999976 34.913040000000024 73.304349999999999 Q24.260869999999954 64.347829999999988 19.086959999999976 53.434779999999989 Q13.391300000000001 41.565220000000011 13.173909999999978 25.434779999999989 Q13.173909999999978 -1.608699999999999 34.913040000000024 -21.913040000000024 C33.420286666666698 -24.173909999999978 31.554345000000012 -26.999997499999949 30.434780000000046 -28.695650000000001 Q18.260869999999954 -19.086959999999976 11.347830000000044 -5.173909999999978 Q4.173909999999978 9.391300000000001 4.173909999999978 25.826090000000022 Q4.173909999999978 42.304349999999999 11.043480000000045 56.521740000000023 z" />
<glyph unicode=")" horiz-adv-x="38.826087000000001" d="M27.086960000000001 -5.173910000000000 Q20.217390000000023 -19.086959999999976 8.043480000000045 -28.695650000000001 C7.666666666666629 -28.115940000000023 7.195650000000001 -27.391302500000052 6.913040000000024 -26.956519999999955 C6.641302500000052 -26.532607500000040 6.097827499999994 -25.684782499999983 5.826090000000022 -25.260870000000011 Q4.478259999999977 -23.173909999999978 3.565219999999954 -21.913040000000024 Q25.304349999999999 -1.608699999999999 25.304349999999999 25.434779999999989 Q25.086959999999976 41.565220000000011 19.391300000000001 53.434779999999989 Q14.217390000000023 64.347829999999988 3.565219999999954 73.304349999999999 Q4.043480000000045 74.086959999999976 4.565219999999954 75.000000000000000 C4.898553333333325 75.521740000000023 5.315219999999954 76.173914999999965 5.565219999999954 76.565220000000011 Q6.826090000000022 78.652170000000012 7.521740000000023 79.782609999999977 Q20.173909999999978 71.260870000000011 27.347830000000044 56.434779999999989 Q34.304349999999999 42.086959999999976 34.304349999999999 25.826090000000022 Q34.304349999999999 9.391300000000001 27.086959999999976 -5.173909999999978 z" />
<glyph unicode="*" horiz-adv-x="43.086956999999998" d="M16.130430000000000 48.000000000000000 C12.434780000000046 49.097825000000000 5.043480000000045 51.293475000000001 1.347830000000044 52.391300000000001 C1.913047499999948 54.239127499999995 3.043482499999982 57.934782499999983 3.608699999999999 59.782609999999977 C7.293482499999982 58.413045000000011 14.663047499999948 55.673915000000022 18.347830000000044 54.304349999999999 C18.239132499999982 58.500002499999994 18.021737499999972 66.891307500000039 17.913040000000024 71.086959999999976 C19.782604999999990 71.086959999999976 23.521735000000035 71.086959999999976 25.391300000000001 71.086959999999976 C25.271735000000035 66.826090000000022 25.032604999999990 58.304349999999999 24.913040000000024 54.043479999999988 C28.532604999999990 55.391304999999988 35.771735000000035 58.086954999999989 39.391300000000001 59.434779999999989 C39.956517500000018 57.576085000000035 41.086952500000052 53.858695000000012 41.652169999999956 52.000000000000000 C37.902169999999956 50.891304999999988 30.402169999999956 48.673914999999965 26.652169999999956 47.565220000000011 C29.076085000000035 44.260872500000005 33.923914999999965 37.652177499999993 36.347830000000044 34.347829999999988 C34.826090000000022 33.195654999999988 31.782609999999977 30.891304999999988 30.260869999999954 29.739129999999989 C27.989130000000046 33.250000000000000 23.445650000000001 40.271740000000023 21.173909999999978 43.782609999999977 C18.978257500000041 40.358697500000005 14.586952500000052 33.510872500000005 12.391300000000001 30.086959999999976 C10.869562500000029 31.195654999999988 7.826087499999971 33.413045000000011 6.304349999999999 34.521740000000023 C8.760869999999954 37.891304999999988 13.673909999999978 44.630434999999977 16.130430000000047 48.000000000000000 z" />
<glyph unicode="+" horiz-adv-x="56.695652000000003" d="M32.695650000000001 38.130429999999997 C37.652172500000006 38.130429999999990 47.565217500000017 38.130429999999990 52.521740000000023 38.130429999999990 C52.521740000000023 35.999997500000006 52.521740000000023 31.739132499999982 52.521740000000023 29.608699999999999 C47.565217500000017 29.608699999999999 37.652172500000006 29.608699999999999 32.695650000000001 29.608699999999999 C32.695650000000001 23.989134999999976 32.695650000000001 12.750004999999987 32.695650000000001 7.130440000000021 C30.434780000000046 7.130440000000021 25.913040000000024 7.130440000000021 23.652169999999956 7.130440000000021 C23.652169999999956 12.750004999999987 23.652169999999956 23.989134999999976 23.652169999999956 29.608699999999999 C18.695650000000001 29.608699999999999 8.782609999999977 29.608699999999999 3.826090000000022 29.608699999999999 C3.826090000000022 31.739132499999982 3.826090000000022 35.999997500000006 3.826090000000022 38.130429999999990 C8.782609999999977 38.130429999999990 18.695650000000001 38.130429999999990 23.652169999999956 38.130429999999990 C23.652169999999956 43.315214999999966 23.652169999999956 53.684785000000034 23.652169999999956 58.869570000000010 C25.913040000000024 58.869570000000010 30.434780000000046 58.869570000000010 32.695650000000001 58.869570000000010 C32.695650000000001 53.684785000000034 32.695650000000001 43.315214999999966 32.695650000000001 38.130429999999990 z" />
<glyph unicode="," horiz-adv-x="19.608695999999998" d="M6.521740000000000 -14.173909999999999 C5.250000000000000 -13.293475000000001 2.706519999999955 -11.532604999999990 1.434780000000046 -10.652170000000012 Q6.000000000000000 -4.260870000000011 6.217390000000023 2.521740000000023 C6.217390000000023 5.246376666666663 6.217390000000023 8.652172500000006 6.217390000000023 10.695650000000001 C8.423912500000029 10.695650000000001 12.836957500000040 10.695650000000001 15.043480000000045 10.695650000000001 C15.043480000000045 8.923912500000029 15.043480000000045 5.380437500000028 15.043480000000045 3.608699999999999 Q15.043480000000045 -1.304349999999999 12.630435000000034 -6.239129999999989 Q10.217390000000023 -11.173909999999978 6.521740000000023 -14.173909999999978 z" />
<glyph unicode="-" horiz-adv-x="27.608695999999998" d="M25.652170000000002 26.521740000000001 C19.695650000000001 26.521740000000023 7.782609999999977 26.521740000000023 1.826090000000022 26.521740000000023 C1.826090000000022 28.358697500000005 1.826090000000022 32.032612500000027 1.826090000000022 33.869570000000010 C7.782609999999977 33.869570000000010 19.695650000000001 33.869570000000010 25.652169999999956 33.869570000000010 C25.652169999999956 32.032612500000027 25.652169999999956 28.358697500000005 25.652169999999956 26.521740000000023 z" />
<glyph unicode="." horiz-adv-x="28.347826000000001" d="M9.260870000000001 9.434780000000000 Q10.782609999999977 11.043479999999988 13.565219999999954 11.043479999999988 Q16.391300000000001 11.043479999999988 17.956519999999955 9.434779999999989 Q19.434780000000046 7.913040000000024 19.434780000000046 5.391300000000001 Q19.434780000000046 3.043479999999988 17.956519999999955 1.565220000000011 Q16.347830000000044 0.000000000000000 13.565219999999954 0.000000000000000 Q10.782609999999977 0.000000000000000 9.260869999999954 1.565220000000011 Q7.826090000000022 3.000000000000000 7.826090000000022 5.391300000000001 Q7.826090000000022 7.913040000000024 9.260869999999954 9.434779999999989 z" />
<glyph unicode="/" horiz-adv-x="41.217390999999999" d="M8.652170000000000 -6.086960000000000 C6.706519999999955 -6.086959999999976 2.815219999999954 -6.086959999999976 0.869569999999953 -6.086959999999976 C8.293482499999982 13.206520000000012 23.141307500000039 51.793479999999988 30.565219999999954 71.086959999999976 C32.489132499999982 71.086959999999976 36.336957500000040 71.086959999999976 38.260869999999954 71.086959999999976 C30.858695000000012 51.793479999999988 16.054345000000012 13.206520000000012 8.652169999999956 -6.086959999999976 z" />
<glyph unicode="0" horiz-adv-x="56.173912999999999" d="M50.478259999999999 30.304349999999999 Q50.478259999999977 14.434779999999989 45.065214999999966 6.739129999999989 Q39.652169999999956 -0.956520000000012 28.130430000000047 -0.956520000000012 Q16.739130000000046 -0.956520000000012 11.282609999999977 6.586959999999976 Q5.826090000000022 14.130440000000021 5.608699999999999 29.086959999999976 C5.608699999999999 33.115943333333348 5.608699999999999 38.152172500000006 5.608699999999999 41.173909999999978 Q5.608699999999999 56.826090000000022 11.021740000000023 64.456524999999999 Q16.434780000000046 72.086959999999976 28.043480000000045 72.086959999999976 Q39.521740000000023 72.086959999999976 44.934785000000034 64.739129999999989 Q50.347830000000044 57.391300000000001 50.478259999999977 42.043479999999988 C50.478259999999977 38.130436666666697 50.478259999999977 33.239132499999982 50.478259999999977 30.304349999999999 zM41.434780000000003 42.695650000000001 Q41.434780000000046 54.130429999999990 38.217390000000023 59.391300000000001 Q35.000000000000000 64.652170000000012 28.043480000000045 64.652170000000012 Q21.086959999999976 64.652170000000012 17.913045000000011 59.434779999999989 Q14.739130000000046 54.217390000000023 14.652169999999956 43.347829999999988 C14.652169999999956 38.536233333333314 14.652169999999956 32.521737499999972 14.652169999999956 28.913040000000024 Q14.652169999999956 17.391300000000001 18.000000000000000 11.891300000000001 Q21.347830000000044 6.391300000000001 28.130430000000047 6.391300000000001 Q34.826090000000022 6.391300000000001 38.065219999999954 11.565215000000023 Q41.304349999999999 16.739129999999989 41.434780000000046 27.869570000000010 C41.434780000000046 32.811596666666674 41.434780000000046 38.989129999999989 41.434780000000046 42.695650000000001 z" />
<glyph unicode="1" horiz-adv-x="56.173912999999999" d="M35.608699999999999 0.000000000000000 C33.336959999999976 0.000000000000000 28.793480000000045 0.000000000000000 26.521740000000023 0.000000000000000 C26.521740000000023 15.054347500000006 26.521740000000023 45.163042500000017 26.521740000000023 60.217390000000023 C21.967392499999960 58.543477499999995 12.858697499999948 55.195652499999994 8.304349999999999 53.521740000000023 C8.304349999999999 55.576087499999971 8.304349999999999 59.684782499999983 8.304349999999999 61.739129999999989 C14.771740000000023 64.163042500000017 27.706519999999955 69.010867500000018 34.173909999999978 71.434779999999989 C34.532607500000040 71.434779999999989 35.250002500000051 71.434779999999989 35.608699999999999 71.434779999999989 C35.608699999999999 53.576085000000035 35.608699999999999 17.858695000000012 35.608699999999999 0.000000000000000 z" />
<glyph unicode="2" horiz-adv-x="56.173912999999999" d="M52.478259999999999 0.000000000000000 C40.836954999999989 0.000000000000000 17.554345000000012 0.000000000000000 5.913040000000024 0.000000000000000 C5.913040000000024 1.619565000000023 5.913040000000024 4.858695000000012 5.913040000000024 6.478259999999977 C12.065214999999966 13.315217500000017 24.369564999999966 26.989132499999982 30.521740000000023 33.826090000000022 Q36.000000000000000 40.043479999999988 38.065214999999966 43.913045000000011 Q40.130430000000047 47.782609999999977 40.130430000000047 51.956520000000012 Q40.130430000000047 57.521740000000023 36.760864999999967 61.086954999999989 Q33.391300000000001 64.652170000000012 27.782609999999977 64.652170000000012 Q21.043480000000045 64.652170000000012 17.304349999999999 60.826084999999978 Q13.565219999999954 57.000000000000000 13.565219999999954 50.130429999999990 C10.550726666666719 50.130429999999990 6.782609999999977 50.130429999999990 4.521740000000023 50.130429999999990 Q4.521740000000023 59.956520000000012 10.847825000000057 66.021740000000023 Q17.173909999999978 72.086959999999976 27.782609999999977 72.086959999999976 Q37.695650000000001 72.086959999999976 43.456519999999955 66.869564999999966 Q49.217390000000023 61.652170000000012 49.217390000000023 53.043479999999988 Q49.217390000000023 42.521740000000023 35.826090000000022 28.043479999999988 C29.478263333333302 21.159420000000011 21.543480000000045 12.554345000000012 16.782609999999977 7.391300000000001 C25.706522500000005 7.391300000000001 43.554347499999949 7.391300000000001 52.478259999999977 7.391300000000001 C52.478259999999977 5.543475000000001 52.478259999999977 1.847825000000000 52.478259999999977 0.000000000000000 z" />
<glyph unicode="3" horiz-adv-x="56.173912999999999" d="M19.043479999999999 39.956519999999998 C20.739132499999982 39.956520000000012 24.130437499999971 39.956520000000012 25.826090000000022 39.956520000000012 Q32.217390000000023 40.043480000000045 35.891304999999988 43.304349999999999 Q39.565219999999954 46.565220000000011 39.565219999999954 52.130429999999990 Q39.565219999999954 64.652170000000012 27.086959999999976 64.652170000000012 Q21.260869999999954 64.652170000000012 17.760869999999954 61.304345000000012 Q14.260869999999954 57.956520000000012 14.260869999999954 52.434779999999989 C11.246376666666720 52.434779999999989 7.478259999999977 52.434779999999989 5.217390000000023 52.434779999999989 Q5.217390000000023 60.869570000000010 11.391304999999988 66.478265000000022 Q17.565219999999954 72.086959999999976 27.086959999999976 72.086959999999976 Q37.173909999999978 72.086959999999976 42.869564999999966 66.760870000000011 Q48.565219999999954 61.434779999999989 48.565219999999954 51.956520000000012 Q48.565219999999954 47.304349999999999 45.565219999999954 42.956524999999999 Q42.565219999999954 38.608699999999999 37.391300000000001 36.478259999999977 Q43.260869999999954 34.608699999999999 46.456519999999955 30.326090000000022 Q49.652169999999956 26.043479999999988 49.652169999999956 19.826090000000022 Q49.652169999999956 10.260870000000011 43.413040000000024 4.652175000000000 Q37.173909999999978 -0.956520000000012 27.173909999999978 -0.956520000000012 Q17.130430000000047 -0.956520000000012 10.869564999999966 4.456520000000012 Q4.608699999999999 9.869559999999979 4.608699999999999 18.739129999999989 C7.623190000000022 18.739129999999989 11.391302500000052 18.739129999999989 13.652169999999956 18.739129999999989 Q13.652169999999956 13.130440000000021 17.326085000000035 9.760870000000011 Q21.000000000000000 6.391300000000001 27.130430000000047 6.391300000000001 Q33.695650000000001 6.391300000000001 37.152174999999943 9.804345000000012 Q40.608699999999999 13.217390000000023 40.608699999999999 19.608699999999999 Q40.608699999999999 25.826090000000022 36.804349999999999 29.152175000000000 Q33.000000000000000 32.478260000000034 25.826090000000022 32.565220000000011 C23.565219999999954 32.565220000000011 20.739132499999982 32.565220000000011 19.043480000000045 32.565220000000011 C19.043480000000045 34.413045000000011 19.043480000000045 38.108695000000012 19.043480000000045 39.956520000000012 z" />
<glyph unicode="4" horiz-adv-x="56.173912999999999" d="M44.043480000000002 23.869570000000000 C46.510869999999954 23.869570000000010 51.445650000000001 23.869570000000010 53.913040000000024 23.869570000000010 C53.913040000000024 22.032612500000027 53.913040000000024 18.358697500000005 53.913040000000024 16.521740000000023 C51.445650000000001 16.521740000000023 46.510869999999954 16.521740000000023 44.043480000000045 16.521740000000023 C44.043480000000045 12.391304999999988 44.043480000000045 4.130434999999977 44.043480000000045 0.000000000000000 C41.771740000000023 0.000000000000000 37.228259999999977 0.000000000000000 34.956519999999955 0.000000000000000 C34.956519999999955 4.130434999999977 34.956519999999955 12.391304999999988 34.956519999999955 16.521740000000023 C26.869564999999966 16.521740000000023 10.695654999999988 16.521740000000023 2.608699999999999 16.521740000000023 C2.608699999999999 17.847827499999994 2.608699999999999 20.500002499999994 2.608699999999999 21.826090000000022 C10.565219999999954 34.141307499999982 26.478259999999977 58.771742500000016 34.434780000000046 71.086959999999976 C36.836954999999989 71.086959999999976 41.641304999999988 71.086959999999976 44.043480000000045 71.086959999999976 C44.043480000000045 59.282612500000027 44.043480000000045 35.673917500000016 44.043480000000045 23.869570000000010 zM12.826090000000001 23.869570000000000 C18.358697499999948 23.869570000000010 29.423912500000029 23.869570000000010 34.956519999999955 23.869570000000010 C34.956519999999955 32.586959999999976 34.956519999999955 50.021740000000023 34.956519999999955 58.739129999999989 C34.684782499999983 58.250000000000000 34.141307500000039 57.271740000000023 33.869569999999953 56.782609999999977 C28.608699999999999 48.554349999999999 18.086959999999976 32.097829999999988 12.826090000000022 23.869570000000010 z" />
<glyph unicode="5" horiz-adv-x="56.173912999999999" d="M10.043480000000001 35.652169999999998 C10.945652500000051 44.510867500000018 12.749997499999949 62.228262500000028 13.652169999999956 71.086959999999976 C22.760867500000018 71.086959999999976 40.978262500000028 71.086959999999976 50.086959999999976 71.086959999999976 C50.086959999999976 69.000002499999994 50.086959999999976 64.826087499999971 50.086959999999976 62.739129999999989 C42.902177499999993 62.739129999999989 28.532612500000027 62.739129999999989 21.347830000000044 62.739129999999989 C20.804349999999999 57.891304999999988 19.717390000000023 48.195654999999988 19.173909999999978 43.347829999999988 Q24.434780000000046 46.434779999999989 31.043480000000045 46.434779999999989 Q40.782609999999977 46.434779999999989 46.500000000000000 40.021740000000023 Q52.217390000000023 33.608699999999999 52.217390000000023 22.652170000000012 Q52.217390000000023 11.652170000000012 46.282609999999977 5.347825000000000 Q40.347830000000044 -0.956520000000012 29.695650000000001 -0.956520000000012 Q20.260869999999954 -0.956520000000012 14.304349999999999 4.260870000000011 Q8.347830000000044 9.478259999999977 7.521740000000023 18.695650000000001 C10.362319999999954 18.695650000000001 13.913045000000011 18.695650000000001 16.043480000000045 18.695650000000001 Q16.913040000000024 12.608699999999999 20.413040000000024 9.500000000000000 Q23.913040000000024 6.391300000000001 29.695650000000001 6.391300000000001 Q36.000000000000000 6.391300000000001 39.586954999999989 10.695650000000001 Q43.173909999999978 15.000000000000000 43.173909999999978 22.565220000000011 Q43.173909999999978 29.695650000000001 39.282604999999990 34.021740000000023 Q35.391300000000001 38.347829999999988 28.956519999999955 38.347829999999988 Q23.043480000000045 38.347829999999988 19.695650000000001 35.739129999999989 C18.898550000000000 35.086956666666651 17.902174999999943 34.271740000000023 17.304349999999999 33.782609999999977 C15.489132499999982 34.250000000000000 11.858697499999948 35.184779999999989 10.043480000000045 35.652170000000012 z" />
<glyph unicode="6" horiz-adv-x="56.173912999999999" d="M41.347830000000002 71.130439999999993 C41.347830000000044 69.217395000000010 41.347830000000044 65.391304999999988 41.347830000000044 63.478259999999977 C40.934785000000034 63.478259999999977 40.108695000000012 63.478259999999977 39.695650000000001 63.478259999999977 Q29.130430000000047 63.260870000000011 22.891300000000001 57.217390000000023 Q16.652169999999956 51.173909999999978 15.652169999999956 40.173909999999978 Q21.304349999999999 46.652170000000012 31.000000000000000 46.652170000000012 Q40.304349999999999 46.652170000000012 45.826090000000022 40.108695000000012 Q51.347830000000044 33.565220000000011 51.347830000000044 23.173909999999978 Q51.347830000000044 12.217390000000023 45.369564999999966 5.630434999999977 Q39.391300000000001 -0.956520000000012 29.347830000000044 -0.956520000000012 Q19.130430000000047 -0.956520000000012 12.782604999999990 6.869565000000023 Q6.434780000000046 14.695650000000001 6.434780000000046 27.043479999999988 C6.434780000000046 28.202900000000000 6.434780000000046 29.652175000000000 6.434780000000046 30.521740000000023 Q6.434780000000046 50.130429999999990 14.804345000000012 60.521734999999921 Q23.173909999999978 70.913039999999853 39.739130000000046 71.130440000000021 C40.275363333333303 71.130440000000021 40.945654999999988 71.130440000000021 41.347830000000044 71.130440000000021 zM29.478259999999999 39.130429999999997 Q24.869569999999953 39.130429999999990 20.956525000000056 36.347825000000000 Q17.043480000000045 33.565220000000011 15.521740000000023 29.347829999999988 C15.521740000000023 28.246379999999988 15.521740000000023 26.869567500000016 15.521740000000023 26.043479999999988 Q15.521740000000023 17.217390000000023 19.478259999999977 11.847825000000000 Q23.434780000000046 6.478259999999977 29.347830000000044 6.478259999999977 Q35.434780000000046 6.478259999999977 38.934780000000046 10.978259999999977 Q42.434780000000046 15.478259999999977 42.434780000000046 22.739129999999989 Q42.434780000000046 30.086959999999976 38.891304999999988 34.608695000000012 Q35.347830000000044 39.130429999999990 29.478259999999977 39.130429999999990 z" />
<glyph unicode="7" horiz-adv-x="56.173912999999999" d="M51.826090000000001 66.000000000000000 C44.456525000000056 49.500000000000000 29.717395000000010 16.500000000000000 22.347830000000044 0.000000000000000 C19.978262500000028 0.000000000000000 15.239127499999995 0.000000000000000 12.869559999999979 0.000000000000000 C20.206517500000018 15.913042500000017 34.880432499999984 47.739127499999995 42.217390000000023 63.652170000000012 C32.597825000000057 63.652170000000012 13.358695000000012 63.652170000000012 3.739130000000046 63.652170000000012 C3.739130000000046 65.510867500000018 3.739130000000046 69.228262500000028 3.739130000000046 71.086959999999976 C15.760869999999954 71.086959999999976 39.804349999999999 71.086959999999976 51.826090000000022 71.086959999999976 C51.826090000000022 69.815220000000011 51.826090000000022 67.271740000000023 51.826090000000022 66.000000000000000 z" />
<glyph unicode="8" horiz-adv-x="56.173912999999999" d="M49.043480000000002 52.521740000000001 Q49.043480000000045 47.217390000000023 46.217390000000023 43.065215000000023 Q43.391300000000001 38.913040000000024 38.608699999999999 36.565220000000011 Q44.173909999999978 34.173909999999978 47.434780000000046 29.586954999999989 Q50.695650000000001 25.000000000000000 50.695650000000001 19.173909999999978 Q50.695650000000001 9.956520000000012 44.456519999999955 4.500000000000000 Q38.217390000000023 -0.956520000000012 28.086959999999976 -0.956520000000012 Q17.826090000000022 -0.956520000000012 11.652174999999943 4.521740000000023 Q5.478259999999977 10.000000000000000 5.478259999999977 19.173909999999978 Q5.478259999999977 24.956520000000012 8.630435000000034 29.586954999999989 Q11.782609999999977 34.217390000000023 17.347830000000044 36.608699999999999 Q12.608699999999999 38.956520000000012 9.869564999999966 43.108695000000012 Q7.130430000000047 47.260870000000011 7.130440000000021 52.521740000000023 Q7.130440000000021 61.521740000000023 12.891304999999988 66.804349999999999 Q18.652169999999956 72.086959999999976 28.086959999999976 72.086959999999976 Q37.434780000000046 72.086959999999976 43.239130000000046 66.804349999999999 Q49.043480000000045 61.521740000000023 49.043480000000045 52.521740000000023 zM41.652169999999998 19.391300000000001 Q41.652169999999956 25.347829999999988 37.869564999999966 29.108699999999999 Q34.086959999999976 32.869570000000010 28.000000000000000 32.869570000000010 Q21.869569999999953 32.869570000000010 18.195654999999988 29.152175000000000 Q14.521740000000023 25.434779999999989 14.521740000000023 19.391300000000001 Q14.521740000000023 13.347829999999988 18.108695000000012 9.869565000000023 Q21.695650000000001 6.391300000000001 28.086959999999976 6.391300000000001 Q34.434780000000046 6.391300000000001 38.043474999999944 9.891300000000001 Q41.652169999999956 13.391300000000001 41.652169999999956 19.391300000000001 zM28.086960000000001 64.652169999999998 Q22.739130000000046 64.652170000000012 19.456519999999955 61.347825000000000 Q16.173909999999978 58.043479999999988 16.173909999999978 52.391300000000001 Q16.173909999999978 46.956520000000012 19.413040000000024 43.630434999999977 Q22.652169999999956 40.304349999999999 28.086959999999976 40.304349999999999 Q33.478259999999977 40.304349999999999 36.739130000000046 43.630434999999977 Q40.000000000000000 46.956520000000012 40.000000000000000 52.391300000000001 Q40.000000000000000 57.826090000000022 36.630435000000034 61.239129999999989 Q33.260869999999954 64.652170000000012 28.086959999999976 64.652170000000012 z" />
<glyph unicode="9" horiz-adv-x="56.173912999999999" d="M40.521740000000001 31.260870000000001 Q37.695650000000001 27.869570000000010 33.760869999999954 25.826090000000022 Q29.826090000000022 23.782609999999977 25.130430000000047 23.782609999999977 Q19.000000000000000 23.782609999999977 14.434780000000046 26.804349999999999 Q9.869559999999979 29.826090000000022 7.347830000000044 35.304349999999999 Q4.869559999999979 40.826090000000022 4.869559999999979 47.478259999999977 Q4.869559999999979 54.608699999999999 7.586954999999989 60.304349999999999 Q10.304349999999999 66.000000000000000 15.260869999999954 69.043479999999988 Q20.260869999999954 72.086959999999976 26.913040000000024 72.086959999999976 Q37.434780000000046 72.086959999999976 43.521740000000023 64.195654999999988 Q49.608699999999999 56.304349999999999 49.608699999999999 42.695650000000001 C49.608699999999999 41.811593333333349 49.608699999999999 40.706522500000005 49.608699999999999 40.043479999999988 Q49.608699999999999 19.304349999999999 41.413045000000011 9.739130000000046 Q33.217390000000023 0.173910000000092 16.652169999999956 -0.043479999999988 C16.072459999999978 -0.043479999999988 15.347822500000007 -0.043479999999988 14.913040000000024 -0.043479999999988 C14.913040000000024 1.858695000000012 14.913040000000024 5.663045000000011 14.913040000000024 7.565220000000011 C15.380432499999984 7.565220000000011 16.315217500000017 7.565220000000011 16.782609999999977 7.565220000000011 Q28.000000000000000 7.782610000000034 34.000000000000000 13.413045000000011 Q40.000000000000000 19.043479999999988 40.521740000000023 31.260870000000011 zM26.608699999999999 31.260870000000001 Q31.173909999999978 31.260870000000011 35.000000000000000 34.043479999999988 Q38.826090000000022 36.826090000000022 40.565219999999954 40.913040000000024 C40.565219999999954 42.115940000000023 40.565219999999954 43.619565000000023 40.565219999999954 44.521740000000023 Q40.565219999999954 53.434779999999989 36.717395000000010 59.000000000000000 Q32.869569999999953 64.565220000000011 26.956519999999955 64.565220000000011 Q21.000000000000000 64.565220000000011 17.391304999999988 60.000000000000000 Q13.782609999999977 55.434779999999989 13.782609999999977 47.956520000000012 Q13.782609999999977 40.652170000000012 17.260869999999954 35.956520000000012 Q20.739130000000046 31.260870000000011 26.608699999999999 31.260870000000011 z" />
<glyph unicode=":" horiz-adv-x="26.086957000000002" d="M8.739129999999999 9.521739999999999 Q10.260869999999954 11.130440000000021 13.043480000000045 11.130440000000021 Q15.826090000000022 11.130440000000021 17.434780000000046 9.521740000000023 Q18.913040000000024 8.000000000000000 18.913040000000024 5.478259999999977 Q18.913040000000024 3.130429999999990 17.434780000000046 1.652170000000012 Q15.826090000000022 0.086959999999976 13.043480000000045 0.086959999999976 Q10.260869999999954 0.086959999999976 8.739130000000046 1.652170000000012 Q7.304349999999999 3.086959999999976 7.304349999999999 5.478259999999977 Q7.304349999999999 8.000000000000000 8.739130000000046 9.521740000000023 zM8.782610000000000 39.043480000000002 Q10.304349999999999 40.652170000000012 13.086959999999976 40.652170000000012 Q15.913040000000024 40.652170000000012 17.478259999999977 39.043479999999988 Q18.956519999999955 37.521740000000023 18.956519999999955 35.000000000000000 Q18.956519999999955 32.608699999999999 17.478259999999977 31.173909999999978 Q15.869559999999979 29.608699999999999 13.086959999999976 29.608699999999999 Q10.347830000000044 29.608699999999999 8.782609999999977 31.173909999999978 Q7.347830000000044 32.608699999999999 7.347830000000044 35.000000000000000 Q7.347830000000044 37.521740000000023 8.782609999999977 39.043479999999988 z" />
<glyph unicode=";" horiz-adv-x="21.130434999999999" d="M5.434780000000000 47.869570000000003 Q5.434780000000046 50.173909999999978 6.826085000000035 51.739129999999989 Q8.217390000000023 53.304349999999999 11.000000000000000 53.304349999999999 Q13.782609999999977 53.304349999999999 15.217390000000023 51.739129999999989 Q16.652169999999956 50.173909999999978 16.652169999999956 47.869570000000010 Q16.652169999999956 45.608699999999999 15.217390000000023 44.086959999999976 Q13.782609999999977 42.565220000000011 11.000000000000000 42.565220000000011 Q8.217390000000023 42.565220000000011 6.826085000000035 44.086959999999976 Q5.434780000000046 45.608699999999999 5.434780000000046 47.869570000000010 zM7.130440000000000 -14.173909999999999 C5.847830000000044 -13.293475000000001 3.282609999999977 -11.532604999999990 2.000000000000000 -10.652170000000012 Q6.608699999999999 -4.260870000000011 6.782609999999977 2.521740000000023 C6.782609999999977 5.246376666666663 6.782609999999977 8.652172500000006 6.782609999999977 10.695650000000001 C8.989132499999982 10.695650000000001 13.402177499999993 10.695650000000001 15.608699999999999 10.695650000000001 C15.608699999999999 8.923912500000029 15.608699999999999 5.380437500000028 15.608699999999999 3.608699999999999 Q15.608699999999999 -1.304349999999999 13.195654999999988 -6.239129999999989 Q10.782609999999977 -11.173909999999978 7.130440000000021 -14.173909999999978 z" />
<glyph unicode="&#x3c;" horiz-adv-x="50.826087000000001" d="M12.869560000000000 31.434780000000000 C20.521735000000035 28.347825000000000 35.826085000000035 22.173915000000022 43.478259999999977 19.086959999999976 C43.478259999999977 16.695654999999988 43.478259999999977 11.913045000000011 43.478259999999977 9.521740000000023 C33.489130000000046 14.152175000000000 13.510869999999954 23.413045000000011 3.521740000000023 28.043479999999988 C3.521740000000023 29.826087499999971 3.521740000000023 33.391302499999995 3.521740000000023 35.173909999999978 C13.510869999999954 39.782607499999983 33.489130000000046 49.000002499999994 43.478259999999977 53.608699999999999 C43.478259999999977 51.217395000000010 43.478259999999977 46.434785000000034 43.478259999999977 44.043479999999988 C35.826085000000035 40.891304999999988 20.521735000000035 34.586954999999989 12.869559999999979 31.434779999999989 z" />
<glyph unicode="=" horiz-adv-x="54.869565000000001" d="M48.130429999999997 39.739130000000003 C37.956517500000018 39.739129999999989 17.608692499999961 39.739129999999989 7.434780000000046 39.739129999999989 C7.434780000000046 41.706522500000005 7.434780000000046 45.641307499999982 7.434780000000046 47.608699999999999 C17.608692499999961 47.608699999999999 37.956517500000018 47.608699999999999 48.130430000000047 47.608699999999999 C48.130430000000047 45.641307499999982 48.130430000000047 41.706522500000005 48.130430000000047 39.739129999999989 zM48.130429999999997 19.478259999999999 C37.956517500000018 19.478259999999977 17.608692499999961 19.478259999999977 7.434780000000046 19.478259999999977 C7.434780000000046 21.434782499999983 7.434780000000046 25.347827499999994 7.434780000000046 27.304349999999999 C17.608692499999961 27.304349999999999 37.956517500000018 27.304349999999999 48.130430000000047 27.304349999999999 C48.130430000000047 25.347827499999994 48.130430000000047 21.434782499999983 48.130430000000047 19.478259999999977 z" />
<glyph unicode="&#x3e;" horiz-adv-x="52.260869999999997" d="M38.826090000000001 31.739129999999999 C30.750002500000051 34.902172500000006 14.597827499999994 41.228257499999984 6.521740000000023 44.391300000000001 C6.521740000000023 46.706517500000018 6.521740000000023 51.336952499999995 6.521740000000023 53.652170000000012 C16.956522500000005 49.043475000000001 37.826087499999971 39.826084999999978 48.260869999999954 35.217390000000023 C48.260869999999954 33.434782499999983 48.260869999999954 29.869567500000016 48.260869999999954 28.086959999999976 C37.826087499999971 23.456524999999999 16.956522500000005 14.195654999999988 6.521740000000023 9.565220000000011 C6.521740000000023 11.913045000000011 6.521740000000023 16.608695000000012 6.521740000000023 18.956520000000012 C14.597827499999994 22.152172500000006 30.750002500000051 28.543477499999995 38.826090000000022 31.739129999999989 z" />
<glyph unicode="?" horiz-adv-x="47.217390999999999" d="M17.434780000000000 20.000000000000000 Q17.521740000000023 25.826090000000022 18.739130000000046 29.195654999999988 Q19.956519999999955 32.565220000000011 23.739130000000046 36.652170000000012 C25.869563333333303 38.855070000000012 28.532604999999990 41.608695000000012 30.130430000000047 43.260870000000011 Q34.217390000000023 47.913040000000024 34.217390000000023 53.217390000000023 Q34.217390000000023 58.347829999999988 31.543480000000045 61.260870000000011 Q28.869569999999953 64.173909999999978 23.739130000000046 64.173909999999978 Q18.739130000000046 64.173909999999978 15.717390000000023 61.521740000000023 Q12.695650000000001 58.869570000000010 12.695650000000001 54.434779999999989 C9.681156666666652 54.434779999999989 5.913040000000024 54.434779999999989 3.652169999999956 54.434779999999989 Q3.739130000000046 62.347829999999988 9.282609999999977 67.217395000000010 Q14.826090000000022 72.086959999999976 23.739130000000046 72.086959999999976 Q32.956519999999955 72.086959999999976 38.108695000000012 67.130435000000034 Q43.260869999999954 62.173909999999978 43.260869999999954 53.521740000000023 Q43.260869999999954 44.956520000000012 35.347830000000044 36.652170000000012 C33.579713333333302 34.898546666666675 31.369567500000016 32.706517500000018 30.043480000000045 31.391300000000001 Q26.478259999999977 27.434779999999989 26.478259999999977 20.000000000000000 C23.463766666666629 20.000000000000000 19.695650000000001 20.000000000000000 17.434780000000046 20.000000000000000 zM17.043479999999999 4.521740000000000 Q17.043480000000045 6.739129999999989 18.391304999999988 8.217390000000023 Q19.739130000000046 9.695650000000001 22.391300000000001 9.695650000000001 Q25.000000000000000 9.695650000000001 26.369564999999966 8.217390000000023 Q27.739130000000046 6.739129999999989 27.739130000000046 4.565220000000011 Q27.739130000000046 2.347829999999988 26.369564999999966 0.913045000000011 Q25.000000000000000 -0.521740000000023 22.391300000000001 -0.521740000000023 Q19.739130000000046 -0.521740000000023 18.391304999999988 0.913045000000011 Q17.043480000000045 2.347829999999988 17.043480000000045 4.521740000000023 z" />
<glyph unicode="@" horiz-adv-x="89.782608999999994" d="M84.869560000000007 24.521740000000001 Q84.260869999999954 12.695650000000001 79.000000000000000 5.869565000000023 Q73.739130000000046 -0.956520000000012 64.913040000000024 -0.956520000000012 Q55.782609999999977 -0.956520000000012 53.173909999999978 7.217390000000023 Q50.521740000000023 3.086959999999976 47.130435000000034 1.065220000000011 Q43.739130000000046 -0.956520000000012 40.130430000000047 -0.956520000000012 Q33.217390000000023 -0.956520000000012 29.652169999999956 4.695650000000001 Q26.826090000000022 9.173909999999978 26.826090000000022 16.434779999999989 Q26.826090000000022 18.304349999999999 27.000000000000000 20.347829999999988 Q27.739130000000046 28.434779999999989 30.695650000000001 34.739129999999989 Q33.652169999999956 41.043479999999988 38.304349999999999 44.652170000000012 Q42.956519999999955 48.304349999999999 48.086959999999976 48.304349999999999 Q52.043480000000045 48.304349999999999 55.173914999999965 47.239129999999989 Q58.304349999999999 46.173909999999978 62.217390000000023 43.130429999999990 C61.362316666666629 34.101446666666675 60.293474999999944 22.815217500000017 59.652169999999956 16.043479999999988 Q59.565219999999954 14.782609999999977 59.565219999999954 13.652170000000012 Q59.565219999999954 4.782609999999977 65.913040000000024 4.782609999999977 Q71.434780000000046 4.782609999999977 74.847825000000057 10.260870000000011 Q78.260869999999954 15.739129999999989 78.565219999999954 24.521740000000023 Q78.652169999999956 26.478259999999977 78.652169999999956 28.347829999999988 Q78.652169999999956 44.565220000000011 71.086954999999989 54.000000000000000 Q63.521740000000023 63.434779999999989 47.217390000000023 63.434779999999989 Q37.391300000000001 63.434779999999989 29.782604999999990 58.565215000000023 Q22.173909999999978 53.695650000000001 17.782609999999977 44.521740000000023 Q13.391300000000001 35.347829999999988 12.826090000000022 23.347829999999988 Q12.739130000000046 21.652170000000012 12.739130000000046 20.043479999999988 Q12.739130000000046 10.000000000000000 16.021740000000023 1.695650000000001 Q19.304349999999999 -6.608699999999999 26.478259999999977 -11.304349999999999 Q33.695650000000001 -16.000000000000000 43.913040000000024 -16.000000000000000 Q48.304349999999999 -16.000000000000000 52.717390000000023 -14.934779999999989 Q57.130430000000047 -13.869559999999979 60.043480000000045 -12.173909999999978 C60.652176666666719 -14.043476666666663 61.413047499999948 -16.380434999999977 61.869569999999953 -17.782609999999977 Q58.826090000000022 -19.695650000000001 53.826090000000022 -20.913040000000024 Q48.826090000000022 -22.130429999999990 43.695650000000001 -22.130429999999990 Q31.478259999999977 -22.130429999999990 22.695650000000001 -16.630434999999977 Q13.913040000000024 -11.130440000000021 9.565219999999954 -0.782609999999977 Q5.695650000000001 8.260870000000011 5.695650000000001 20.043479999999988 Q5.695650000000001 21.652170000000012 5.782609999999977 23.347829999999988 Q6.347830000000044 36.782609999999977 11.760869999999954 47.500000000000000 Q17.173909999999978 58.217390000000023 26.434780000000046 64.043479999999988 Q35.739130000000046 69.869559999999979 47.391300000000001 69.869559999999979 Q59.565219999999954 69.869559999999979 68.260869999999954 64.413040000000024 Q76.956519999999955 58.956520000000012 81.217390000000023 48.652170000000012 Q84.956519999999955 39.565220000000011 84.956519999999955 27.739129999999989 Q84.956519999999955 26.173909999999978 84.869559999999979 24.521740000000023 zM34.782609999999998 20.347829999999998 Q34.608699999999999 18.565220000000011 34.608699999999999 17.000000000000000 Q34.608699999999999 12.478259999999977 36.326090000000022 9.239129999999989 Q38.043480000000045 6.000000000000000 42.347830000000044 6.000000000000000 Q45.260869999999954 6.000000000000000 47.978259999999977 8.500000000000000 Q50.695650000000001 11.000000000000000 52.434780000000046 15.608699999999999 C52.449273333333394 15.753626666666662 52.467390000000023 15.934784999999977 52.478259999999977 16.043479999999988 C53.043477499999995 22.184784999999977 54.173912500000029 34.467395000000010 54.739130000000046 40.608699999999999 Q52.000000000000000 42.043479999999988 48.869569999999953 42.043479999999988 Q43.173909999999978 42.043479999999988 39.434780000000046 36.239129999999989 Q35.695650000000001 30.434779999999989 34.782609999999977 20.347829999999988 z" />
<glyph unicode="A" horiz-adv-x="65.217391000000006" d="M47.521740000000001 18.565220000000000 C40.076087499999971 18.565220000000011 25.184782499999983 18.565220000000011 17.739130000000046 18.565220000000011 C16.065217500000017 13.923915000000022 12.717392499999960 4.641304999999988 11.043480000000045 0.000000000000000 C8.619567500000016 0.000000000000000 3.771742499999959 0.000000000000000 1.347830000000044 0.000000000000000 C8.141307500000039 17.771740000000023 21.728262500000028 53.315220000000011 28.521740000000023 71.086959999999976 C30.576087499999971 71.086959999999976 34.684782499999983 71.086959999999976 36.739130000000046 71.086959999999976 C43.532607500000040 53.315220000000011 57.119562500000029 17.771740000000023 63.913040000000024 0.000000000000000 C61.510867500000018 0.000000000000000 56.706522500000005 0.000000000000000 54.304349999999999 0.000000000000000 C52.608697499999948 4.641304999999988 49.217392499999960 13.923915000000022 47.521740000000023 18.565220000000011 zM20.565220000000000 26.260870000000001 C26.608697499999948 26.260870000000011 38.695652500000051 26.260870000000011 44.739130000000046 26.260870000000011 C41.706522500000005 34.576087499999971 35.641307500000039 51.206522500000005 32.608699999999999 59.521740000000023 C29.597830000000044 51.206522500000005 23.576090000000022 34.576087499999971 20.565219999999954 26.260870000000011 z" />
<glyph unicode="B" horiz-adv-x="62.260869999999997" d="M8.260870000000001 0.000000000000000 C8.260869999999954 17.771740000000023 8.260869999999954 53.315220000000011 8.260869999999954 71.086959999999976 C14.065217500000017 71.086959999999976 25.673912500000029 71.086959999999976 31.478259999999977 71.086959999999976 Q43.086959999999976 71.086959999999976 48.913045000000011 66.304349999999999 Q54.739130000000046 61.521740000000023 54.739130000000046 52.130429999999990 Q54.739130000000046 47.173909999999978 51.913045000000011 43.347825000000000 Q49.086959999999976 39.521740000000023 44.173909999999978 37.391300000000001 Q49.956519999999955 35.782609999999977 53.304345000000012 31.260870000000011 Q56.652169999999956 26.739129999999989 56.652169999999956 20.521740000000023 Q56.652169999999956 10.956520000000012 50.434780000000046 5.478259999999977 Q44.217390000000023 0.000000000000000 32.913040000000024 0.000000000000000 C24.695650000000001 0.000000000000000 14.423912500000029 0.000000000000000 8.260869999999954 0.000000000000000 zM17.608699999999999 33.260869999999997 C17.608699999999999 26.858695000000012 17.608699999999999 14.054345000000012 17.608699999999999 7.652170000000012 C21.478264999999965 7.652170000000012 29.217395000000010 7.652170000000012 33.086959999999976 7.652170000000012 Q39.652169999999956 7.652170000000012 43.434780000000046 11.043475000000001 Q47.217390000000023 14.434779999999989 47.217390000000023 20.391300000000001 Q47.217390000000023 33.260870000000011 33.260869999999954 33.260870000000011 C28.043480000000045 33.260870000000011 21.521742499999959 33.260870000000011 17.608699999999999 33.260870000000011 zM17.608699999999999 40.782609999999998 C21.152177499999993 40.782609999999977 28.239132499999982 40.782609999999977 31.782609999999977 40.782609999999977 Q37.956519999999955 40.782609999999977 41.630435000000034 43.847825000000000 Q45.304349999999999 46.913040000000024 45.304349999999999 52.217390000000023 Q45.304349999999999 58.043479999999988 41.891304999999988 60.717390000000023 Q38.478259999999977 63.391300000000001 31.478259999999977 63.391300000000001 C26.855073333333280 63.391300000000001 21.076090000000022 63.391300000000001 17.608699999999999 63.391300000000001 C17.608699999999999 57.739127499999995 17.608699999999999 46.434782499999983 17.608699999999999 40.782609999999977 z" />
<glyph unicode="C" horiz-adv-x="65.086956999999998" d="M60.565219999999997 22.565220000000000 Q59.217390000000023 11.260870000000011 52.217390000000023 5.152175000000000 Q45.217390000000023 -0.956520000000012 33.608699999999999 -0.956520000000012 Q21.000000000000000 -0.956520000000012 13.413045000000011 8.065220000000011 Q5.826090000000022 17.086959999999976 5.826090000000022 32.217390000000023 C5.826090000000022 34.492753333333326 5.826090000000022 37.336957499999983 5.826090000000022 39.043479999999988 Q5.826090000000022 48.956520000000012 9.347825000000057 56.478259999999977 Q12.869559999999979 64.000000000000000 19.347830000000044 68.043479999999988 Q25.869569999999953 72.086959999999976 34.434780000000046 72.086959999999976 Q45.739130000000046 72.086959999999976 52.586954999999989 65.760870000000011 Q59.434780000000046 59.434779999999989 60.565219999999954 48.260870000000011 C57.420290000000023 48.260870000000011 53.489127499999995 48.260870000000011 51.130430000000047 48.260870000000011 Q49.913040000000024 56.739129999999989 45.826085000000035 60.543479999999988 Q41.739130000000046 64.347829999999988 34.434780000000046 64.347829999999988 Q25.434780000000046 64.347829999999988 20.326085000000035 57.717395000000010 Q15.217390000000023 51.086959999999976 15.217390000000023 38.826090000000022 C15.217390000000023 36.521740000000023 15.217390000000023 33.641302499999995 15.217390000000023 31.913040000000024 Q15.217390000000023 20.347829999999988 20.065214999999966 13.521740000000023 Q24.913040000000024 6.695650000000001 33.608699999999999 6.695650000000001 Q41.391300000000001 6.695650000000001 45.565214999999966 10.239129999999989 Q49.739130000000046 13.782609999999977 51.130430000000047 22.565220000000011 C54.275359999999978 22.565220000000011 58.206522500000005 22.565220000000011 60.565219999999954 22.565220000000011 z" />
<glyph unicode="D" horiz-adv-x="65.565217000000004" d="M8.260870000000001 0.000000000000000 C8.260869999999954 17.771740000000023 8.260869999999954 53.315220000000011 8.260869999999954 71.086959999999976 C13.271740000000023 71.086959999999976 23.293480000000045 71.086959999999976 28.304349999999999 71.086959999999976 Q37.608699999999999 71.086959999999976 44.739135000000033 66.978265000000022 Q51.869569999999953 62.869570000000010 55.739130000000046 55.304349999999999 Q59.608699999999999 47.739129999999989 59.652169999999956 37.956520000000012 C59.652169999999956 36.434779999999989 59.652169999999956 34.532604999999990 59.652169999999956 33.391300000000001 Q59.652169999999956 23.347829999999988 55.782604999999990 15.782609999999977 Q51.913040000000024 8.217390000000023 44.695650000000001 4.130440000000021 Q37.521740000000023 0.086959999999976 27.913040000000024 0.000000000000000 C21.362316666666629 0.000000000000000 13.173912500000029 0.000000000000000 8.260869999999954 0.000000000000000 zM17.608699999999999 63.391300000000001 C17.608699999999999 49.456517500000018 17.608699999999999 21.586952499999995 17.608699999999999 7.652170000000012 C20.076090000000022 7.652170000000012 25.010869999999954 7.652170000000012 27.478259999999977 7.652170000000012 Q38.347830000000044 7.652170000000012 44.369564999999966 14.391300000000001 Q50.391300000000001 21.130429999999990 50.391300000000001 33.608699999999999 C50.391300000000001 34.985509999999977 50.391300000000001 36.706522500000005 50.391300000000001 37.739129999999989 Q50.391300000000001 49.869570000000010 44.695650000000001 56.565220000000011 Q39.000000000000000 63.260870000000011 28.565219999999954 63.391300000000001 C24.913046666666673 63.391300000000001 20.347830000000044 63.391300000000001 17.608699999999999 63.391300000000001 z" />
<glyph unicode="E" horiz-adv-x="56.826087000000001" d="M48.434780000000003 32.869570000000003 C40.728259999999977 32.869570000000010 25.315219999999954 32.869570000000010 17.608699999999999 32.869570000000010 C17.608699999999999 26.565220000000011 17.608699999999999 13.956520000000012 17.608699999999999 7.652170000000012 C26.565219999999954 7.652170000000012 44.478259999999977 7.652170000000012 53.434780000000046 7.652170000000012 C53.434780000000046 5.739127499999995 53.434780000000046 1.913042500000017 53.434780000000046 0.000000000000000 C42.141302500000052 0.000000000000000 19.554347499999949 0.000000000000000 8.260869999999954 0.000000000000000 C8.260869999999954 17.771740000000023 8.260869999999954 53.315220000000011 8.260869999999954 71.086959999999976 C19.423912500000029 71.086959999999976 41.749997500000063 71.086959999999976 52.913040000000024 71.086959999999976 C52.913040000000024 69.163045000000011 52.913040000000024 65.315214999999966 52.913040000000024 63.391300000000001 C44.086954999999989 63.391300000000001 26.434785000000034 63.391300000000001 17.608699999999999 63.391300000000001 C17.608699999999999 57.673909999999978 17.608699999999999 46.239129999999989 17.608699999999999 40.521740000000023 C25.315219999999954 40.521740000000023 40.728259999999977 40.521740000000023 48.434780000000046 40.521740000000023 C48.434780000000046 38.608697500000005 48.434780000000046 34.782612500000027 48.434780000000046 32.869570000000010 z" />
<glyph unicode="F" horiz-adv-x="55.260869999999997" d="M47.478259999999999 31.391300000000001 C40.010869999999954 31.391300000000001 25.076090000000022 31.391300000000001 17.608699999999999 31.391300000000001 C17.608699999999999 23.543475000000001 17.608699999999999 7.847825000000000 17.608699999999999 0.000000000000000 C15.271742499999959 0.000000000000000 10.597827499999994 0.000000000000000 8.260869999999954 0.000000000000000 C8.260869999999954 17.771740000000023 8.260869999999954 53.315220000000011 8.260869999999954 71.086959999999976 C19.271740000000023 71.086959999999976 41.293480000000045 71.086959999999976 52.304349999999999 71.086959999999976 C52.304349999999999 69.163045000000011 52.304349999999999 65.315214999999966 52.304349999999999 63.391300000000001 C43.630437499999971 63.391300000000001 26.282612500000027 63.391300000000001 17.608699999999999 63.391300000000001 C17.608699999999999 57.304345000000012 17.608699999999999 45.130435000000034 17.608699999999999 39.043479999999988 C25.076090000000022 39.043479999999988 40.010869999999954 39.043479999999988 47.478259999999977 39.043479999999988 C47.478259999999977 37.130435000000034 47.478259999999977 33.304345000000012 47.478259999999977 31.391300000000001 z" />
<glyph unicode="G" horiz-adv-x="68.130435000000006" d="M60.739130000000003 9.347830000000000 Q57.130430000000047 4.130440000000021 50.652169999999956 1.586959999999976 Q44.173909999999978 -0.956520000000012 35.608699999999999 -0.956520000000012 Q26.913040000000024 -0.956520000000012 20.173909999999978 3.108695000000012 Q13.434780000000046 7.173909999999978 9.739130000000046 14.695650000000001 Q6.043480000000045 22.217390000000023 5.956519999999955 32.130429999999990 C5.956519999999955 34.202896666666675 5.956519999999955 36.793479999999988 5.956519999999955 38.347829999999988 Q5.956519999999955 54.391300000000001 13.456519999999955 63.239129999999989 Q20.956519999999955 72.086959999999976 34.521740000000023 72.086959999999976 Q45.652169999999956 72.086959999999976 52.434780000000046 66.391304999999988 Q59.217390000000023 60.695650000000001 60.739130000000046 50.260870000000011 C57.608696666666674 50.260870000000011 53.695654999999988 50.260870000000011 51.347830000000044 50.260870000000011 Q48.739130000000046 64.347829999999988 34.565219999999954 64.347829999999988 Q25.130430000000047 64.347829999999988 20.282604999999990 57.739129999999989 Q15.434780000000046 51.130429999999990 15.391300000000001 38.565220000000011 C15.391300000000001 36.637683333333314 15.391300000000001 34.228262500000028 15.391300000000001 32.782609999999977 Q15.391300000000001 20.782609999999977 20.847825000000057 13.739129999999989 Q26.304349999999999 6.695650000000001 35.652169999999956 6.695650000000001 Q40.913040000000024 6.695650000000001 44.869564999999966 7.869565000000023 Q48.826090000000022 9.043479999999988 51.434780000000046 11.826090000000022 C51.434780000000046 17.144929999999988 51.434780000000046 23.793479999999988 51.434780000000046 27.782609999999977 C47.315214999999966 27.782609999999977 39.076085000000035 27.782609999999977 34.956519999999955 27.782609999999977 C34.956519999999955 29.684782499999983 34.956519999999955 33.489127499999995 34.956519999999955 35.391300000000001 C41.402172500000006 35.391300000000001 54.293477499999995 35.391300000000001 60.739130000000046 35.391300000000001 C60.739130000000046 28.880432499999984 60.739130000000046 15.858697500000005 60.739130000000046 9.347829999999988 z" />
<glyph unicode="H" horiz-adv-x="71.304348000000005" d="M62.869570000000003 0.000000000000000 C60.521742499999959 0.000000000000000 55.826087499999971 0.000000000000000 53.478259999999977 0.000000000000000 C53.478259999999977 8.217392500000017 53.478259999999977 24.652177499999993 53.478259999999977 32.869570000000010 C44.510869999999954 32.869570000000010 26.576090000000022 32.869570000000010 17.608699999999999 32.869570000000010 C17.608699999999999 24.652177499999993 17.608699999999999 8.217392500000017 17.608699999999999 0.000000000000000 C15.271742499999959 0.000000000000000 10.597827499999994 0.000000000000000 8.260869999999954 0.000000000000000 C8.260869999999954 17.771740000000023 8.260869999999954 53.315220000000011 8.260869999999954 71.086959999999976 C10.597827499999994 71.086959999999976 15.271742499999959 71.086959999999976 17.608699999999999 71.086959999999976 C17.608699999999999 63.445654999999988 17.608699999999999 48.163045000000011 17.608699999999999 40.521740000000023 C26.576090000000022 40.521740000000023 44.510869999999954 40.521740000000023 53.478259999999977 40.521740000000023 C53.478259999999977 48.163045000000011 53.478259999999977 63.445654999999988 53.478259999999977 71.086959999999976 C55.826087499999971 71.086959999999976 60.521742499999959 71.086959999999976 62.869569999999953 71.086959999999976 C62.869569999999953 53.315220000000011 62.869569999999953 17.771740000000023 62.869569999999953 0.000000000000000 z" />
<glyph unicode="I" horiz-adv-x="27.217390999999999" d="M18.304349999999999 0.000000000000000 C15.967392499999960 0.000000000000000 11.293477499999995 0.000000000000000 8.956519999999955 0.000000000000000 C8.956519999999955 17.771740000000023 8.956519999999955 53.315220000000011 8.956519999999955 71.086959999999976 C11.293477499999995 71.086959999999976 15.967392499999960 71.086959999999976 18.304349999999999 71.086959999999976 C18.304349999999999 53.315220000000011 18.304349999999999 17.771740000000023 18.304349999999999 0.000000000000000 z" />
<glyph unicode="J" horiz-adv-x="55.173912999999999" d="M38.043480000000002 71.086960000000005 C40.402174999999943 71.086959999999976 45.119564999999966 71.086959999999976 47.478259999999977 71.086959999999976 C47.478259999999977 58.500002499999994 47.478259999999977 33.326087499999971 47.478259999999977 20.739129999999989 Q47.478259999999977 10.565220000000011 41.347825000000057 4.804349999999999 Q35.217390000000023 -0.956520000000012 25.000000000000000 -0.956520000000012 Q14.391300000000001 -0.956520000000012 8.500000000000000 4.456520000000012 Q2.608699999999999 9.869559999999979 2.608699999999999 19.608699999999999 C5.724640000000022 19.608699999999999 9.619564999999966 19.608699999999999 11.956519999999955 19.608699999999999 Q11.956519999999955 13.521740000000023 15.304345000000012 10.108695000000012 Q18.652169999999956 6.695650000000001 25.000000000000000 6.695650000000001 Q30.826090000000022 6.695650000000001 34.413045000000011 10.347825000000000 Q38.000000000000000 14.000000000000000 38.043480000000045 20.608699999999999 C38.043480000000045 37.434786666666696 38.043480000000045 58.467395000000010 38.043480000000045 71.086959999999976 z" />
<glyph unicode="K" horiz-adv-x="62.695652000000003" d="M26.304349999999999 33.043480000000002 C24.130437499999971 30.793479999999988 19.782612500000027 26.293479999999988 17.608699999999999 24.043479999999988 C17.608699999999999 18.032609999999977 17.608699999999999 6.010870000000011 17.608699999999999 0.000000000000000 C15.271742499999959 0.000000000000000 10.597827499999994 0.000000000000000 8.260869999999954 0.000000000000000 C8.260869999999954 17.771740000000023 8.260869999999954 53.315220000000011 8.260869999999954 71.086959999999976 C10.597827499999994 71.086959999999976 15.271742499999959 71.086959999999976 17.608699999999999 71.086959999999976 C17.608699999999999 62.304349999999999 17.608699999999999 44.739129999999989 17.608699999999999 35.956520000000012 C25.510872500000005 44.739129999999989 41.315217500000017 62.304349999999999 49.217390000000023 71.086959999999976 C52.054347499999949 71.086959999999976 57.728262500000028 71.086959999999976 60.565219999999954 71.086959999999976 C53.565219999999954 63.239132499999982 39.565219999999954 47.543477499999995 32.565219999999954 39.695650000000001 C40.108697499999948 29.771737499999972 55.195652500000051 9.923912499999972 62.739130000000046 0.000000000000000 C59.934782499999983 0.000000000000000 54.326087499999971 0.000000000000000 51.521740000000023 0.000000000000000 C45.217392499999960 8.260870000000011 32.608697499999948 24.782609999999977 26.304349999999999 33.043479999999988 z" />
<glyph unicode="L" horiz-adv-x="53.826087000000001" d="M17.695650000000001 7.652170000000000 C26.108695000000012 7.652170000000012 42.934785000000034 7.652170000000012 51.347830000000044 7.652170000000012 C51.347830000000044 5.739127499999995 51.347830000000044 1.913042500000017 51.347830000000044 0.000000000000000 C40.576090000000022 0.000000000000000 19.032609999999977 0.000000000000000 8.260869999999954 0.000000000000000 C8.260869999999954 17.771740000000023 8.260869999999954 53.315220000000011 8.260869999999954 71.086959999999976 C10.619564999999966 71.086959999999976 15.336954999999989 71.086959999999976 17.695650000000001 71.086959999999976 C17.695650000000001 55.228262500000028 17.695650000000001 23.510867500000018 17.695650000000001 7.652170000000012 z" />
<glyph unicode="M" horiz-adv-x="87.304348000000005" d="M20.347829999999998 71.086960000000005 C26.163047499999948 57.891307499999982 37.793482499999982 31.500002499999994 43.608699999999999 18.304349999999999 C49.413047499999948 31.500002499999994 61.021742499999959 57.891307500000039 66.826090000000022 71.086959999999976 C69.869567500000016 71.086959999999976 75.956522500000005 71.086959999999976 79.000000000000000 71.086959999999976 C79.000000000000000 53.315220000000011 79.000000000000000 17.771740000000023 79.000000000000000 0.000000000000000 C76.652174999999943 0.000000000000000 71.956525000000056 0.000000000000000 69.608699999999999 0.000000000000000 C69.608699999999999 6.923912500000029 69.608699999999999 20.771737499999972 69.608699999999999 27.695650000000001 C69.836959999999976 35.163042500000017 70.293480000000045 50.097827499999994 70.521740000000023 57.565220000000011 C64.684782499999983 44.478262500000028 53.010867500000018 18.304347500000006 47.173909999999978 5.217390000000023 C45.380432499999984 5.217390000000023 41.793477499999995 5.217390000000023 40.000000000000000 5.217390000000023 C34.173912500000029 18.271737499999972 22.521737499999972 44.380432499999984 16.695650000000001 57.434779999999989 C16.923912500000029 49.999997500000006 17.380437499999971 35.130432499999984 17.608699999999999 27.695650000000001 C17.608699999999999 20.771737499999972 17.608699999999999 6.923912500000029 17.608699999999999 0.000000000000000 C15.271742499999959 0.000000000000000 10.597827499999994 0.000000000000000 8.260869999999954 0.000000000000000 C8.260869999999954 17.771740000000023 8.260869999999954 53.315220000000011 8.260869999999954 71.086959999999976 C11.282609999999977 71.086959999999976 17.326090000000022 71.086959999999976 20.347830000000044 71.086959999999976 z" />
<glyph unicode="N" horiz-adv-x="71.304348000000005" d="M62.869570000000003 0.000000000000000 C60.521742499999959 0.000000000000000 55.826087499999971 0.000000000000000 53.478259999999977 0.000000000000000 C44.532607500000040 13.695652499999994 26.641302500000052 41.086957499999983 17.695650000000001 54.782609999999977 C17.695650000000001 41.086957499999983 17.695650000000001 13.695652499999994 17.695650000000001 0.000000000000000 C15.336954999999989 0.000000000000000 10.619564999999966 0.000000000000000 8.260869999999954 0.000000000000000 C8.260869999999954 17.771740000000023 8.260869999999954 53.315220000000011 8.260869999999954 71.086959999999976 C10.619564999999966 71.086959999999976 15.336954999999989 71.086959999999976 17.695650000000001 71.086959999999976 C26.663042499999960 57.326090000000022 44.597827499999994 29.804349999999999 53.565219999999954 16.043479999999988 C53.565219999999954 29.804349999999999 53.565219999999954 57.326090000000022 53.565219999999954 71.086959999999976 C55.891307500000039 71.086959999999976 60.543482499999982 71.086959999999976 62.869569999999953 71.086959999999976 C62.869569999999953 53.315220000000011 62.869569999999953 17.771740000000023 62.869569999999953 0.000000000000000 z" />
<glyph unicode="O" horiz-adv-x="68.739130000000003" d="M62.956519999999998 33.260869999999997 Q62.956519999999955 22.782609999999977 59.434780000000046 15.000000000000000 Q55.913040000000024 7.217390000000023 49.434780000000046 3.130429999999990 Q43.000000000000000 -0.956520000000012 34.434780000000046 -0.956520000000012 Q26.043480000000045 -0.956520000000012 19.543480000000045 3.152175000000000 Q13.043480000000045 7.260870000000011 9.434780000000046 14.913040000000024 Q5.869569999999953 22.565220000000011 5.782609999999977 32.608699999999999 C5.782609999999977 34.318843333333348 5.782609999999977 36.456522500000005 5.782609999999977 37.739129999999989 Q5.782609999999977 48.000000000000000 9.326085000000035 55.869565000000023 Q12.869559999999979 63.739129999999989 19.391300000000001 67.913040000000024 Q25.913040000000024 72.086959999999976 34.347830000000044 72.086959999999976 Q42.869569999999953 72.086959999999976 49.391304999999988 67.956524999999999 Q55.913040000000024 63.826090000000022 59.434780000000046 55.956520000000012 Q62.956519999999955 48.130429999999990 62.956519999999955 37.739129999999989 C62.956519999999955 36.246376666666663 62.956519999999955 34.380434999999977 62.956519999999955 33.260870000000011 zM53.608699999999999 37.826090000000001 Q53.608699999999999 50.478259999999977 48.543480000000045 57.239129999999989 Q43.478259999999977 64.000000000000000 34.347830000000044 64.000000000000000 Q25.434780000000046 64.000000000000000 20.326085000000035 57.239129999999989 Q15.217390000000023 50.478259999999977 15.086959999999976 38.478259999999977 C15.086959999999976 36.739129999999989 15.086959999999976 34.565217500000017 15.086959999999976 33.260870000000011 Q15.086959999999976 21.000000000000000 20.239130000000046 14.000000000000000 Q25.391300000000001 7.000000000000000 34.434780000000046 7.000000000000000 Q43.521740000000023 7.000000000000000 48.500000000000000 13.608695000000012 Q53.478259999999977 20.217390000000023 53.608699999999999 32.565220000000011 C53.608699999999999 34.318843333333348 53.608699999999999 36.510872500000005 53.608699999999999 37.826090000000022 z" />
<glyph unicode="P" horiz-adv-x="63.086956999999998" d="M17.608699999999999 27.826090000000001 C17.608699999999999 20.869567500000016 17.608699999999999 6.956522500000005 17.608699999999999 0.000000000000000 C15.271742499999959 0.000000000000000 10.597827499999994 0.000000000000000 8.260869999999954 0.000000000000000 C8.260869999999954 17.771740000000023 8.260869999999954 53.315220000000011 8.260869999999954 71.086959999999976 C14.815217500000017 71.086959999999976 27.923912500000029 71.086959999999976 34.478259999999977 71.086959999999976 Q46.130430000000047 71.086959999999976 52.760864999999967 65.130435000000034 Q59.391300000000001 59.173909999999978 59.391300000000001 49.347829999999988 Q59.391300000000001 39.000000000000000 52.913040000000024 33.413045000000011 Q46.434780000000046 27.826090000000022 34.391300000000001 27.826090000000022 C28.797100000000000 27.826090000000022 21.804349999999999 27.826090000000022 17.608699999999999 27.826090000000022 zM17.608699999999999 35.478259999999999 C21.826090000000022 35.478259999999977 30.260869999999954 35.478259999999977 34.478259999999977 35.478259999999977 Q42.000000000000000 35.478259999999977 46.000000000000000 39.021740000000023 Q50.000000000000000 42.565220000000011 50.000000000000000 49.260870000000011 Q50.000000000000000 55.608699999999999 46.000000000000000 59.413045000000011 Q42.000000000000000 63.217390000000023 35.000000000000000 63.391300000000001 C29.202900000000000 63.391300000000001 21.956525000000056 63.391300000000001 17.608699999999999 63.391300000000001 C17.608699999999999 56.413040000000024 17.608699999999999 42.456520000000012 17.608699999999999 35.478259999999977 z" />
<glyph unicode="Q" horiz-adv-x="68.739130000000003" d="M62.565219999999997 33.260869999999997 Q62.565219999999954 22.956520000000012 59.282609999999977 15.500000000000000 Q56.000000000000000 8.043479999999988 50.086959999999976 3.869570000000010 C54.318843333333348 0.550726666666662 59.608697499999948 -3.597827499999994 62.782609999999977 -6.086959999999976 C61.184782499999983 -7.565220000000011 57.989127499999995 -10.521740000000023 56.391300000000001 -12.000000000000000 C52.641300000000001 -9.021740000000023 45.141300000000001 -3.065220000000011 41.391300000000001 -0.086959999999976 Q37.869569999999953 -0.956520000000012 34.000000000000000 -0.956520000000012 Q25.565219999999954 -0.956520000000012 19.086959999999976 3.152175000000000 Q12.608699999999999 7.260870000000011 9.000000000000000 14.913040000000024 Q5.434780000000046 22.565220000000011 5.304349999999999 32.608699999999999 C5.304349999999999 34.318843333333348 5.304349999999999 36.456522500000005 5.304349999999999 37.739129999999989 Q5.304349999999999 48.000000000000000 8.869564999999966 55.869565000000023 Q12.434780000000046 63.739129999999989 18.956519999999955 67.913040000000024 Q25.478259999999977 72.086959999999976 33.869569999999953 72.086959999999976 Q42.478259999999977 72.086959999999976 49.000000000000000 67.934785000000034 Q55.521740000000023 63.782609999999977 59.043480000000045 55.956520000000012 Q62.565219999999954 48.173909999999978 62.565219999999954 37.782609999999977 C62.565219999999954 36.275363333333303 62.565219999999954 34.391304999999988 62.565219999999954 33.260870000000011 zM53.173909999999999 37.826090000000001 Q53.173909999999978 50.391300000000001 48.173909999999978 57.195650000000001 Q43.173909999999978 64.000000000000000 33.869569999999953 64.000000000000000 Q25.043480000000045 64.000000000000000 19.934785000000034 57.239129999999989 Q14.826090000000022 50.478259999999977 14.695650000000001 38.478259999999977 C14.695650000000001 36.739129999999989 14.695650000000001 34.565217500000017 14.695650000000001 33.260870000000011 Q14.695650000000001 21.043479999999988 19.804345000000012 14.021740000000023 Q24.913040000000024 7.000000000000000 34.000000000000000 7.000000000000000 Q43.086959999999976 7.000000000000000 48.065219999999954 13.608695000000012 Q53.043480000000045 20.217390000000023 53.173909999999978 32.565220000000011 C53.173909999999978 34.318843333333348 53.173909999999978 36.510872500000005 53.173909999999978 37.826090000000022 z" />
<glyph unicode="R" horiz-adv-x="61.565216999999997" d="M34.347830000000002 28.739129999999999 C30.163047499999948 28.739129999999989 21.793482499999982 28.739129999999989 17.608699999999999 28.739129999999989 C17.608699999999999 21.554347500000006 17.608699999999999 7.184782499999983 17.608699999999999 0.000000000000000 C15.260872500000005 0.000000000000000 10.565217500000017 0.000000000000000 8.217390000000023 0.000000000000000 C8.217390000000023 17.771740000000023 8.217390000000023 53.315220000000011 8.217390000000023 71.086959999999976 C14.097825000000057 71.086959999999976 25.858695000000012 71.086959999999976 31.739130000000046 71.086959999999976 Q43.739130000000046 71.086959999999976 50.217390000000023 65.630435000000034 Q56.695650000000001 60.173909999999978 56.695650000000001 49.695650000000001 Q56.695650000000001 43.086959999999976 53.108695000000012 38.152175000000000 Q49.521740000000023 33.217390000000023 43.130430000000047 30.782609999999977 C48.695650000000001 20.710146666666674 55.652174999999943 8.119567500000016 59.826090000000022 0.565220000000011 C59.826090000000022 0.423915000000022 59.826090000000022 0.141304999999988 59.826090000000022 0.000000000000000 C57.304349999999999 0.000000000000000 52.260869999999954 0.000000000000000 49.739130000000046 0.000000000000000 C45.891304999999988 7.184782499999983 38.195654999999988 21.554347500000006 34.347830000000044 28.739129999999989 zM17.608699999999999 36.434780000000003 C21.217395000000010 36.434779999999989 28.434785000000034 36.434779999999989 32.043480000000045 36.434779999999989 Q39.000000000000000 36.434779999999989 43.130435000000034 40.043475000000001 Q47.260869999999954 43.652170000000012 47.260869999999954 49.695650000000001 Q47.260869999999954 56.304349999999999 43.326085000000035 59.826090000000022 Q39.391300000000001 63.347830000000044 32.000000000000000 63.391300000000001 C27.202900000000000 63.391300000000001 21.206525000000056 63.391300000000001 17.608699999999999 63.391300000000001 C17.608699999999999 56.652170000000012 17.608699999999999 43.173909999999978 17.608699999999999 36.434779999999989 z" />
<glyph unicode="S" horiz-adv-x="59.347825999999998" d="M29.217390000000002 31.695650000000001 Q17.130430000000047 35.173909999999978 11.652169999999956 40.217390000000023 Q6.173909999999978 45.260870000000011 6.173909999999978 52.695650000000001 Q6.173909999999978 61.086959999999976 12.869564999999966 66.586959999999976 Q19.565219999999954 72.086959999999976 30.304349999999999 72.086959999999976 Q37.652169999999956 72.086959999999976 43.391300000000001 69.239129999999989 Q49.130430000000047 66.391300000000001 52.260869999999954 61.391300000000001 Q55.434780000000046 56.434779999999989 55.434780000000046 50.521740000000023 C52.289853333333326 50.521740000000023 48.358695000000012 50.521740000000023 46.000000000000000 50.521740000000023 Q46.000000000000000 57.000000000000000 41.891304999999988 60.673915000000022 Q37.782609999999977 64.347829999999988 30.304349999999999 64.347829999999988 Q23.391300000000001 64.347829999999988 19.500000000000000 61.304349999999999 Q15.608699999999999 58.260870000000011 15.608699999999999 52.826090000000022 Q15.608699999999999 48.478259999999977 19.304349999999999 45.478259999999977 Q23.000000000000000 42.478259999999977 31.869569999999953 40.000000000000000 Q40.739130000000046 37.521740000000023 45.739130000000046 34.500000000000000 Q50.739130000000046 31.478259999999977 53.130430000000047 27.478259999999977 Q55.565219999999954 23.478259999999977 55.565219999999954 18.086959999999976 Q55.565219999999954 9.434779999999989 48.826090000000022 4.239129999999989 Q42.086959999999976 -0.956520000000012 30.826090000000022 -0.956520000000012 Q23.478259999999977 -0.956520000000012 17.130435000000034 1.847825000000000 Q10.782609999999977 4.652170000000012 7.347830000000044 9.521740000000023 Q3.913040000000024 14.391300000000001 3.913040000000024 20.608699999999999 C7.057969999999955 20.608699999999999 10.989132499999982 20.608699999999999 13.347830000000044 20.608699999999999 Q13.347830000000044 14.173909999999978 18.108699999999999 10.434779999999989 Q22.869569999999953 6.695650000000001 30.826090000000022 6.695650000000001 Q38.217390000000023 6.695650000000001 42.173909999999978 9.717390000000023 Q46.130430000000047 12.739129999999989 46.130430000000047 17.956520000000012 Q46.130430000000047 23.173909999999978 42.478259999999977 26.043475000000001 Q38.826090000000022 28.913040000000024 29.217390000000023 31.695650000000001 z" />
<glyph unicode="T" horiz-adv-x="59.652174000000002" d="M57.391300000000001 63.391300000000001 C51.673909999999978 63.391300000000001 40.239130000000046 63.391300000000001 34.521740000000023 63.391300000000001 C34.521740000000023 47.543475000000001 34.521740000000023 15.847825000000000 34.521740000000023 0.000000000000000 C32.184782499999983 0.000000000000000 27.510867500000018 0.000000000000000 25.173909999999978 0.000000000000000 C25.173909999999978 15.847825000000000 25.173909999999978 47.543475000000001 25.173909999999978 63.391300000000001 C19.478257500000041 63.391300000000001 8.086952500000052 63.391300000000001 2.391300000000001 63.391300000000001 C2.391300000000001 65.315214999999966 2.391300000000001 69.163045000000011 2.391300000000001 71.086959999999976 C16.141300000000001 71.086959999999976 43.641300000000001 71.086959999999976 57.391300000000001 71.086959999999976 C57.391300000000001 69.163045000000011 57.391300000000001 65.315214999999966 57.391300000000001 63.391300000000001 z" />
<glyph unicode="U" horiz-adv-x="64.826087000000001" d="M58.304349999999999 71.086960000000005 C58.304349999999999 59.000002499999994 58.304349999999999 34.826087499999971 58.304349999999999 22.739129999999989 Q58.260869999999954 12.695650000000001 51.978259999999977 6.304345000000012 Q45.695650000000001 -0.086959999999976 34.956519999999955 -0.869570000000010 C34.130433333333372 -0.898553333333325 33.097825000000057 -0.934782499999983 32.478259999999977 -0.956520000000012 Q20.782609999999977 -0.956520000000012 13.847824999999943 5.326090000000022 Q6.913040000000024 11.608699999999999 6.826090000000022 22.652170000000012 C6.826090000000022 38.797100000000000 6.826090000000022 58.978262500000028 6.826090000000022 71.086959999999976 C9.152174999999943 71.086959999999976 13.804345000000012 71.086959999999976 16.130430000000047 71.086959999999976 C16.130430000000047 59.054349999999999 16.130430000000047 34.989129999999989 16.130430000000047 22.956520000000012 Q16.130430000000047 15.217390000000023 20.369564999999966 10.956520000000012 Q24.608699999999999 6.695650000000001 32.478259999999977 6.695650000000001 Q40.434780000000046 6.695650000000001 44.652174999999943 10.934779999999989 Q48.869569999999953 15.173909999999978 48.869569999999953 22.913040000000024 C48.869569999999953 38.971013333333303 48.869569999999953 59.043479999999988 48.869569999999953 71.086959999999976 C51.228264999999965 71.086959999999976 55.945654999999988 71.086959999999976 58.304349999999999 71.086959999999976 z" />
<glyph unicode="V" horiz-adv-x="63.608696000000002" d="M31.782609999999998 12.434780000000000 C36.858697499999948 27.097825000000000 47.010872500000005 56.423915000000022 52.086959999999976 71.086959999999976 C54.652177499999993 71.086959999999976 59.782612500000027 71.086959999999976 62.347830000000044 71.086959999999976 C55.760872500000005 53.315220000000011 42.586957500000040 17.771740000000023 36.000000000000000 0.000000000000000 C33.923912500000029 0.000000000000000 29.771737499999972 0.000000000000000 27.695650000000001 0.000000000000000 C21.108695000000012 17.771740000000023 7.934785000000034 53.315220000000011 1.347830000000044 71.086959999999976 C3.902177499999993 71.086959999999976 9.010872500000005 71.086959999999976 11.565219999999954 71.086959999999976 C16.619567500000016 56.423915000000022 26.728262500000028 27.097825000000000 31.782609999999977 12.434779999999989 z" />
<glyph unicode="W" horiz-adv-x="88.739130000000003" d="M23.565220000000000 22.391300000000001 C23.913045000000011 20.054345000000012 24.608695000000012 15.380434999999977 24.956519999999955 13.043479999999988 C25.456519999999955 15.152175000000000 26.456519999999955 19.369565000000023 26.956519999999955 21.478259999999977 C30.467390000000023 31.815217500000017 37.489130000000046 52.489132499999982 41.000000000000000 62.826090000000022 C42.978259999999977 62.826090000000022 46.934780000000046 62.826090000000022 48.913040000000024 62.826090000000022 C52.347822500000007 52.489132499999982 59.217387499999973 31.815217500000017 62.652169999999956 21.478259999999977 C63.141302499999938 19.326084999999978 64.119567500000016 15.021734999999978 64.608699999999999 12.869559999999979 C64.989135000000033 15.271734999999978 65.750004999999987 20.076084999999978 66.130440000000021 22.478259999999977 C68.880440000000021 34.630434999999977 74.380440000000021 58.934785000000034 77.130440000000021 71.086959999999976 C79.489135000000033 71.086959999999976 84.206525000000056 71.086959999999976 86.565219999999954 71.086959999999976 C82.260872500000005 53.315220000000011 73.652177499999993 17.771740000000023 69.347830000000044 0.000000000000000 C67.206525000000056 0.000000000000000 62.923914999999965 0.000000000000000 60.782609999999977 0.000000000000000 C57.119564999999966 10.891304999999988 49.793474999999944 32.673914999999965 46.130430000000047 43.565220000000011 C45.847822500000007 44.913045000000011 45.282607500000040 47.608695000000012 45.000000000000000 48.956520000000012 C44.728259999999977 47.608695000000012 44.184780000000046 44.913045000000011 43.913040000000024 43.565220000000011 C40.108692499999961 32.673914999999965 32.499997499999949 10.891304999999988 28.695650000000001 0.000000000000000 C26.565214999999966 0.000000000000000 22.304345000000012 0.000000000000000 20.173909999999978 0.000000000000000 C15.880432499999984 17.771740000000023 7.293477499999995 53.315220000000011 3.000000000000000 71.086959999999976 C5.336957500000040 71.086959999999976 10.010872500000005 71.086959999999976 12.347830000000044 71.086959999999976 C15.152177499999993 58.913045000000011 20.760872500000005 34.565215000000023 23.565219999999954 22.391300000000001 z" />
<glyph unicode="X" horiz-adv-x="62.695652000000003" d="M31.434780000000000 43.826090000000001 C35.695650000000001 50.641307499999982 44.217390000000023 64.271742500000016 48.478259999999977 71.086959999999976 C51.239130000000046 71.086959999999976 56.760869999999954 71.086959999999976 59.521740000000023 71.086959999999976 C53.902174999999943 62.271742500000016 42.663045000000011 44.641307499999982 37.043480000000045 35.826090000000022 C42.793480000000045 26.869567500000016 54.293480000000045 8.956522500000005 60.043480000000045 0.000000000000000 C57.260869999999954 0.000000000000000 51.695650000000001 0.000000000000000 48.913040000000024 0.000000000000000 C44.543474999999944 6.934782499999983 35.804345000000012 20.804347500000006 31.434780000000046 27.739129999999989 C27.043475000000058 20.804347500000006 18.260864999999967 6.934782499999983 13.869559999999979 0.000000000000000 C11.097822500000007 0.000000000000000 5.554347499999949 0.000000000000000 2.782609999999977 0.000000000000000 C8.543480000000045 8.956522500000005 20.065219999999954 26.869567500000016 25.826090000000022 35.826090000000022 C20.195654999999988 44.641307499999982 8.934785000000034 62.271742500000016 3.304349999999999 71.086959999999976 C6.054349999999999 71.086959999999976 11.554349999999999 71.086959999999976 14.304349999999999 71.086959999999976 C18.586957500000040 64.271742500000016 27.152172500000006 50.641307499999982 31.434780000000046 43.826090000000022 z" />
<glyph unicode="Y" horiz-adv-x="60.043478" d="M29.913039999999999 35.391300000000001 C34.554345000000012 44.315215000000023 43.836954999999989 62.163045000000011 48.478259999999977 71.086959999999976 C51.141302499999938 71.086959999999976 56.467387499999973 71.086959999999976 59.130430000000047 71.086959999999976 C52.999997499999949 59.945654999999988 40.739132499999982 37.663045000000011 34.608699999999999 26.521740000000023 C34.608699999999999 19.891304999999988 34.608699999999999 6.630434999999977 34.608699999999999 0.000000000000000 C32.271742499999959 0.000000000000000 27.597827499999994 0.000000000000000 25.260869999999954 0.000000000000000 C25.260869999999954 6.630434999999977 25.260869999999954 19.891304999999988 25.260869999999954 26.521740000000023 C19.130435000000034 37.663045000000011 6.869564999999966 59.945654999999988 0.739130000000046 71.086959999999976 C3.423912500000029 71.086959999999976 8.793477499999995 71.086959999999976 11.478259999999977 71.086959999999976 C16.086954999999989 62.163045000000011 25.304345000000012 44.315215000000023 29.913040000000024 35.391300000000001 z" />
<glyph unicode="Z" horiz-adv-x="59.869565000000001" d="M15.304349999999999 7.652170000000000 C25.467392499999960 7.652170000000012 45.793477499999995 7.652170000000012 55.956519999999955 7.652170000000012 C55.956519999999955 5.739127499999995 55.956519999999955 1.913042500000017 55.956519999999955 0.000000000000000 C43.021737499999972 0.000000000000000 17.152172500000006 0.000000000000000 4.217390000000023 0.000000000000000 C4.217390000000023 1.760870000000011 4.217390000000023 5.282609999999977 4.217390000000023 7.043479999999988 C13.956519999999955 21.130434999999977 33.434780000000046 49.304345000000012 43.173909999999978 63.391300000000001 C33.586954999999989 63.391300000000001 14.413045000000011 63.391300000000001 4.826090000000022 63.391300000000001 C4.826090000000022 65.315214999999966 4.826090000000022 69.163045000000011 4.826090000000022 71.086959999999976 C17.217392499999960 71.086959999999976 41.999997499999949 71.086959999999976 54.391300000000001 71.086959999999976 C54.391300000000001 69.369567500000016 54.391300000000001 65.934782499999983 54.391300000000001 64.217390000000023 C44.619562500000029 50.076084999999978 25.076087499999971 21.793475000000001 15.304349999999999 7.652170000000012 z" />
<glyph unicode="[" horiz-adv-x="26.521739" d="M25.521740000000001 73.826089999999994 C23.195652500000051 73.826090000000022 18.543477499999995 73.826090000000022 16.217390000000023 73.826090000000022 C16.217390000000023 53.413045000000011 16.217390000000023 12.586954999999989 16.217390000000023 -7.826090000000022 C18.543477499999995 -7.826090000000022 23.195652500000051 -7.826090000000022 25.521740000000023 -7.826090000000022 C25.521740000000023 -9.673915000000022 25.521740000000023 -13.369565000000023 25.521740000000023 -15.217390000000023 C20.923914999999965 -15.217390000000023 11.728264999999965 -15.217390000000023 7.130440000000021 -15.217390000000023 C7.130440000000021 8.902175000000000 7.130440000000021 57.141304999999988 7.130440000000021 81.260870000000011 C11.728264999999965 81.260870000000011 20.923914999999965 81.260870000000011 25.521740000000023 81.260870000000011 C25.521740000000023 79.402175000000000 25.521740000000023 75.684784999999977 25.521740000000023 73.826090000000022 z" />
<glyph unicode="\" horiz-adv-x="41" d="M1.956520000000000 71.086960000000005 C4.108695000000012 71.086959999999976 8.413045000000011 71.086959999999976 10.565219999999954 71.086959999999976 C17.978262500000028 51.793479999999988 32.804347499999949 13.206520000000012 40.217390000000023 -6.086959999999976 C38.076085000000035 -6.086959999999976 33.793474999999944 -6.086959999999976 31.652169999999956 -6.086959999999976 C24.228257500000041 13.206520000000012 9.380432499999984 51.793479999999988 1.956519999999955 71.086959999999976 z" />
<glyph unicode="]" horiz-adv-x="26.521739" d="M0.434780000000000 81.260869999999997 C5.054345000000012 81.260870000000011 14.293474999999944 81.260870000000011 18.913040000000024 81.260870000000011 C18.913040000000024 57.141304999999988 18.913040000000024 8.902175000000000 18.913040000000024 -15.217390000000023 C14.293474999999944 -15.217390000000023 5.054345000000012 -15.217390000000023 0.434780000000046 -15.217390000000023 C0.434780000000046 -13.369565000000023 0.434780000000046 -9.673915000000022 0.434780000000046 -7.826090000000022 C2.793474999999944 -7.826090000000022 7.510864999999967 -7.826090000000022 9.869559999999979 -7.826090000000022 C9.869559999999979 12.586954999999989 9.869559999999979 53.413045000000011 9.869559999999979 73.826090000000022 C7.510864999999967 73.826090000000022 2.793474999999944 73.826090000000022 0.434780000000046 73.826090000000022 C0.434780000000046 75.684784999999977 0.434780000000046 79.402175000000000 0.434780000000046 81.260870000000011 z" />
<glyph unicode="^" horiz-adv-x="41.782609000000001" d="M20.782609999999998 59.130429999999997 C18.467392499999960 53.249997500000006 13.836957500000040 41.489132499999982 11.521740000000023 35.608699999999999 C9.423912500000029 35.608699999999999 5.228257500000041 35.608699999999999 3.130430000000047 35.608699999999999 C6.782604999999990 44.478265000000022 14.086954999999989 62.217395000000010 17.739130000000046 71.086959999999976 C19.282607500000040 71.086959999999976 22.369562500000029 71.086959999999976 23.913040000000024 71.086959999999976 C27.554345000000012 62.217395000000010 34.836954999999989 44.478265000000022 38.478259999999977 35.608699999999999 C36.391302500000052 35.608699999999999 32.217387499999973 35.608699999999999 30.130430000000047 35.608699999999999 C27.793474999999944 41.489132499999982 23.119564999999966 53.249997500000006 20.782609999999977 59.130429999999990 z" />
<glyph unicode="_" horiz-adv-x="45.130434999999999" d="M44.913040000000002 -7.391300000000000 C33.728257500000041 -7.391300000000001 11.358692499999961 -7.391300000000001 0.173909999999978 -7.391300000000001 C0.173909999999978 -5.543475000000001 0.173909999999978 -1.847825000000000 0.173909999999978 0.000000000000000 C11.358692499999961 0.000000000000000 33.728257500000041 0.000000000000000 44.913040000000024 0.000000000000000 C44.913040000000024 -1.847825000000000 44.913040000000024 -5.543475000000001 44.913040000000024 -7.391300000000001 z" />
<glyph unicode="`" horiz-adv-x="30.913042999999998" d="M23.130430000000000 60.565219999999997 C21.195647499999950 60.565220000000011 17.326082499999984 60.565220000000011 15.391300000000001 60.565220000000011 C12.239127499999995 64.152175000000000 5.934782499999983 71.326084999999978 2.782609999999977 74.913040000000024 C5.500000000000000 74.913040000000024 10.934780000000046 74.913040000000024 13.652169999999956 74.913040000000024 C16.021735000000035 71.326084999999978 20.760864999999967 64.152175000000000 23.130430000000047 60.565220000000011 z" />
<glyph unicode="a" horiz-adv-x="54.391303999999998" d="M39.434780000000003 0.000000000000000 Q38.652169999999956 1.565220000000011 38.173909999999978 5.565220000000011 Q31.869569999999953 -0.956520000000012 23.130430000000047 -0.956520000000012 Q15.347830000000044 -0.956520000000012 10.326090000000022 3.456520000000012 Q5.304349999999999 7.869559999999979 5.304349999999999 14.652170000000012 Q5.304349999999999 22.913040000000024 11.586959999999976 27.478259999999977 Q17.869569999999953 32.043479999999988 29.260869999999954 32.043479999999988 C32.188406666666651 32.043479999999988 35.847827499999994 32.043479999999988 38.043480000000045 32.043479999999988 C38.043480000000045 33.076087499999971 38.043480000000045 35.141302499999995 38.043480000000045 36.173909999999978 Q38.043480000000045 40.913040000000024 35.217390000000023 43.717390000000023 Q32.391300000000001 46.521740000000023 26.869569999999953 46.521740000000023 Q22.000000000000000 46.521740000000023 18.739130000000046 44.086954999999989 Q15.478259999999977 41.652170000000012 15.478259999999977 38.173909999999978 C12.449273333333281 38.173909999999978 8.663040000000024 38.173909999999978 6.391300000000001 38.173909999999978 Q6.391300000000001 42.130429999999990 9.195650000000001 45.826084999999978 Q12.000000000000000 49.521740000000023 16.826090000000022 51.652170000000012 Q21.652169999999956 53.826090000000022 27.391300000000001 53.826090000000022 Q36.521740000000023 53.826090000000022 41.695654999999988 49.260870000000011 Q46.869569999999953 44.695650000000001 47.086959999999976 36.652170000000012 C47.086959999999976 28.550723333333337 47.086959999999976 18.423915000000022 47.086959999999976 12.347829999999988 Q47.086959999999976 5.086959999999976 48.913040000000024 0.782609999999977 C48.913040000000024 0.521740000000023 48.913040000000024 0.195652499999994 48.913040000000024 0.000000000000000 C46.543474999999944 0.000000000000000 41.804345000000012 0.000000000000000 39.434780000000046 0.000000000000000 zM24.478259999999999 6.869560000000000 Q28.695650000000001 6.869559999999979 32.521740000000023 9.065215000000023 Q36.347830000000044 11.260870000000011 38.043480000000045 14.782609999999977 C38.043480000000045 18.405796666666674 38.043480000000045 22.934779999999989 38.043480000000045 25.652170000000012 C36.271740000000023 25.652170000000012 32.728259999999977 25.652170000000012 30.956519999999955 25.652170000000012 Q14.347830000000044 25.652170000000012 14.347830000000044 15.913040000000024 Q14.347830000000044 11.652170000000012 17.173914999999965 9.260870000060891 Q20.000000000000000 6.869570000121712 24.478259999999977 6.869559999999979 z" />
<glyph unicode="b" horiz-adv-x="56.086956999999998" d="M51.565219999999997 25.826090000000001 Q51.565219999999954 13.739129999999989 46.000000000000000 6.391304999999988 Q40.434780000000046 -0.956520000000012 31.043480000000045 -0.956520000000012 Q21.043480000000045 -0.956520000000012 15.565219999999954 6.086959999999976 C15.420293333333348 4.057973333333337 15.239135000000033 1.521740000000023 15.130440000000021 0.000000000000000 C13.054352500000050 0.000000000000000 8.902177499999993 0.000000000000000 6.826090000000022 0.000000000000000 C6.826090000000022 18.750000000000000 6.826090000000022 56.250000000000000 6.826090000000022 75.000000000000000 C9.086957500000040 75.000000000000000 13.608692499999961 75.000000000000000 15.869559999999979 75.000000000000000 C15.869559999999979 68.000000000000000 15.869559999999979 54.000000000000000 15.869559999999979 47.000000000000000 Q21.347830000000044 53.826090000000022 30.956519999999955 53.826090000000022 Q40.565219999999954 53.826090000000022 46.065219999999954 46.543479999999988 Q51.565219999999954 39.260870000000011 51.565219999999954 26.608699999999999 C51.565219999999954 26.347829999999988 51.565219999999954 26.021742500000016 51.565219999999954 25.826090000000022 zM42.521740000000001 26.869570000000000 Q42.521740000000023 36.086959999999976 38.956519999999955 41.108695000000012 Q35.391300000000001 46.130429999999990 28.695650000000001 46.130429999999990 Q19.782609999999977 46.130429999999990 15.869559999999979 37.826090000000022 C15.869559999999979 30.217393333333348 15.869559999999979 20.706522500000005 15.869559999999979 15.000000000000000 Q20.000000000000000 6.695650000000001 28.826090000000022 6.695650000000001 Q35.304349999999999 6.695650000000001 38.913045000000011 11.717390000000023 Q42.521740000000023 16.739129999999989 42.521740000000023 26.869570000000010 z" />
<glyph unicode="c" horiz-adv-x="52.347825999999998" d="M28.043479999999999 6.391300000000000 Q32.869569999999953 6.391300000000001 36.478264999999965 9.326084999999978 Q40.086959999999976 12.260870000000011 40.478259999999977 16.652170000000012 C43.333333333333371 16.652170000000012 46.902174999999943 16.652170000000012 49.043480000000045 16.652170000000012 Q48.782609999999977 12.130440000000021 45.891304999999988 8.021740000000023 Q43.000000000000000 3.913040000000024 38.173909999999978 1.478259999999977 Q33.391300000000001 -0.956520000000012 28.043480000000045 -0.956520000000012 Q17.217390000000023 -0.956520000000012 10.847825000000057 6.239129999999989 Q4.478259999999977 13.434779999999989 4.478259999999977 25.913040000000024 C4.478259999999977 26.420286666666641 4.478259999999977 27.054345000000012 4.478259999999977 27.434779999999989 Q4.478259999999977 35.173909999999978 7.326085000000035 41.173909999999978 Q10.173909999999978 47.173909999999978 15.434780000000046 50.478259999999977 Q20.739130000000046 53.826090000000022 28.000000000000000 53.826090000000022 Q36.869569999999953 53.826090000000022 42.760869999999954 48.500000000000000 Q48.652169999999956 43.173909999999978 49.043480000000045 34.652170000000012 C46.188406666666651 34.652170000000012 42.619564999999966 34.652170000000012 40.478259999999977 34.652170000000012 Q40.086959999999976 39.782609999999977 36.586959999999976 43.086954999999989 Q33.086959999999976 46.391300000000001 28.000000000000000 46.391300000000001 Q21.086959999999976 46.391300000000001 17.304349999999999 41.434779999999989 Q13.521740000000023 36.478259999999977 13.521740000000023 27.086959999999976 C13.521740000000023 26.521740000000023 13.521740000000023 25.815215000000023 13.521740000000023 25.391300000000001 Q13.521740000000023 16.260870000000011 17.282609999999977 11.326084999999978 Q21.043480000000045 6.391300000000001 28.043480000000045 6.391300000000001 z" />
<glyph unicode="d" horiz-adv-x="56.391303999999998" d="M4.652170000000000 26.869570000000000 Q4.652169999999956 39.000000000000000 10.413040000000024 46.413045000000011 Q16.173909999999978 53.826090000000022 25.478259999999977 53.826090000000022 Q34.782609999999977 53.826090000000022 40.173909999999978 47.478259999999977 C40.173909999999978 56.652173333333337 40.173909999999978 68.119564999999966 40.173909999999978 75.000000000000000 C42.434780000000046 75.000000000000000 46.956519999999955 75.000000000000000 49.217390000000023 75.000000000000000 C49.217390000000023 56.250000000000000 49.217390000000023 18.750000000000000 49.217390000000023 0.000000000000000 C47.141302500000052 0.000000000000000 42.989127499999995 0.000000000000000 40.913040000000024 0.000000000000000 C40.804345000000012 1.413042500000017 40.586954999999989 4.239127499999995 40.478259999999977 5.652170000000012 Q35.043480000000045 -0.956520000000012 25.391300000000001 -0.956520000000012 Q16.217390000000023 -0.956520000000012 10.434780000000046 6.543479999999988 Q4.652169999999956 14.043479999999988 4.652169999999956 26.173909999999978 C4.652169999999956 26.405796666666674 4.652169999999956 26.695654999999988 4.652169999999956 26.869570000000010 zM13.652170000000000 25.826090000000001 Q13.652169999999956 16.826090000000022 17.369564999999966 11.760870000000011 Q21.086959999999976 6.695650000000001 27.652169999999956 6.695650000000001 Q36.217390000000023 6.695650000000001 40.173909999999978 14.391300000000001 C40.173909999999978 22.478256666666653 40.173909999999978 32.586952499999995 40.173909999999978 38.652170000000012 Q36.130430000000047 46.130429999999990 27.739130000000046 46.130429999999990 Q21.086959999999976 46.130429999999990 17.369564999999966 41.000000000000000 Q13.652169999999956 35.869570000000010 13.652169999999956 25.826090000000022 z" />
<glyph unicode="e" horiz-adv-x="53" d="M28.739129999999999 -0.956520000000000 Q18.000000000000000 -0.956520000000012 11.260869999999954 6.086959999999976 Q4.521740000000023 13.130440000000021 4.521740000000023 24.956520000000012 C4.521740000000023 25.507246666666674 4.521740000000023 26.195654999999988 4.521740000000023 26.608699999999999 Q4.521740000000023 34.478259999999977 7.543480000000045 40.652175000000000 Q10.565219999999954 46.826090000000022 15.956519999999955 50.304349999999999 Q21.347830000000044 53.826090000000022 27.652169999999956 53.826090000000022 Q37.956519999999955 53.826090000000022 43.652174999999943 47.021740000000023 Q49.347830000000044 40.217390000000023 49.347830000000044 27.608699999999999 C49.347830000000044 26.347829999999988 49.347830000000044 24.771742500000016 49.347830000000044 23.826090000000022 C40.402177499999993 23.826090000000022 22.510872500000005 23.826090000000022 13.565219999999954 23.826090000000022 Q13.782609999999977 16.000000000000000 18.152174999999943 11.195650000000001 Q22.521740000000023 6.391300000000001 29.260869999999954 6.391300000000001 Q34.043480000000045 6.391300000000001 37.347825000000057 8.347825000000000 Q40.652169999999956 10.304349999999999 43.173909999999978 13.521740000000023 C45.014490000000023 12.086956666666651 47.315214999999966 10.293477499999995 48.695650000000001 9.217390000000023 Q42.043480000000045 -0.956520000000012 28.739130000000046 -0.956520000000012 zM27.652170000000002 46.391300000000001 Q22.173909999999978 46.391300000000001 18.456519999999955 42.413040000000024 Q14.739130000000046 38.434779999999989 13.869559999999979 31.260870000000011 C22.695650000000001 31.260870000000011 33.728262500000028 31.260870000000011 40.347830000000044 31.260870000000011 C40.347830000000044 31.423912500000029 40.347830000000044 31.749997500000006 40.347830000000044 31.913040000000024 Q39.956519999999955 38.826090000000022 36.630435000000034 42.608695000000012 Q33.304349999999999 46.391300000000001 27.652169999999956 46.391300000000001 z" />
<glyph unicode="f" horiz-adv-x="34.695652000000003" d="M11.260870000000001 0.000000000000000 C11.260869999999954 11.467392500000017 11.260869999999954 34.402177499999993 11.260869999999954 45.869570000000010 C9.173912500000029 45.869570000000010 4.999997499999949 45.869570000000010 2.913040000000024 45.869570000000010 C2.913040000000024 47.608699999999999 2.913040000000024 51.086959999999976 2.913040000000024 52.826090000000022 C4.999997499999949 52.826090000000022 9.173912500000029 52.826090000000022 11.260869999999954 52.826090000000022 C11.260869999999954 54.184784999999977 11.260869999999954 56.902175000000000 11.260869999999954 58.260870000000011 Q11.260869999999954 66.739129999999989 15.804349999999999 71.391304999999988 Q20.347830000000044 76.043479999999988 28.652169999999956 76.043479999999988 Q31.782609999999977 76.043479999999988 34.869569999999953 75.173909999999978 C34.710146666666674 72.739126666666664 34.510867500000018 69.695647500000007 34.391300000000001 67.869559999999979 Q32.086959999999976 68.304349999999999 29.478259999999977 68.304349999999999 Q25.086959999999976 68.304349999999999 22.695654999999988 65.739129999999989 Q20.304349999999999 63.173909999999978 20.304349999999999 58.391300000000001 C20.304349999999999 56.536229999999989 20.304349999999999 54.217392500000017 20.304349999999999 52.826090000000022 C23.130437499999971 52.826090000000022 28.782612500000027 52.826090000000022 31.608699999999999 52.826090000000022 C31.608699999999999 51.086959999999976 31.608699999999999 47.608699999999999 31.608699999999999 45.869570000000010 C28.782612500000027 45.869570000000010 23.130437499999971 45.869570000000010 20.304349999999999 45.869570000000010 C20.304349999999999 34.402177499999993 20.304349999999999 11.467392500000017 20.304349999999999 0.000000000000000 C18.043480000000045 0.000000000000000 13.521740000000023 0.000000000000000 11.260869999999954 0.000000000000000 z" />
<glyph unicode="g" horiz-adv-x="56.086956999999998" d="M4.695650000000000 26.869570000000000 Q4.695650000000001 39.217390000000023 10.413040000000024 46.521740000000023 Q16.130430000000047 53.826090000000022 25.521740000000023 53.826090000000022 Q35.217390000000023 53.826090000000022 40.608699999999999 46.956520000000012 C40.753626666666719 48.913043333333349 40.934785000000034 51.358697500000005 41.043480000000045 52.826090000000022 C43.108697500000062 52.826090000000022 47.239132499999982 52.826090000000022 49.304349999999999 52.826090000000022 C49.304349999999999 39.934784999999977 49.304349999999999 14.152175000000000 49.304349999999999 1.260870000000011 Q49.304349999999999 -9.000000000000000 43.239130000000046 -14.891304999999988 Q37.173909999999978 -20.782609999999977 26.913040000000024 -20.782609999999977 Q21.173909999999978 -20.782609999999977 15.717390000000023 -18.347825000000000 Q10.260869999999954 -15.913040000000024 7.391300000000001 -11.652170000000012 C8.942026666666720 -9.855070000000012 10.880435000000034 -7.608695000000012 12.043480000000045 -6.260870000000011 Q17.869559999999979 -13.434779999999989 26.260869999999954 -13.434779999999989 Q32.869569999999953 -13.434779999999989 36.543480000000045 -9.717390000000023 Q40.217390000000023 -6.000000000000000 40.217390000000023 0.739129999999989 C40.217390000000023 2.246376666666663 40.217390000000023 4.130434999999977 40.217390000000023 5.260870000000011 Q34.826090000000022 -0.956520000000012 25.434780000000046 -0.956520000000012 Q16.173909999999978 -0.956520000000012 10.434780000000046 6.500000000000000 Q4.695650000000001 13.956520000000012 4.695650000000001 26.869570000000010 zM13.782610000000000 25.826090000000001 Q13.782609999999977 16.913040000000024 17.434785000000034 11.804345000000012 Q21.086959999999976 6.695650000000001 27.695650000000001 6.695650000000001 Q36.217390000000023 6.695650000000001 40.217390000000023 14.434779999999989 C40.217390000000023 22.478259999999977 40.217390000000023 32.532609999999977 40.217390000000023 38.565220000000011 Q36.086959999999976 46.130429999999990 27.782609999999977 46.130429999999990 Q21.173909999999978 46.130429999999990 17.478259999999977 41.000000000000000 Q13.782609999999977 35.869570000000010 13.782609999999977 25.826090000000022 z" />
<glyph unicode="h" horiz-adv-x="55.086956999999998" d="M15.869560000000000 46.434780000000003 Q21.869569999999953 53.826090000000022 31.478259999999977 53.826090000000022 Q48.260869999999954 53.826090000000022 48.391300000000001 34.913040000000024 C48.391300000000001 23.275359999999978 48.391300000000001 8.728259999999977 48.391300000000001 0.000000000000000 C46.130432499999984 0.000000000000000 41.608697500000062 0.000000000000000 39.347830000000044 0.000000000000000 C39.347830000000044 8.739129999999989 39.347830000000044 26.217390000000023 39.347830000000044 34.956520000000012 Q39.304349999999999 40.652170000000012 36.739130000000046 43.391300000000001 Q34.173909999999978 46.130429999999990 28.739130000000046 46.130429999999990 Q24.347830000000044 46.130429999999990 21.043480000000045 43.782604999999990 Q17.739130000000046 41.434779999999989 15.869559999999979 37.652170000000012 C15.869559999999979 25.101446666666675 15.869559999999979 9.413042500000017 15.869559999999979 0.000000000000000 C13.608692499999961 0.000000000000000 9.086957500000040 0.000000000000000 6.826090000000022 0.000000000000000 C6.826090000000022 18.750000000000000 6.826090000000022 56.250000000000000 6.826090000000022 75.000000000000000 C9.086957500000040 75.000000000000000 13.608692499999961 75.000000000000000 15.869559999999979 75.000000000000000 C15.869559999999979 67.858695000000012 15.869559999999979 53.576085000000035 15.869559999999979 46.434779999999989 z" />
<glyph unicode="i" horiz-adv-x="24.260870000000001" d="M16.652170000000002 0.000000000000000 C14.391302500000052 0.000000000000000 9.869567500000016 0.000000000000000 7.608699999999999 0.000000000000000 C7.608699999999999 13.206522500000005 7.608699999999999 39.619567500000016 7.608699999999999 52.826090000000022 C9.869567500000016 52.826090000000022 14.391302500000052 52.826090000000022 16.652169999999956 52.826090000000022 C16.652169999999956 39.619567500000016 16.652169999999956 13.206522500000005 16.652169999999956 0.000000000000000 zM6.869560000000000 66.826089999999994 Q6.869559999999979 69.043479999999988 8.217390000000023 70.565220000000011 Q9.565219999999954 72.086959999999976 12.217390000000023 72.086959999999976 Q14.826090000000022 72.086959999999976 16.195654999999988 70.565220000000011 Q17.565219999999954 69.043479999999988 17.565219999999954 66.869559999999979 Q17.565219999999954 64.652170000000012 16.195654999999988 63.195650000000001 Q14.826090000000022 61.739129999999989 12.217390000000023 61.739129999999989 Q9.565219999999954 61.739129999999989 8.217390000000023 63.195650000000001 Q6.869559999999979 64.652170000000012 6.869559999999979 66.826090000000022 z" />
<glyph unicode="j" horiz-adv-x="23.869565000000001" d="M16.173909999999999 52.826090000000001 C16.173909999999978 38.097827499999994 16.173909999999978 8.641302499999995 16.173909999999978 -6.086959999999976 Q16.173909999999978 -21.347829999999988 2.347830000000044 -21.347829999999988 Q-0.652169999999956 -21.347829999999988 -3.173909999999978 -20.478259999999977 C-3.173909999999978 -18.057970000000012 -3.173909999999978 -15.032607499999983 -3.173909999999978 -13.217390000000023 Q-1.608699999999999 -13.608699999999999 0.913040000000024 -13.608699999999999 Q3.956519999999955 -13.608699999999999 5.543474999999944 -11.978265000000022 Q7.130430000000047 -10.347829999999988 7.130440000000021 -6.304349999999999 C7.130440000000021 13.405796666666674 7.130440000000021 38.043479999999988 7.130440000000021 52.826090000000022 C9.391307500000039 52.826090000000022 13.913042499999960 52.826090000000022 16.173909999999978 52.826090000000022 zM6.217390000000000 66.826089999999994 Q6.217390000000023 69.000000000000000 7.543474999999944 70.543479999999988 Q8.869559999999979 72.086959999999976 11.478259999999977 72.086959999999976 Q14.130440000000021 72.086959999999976 15.478264999999965 70.565220000000011 Q16.826090000000022 69.043479999999988 16.826090000000022 66.869559999999979 Q16.826090000000022 64.652170000000012 15.478264999999965 63.195650000000001 Q14.130440000000021 61.739129999999989 11.478259999999977 61.739129999999989 Q8.826090000000022 61.739129999999989 7.521740000000023 63.195650000000001 Q6.217390000000023 64.652170000000012 6.217390000000023 66.826090000000022 z" />
<glyph unicode="k" horiz-adv-x="50.695652000000003" d="M21.565220000000000 24.478259999999999 C20.152174999999943 23.000000000000000 17.326085000000035 20.043479999999988 15.913040000000024 18.565220000000011 C15.913040000000024 13.923915000000022 15.913040000000024 4.641304999999988 15.913040000000024 0.000000000000000 C13.652169999999956 0.000000000000000 9.130430000000047 0.000000000000000 6.869559999999979 0.000000000000000 C6.869559999999979 18.750000000000000 6.869559999999979 56.250000000000000 6.869559999999979 75.000000000000000 C9.130430000000047 75.000000000000000 13.652169999999956 75.000000000000000 15.913040000000024 75.000000000000000 C15.913040000000024 63.663042500000017 15.913040000000024 40.989127499999995 15.913040000000024 29.652170000000012 C17.119562500000029 31.097822500000007 19.532607500000040 33.989127499999995 20.739130000000046 35.434779999999989 C24.858695000000012 39.782607499999983 33.097825000000057 48.478262500000028 37.217390000000023 52.826090000000022 C39.956519999999955 52.826090000000022 45.434780000000046 52.826090000000022 48.173909999999978 52.826090000000022 C43.043474999999944 47.315220000000011 32.782604999999990 36.293479999999988 27.652169999999956 30.782609999999977 C33.380432499999984 23.086957499999983 44.836957500000040 7.695652499999994 50.565219999999954 0.000000000000000 C47.923914999999965 0.000000000000000 42.641304999999988 0.000000000000000 40.000000000000000 0.000000000000000 C35.391304999999988 6.119565000000023 26.173914999999965 18.358695000000012 21.565219999999954 24.478259999999977 z" />
<glyph unicode="l" horiz-adv-x="24.260870000000001" d="M16.652170000000002 0.000000000000000 C14.391302500000052 0.000000000000000 9.869567500000016 0.000000000000000 7.608699999999999 0.000000000000000 C7.608699999999999 18.750000000000000 7.608699999999999 56.250000000000000 7.608699999999999 75.000000000000000 C9.869567500000016 75.000000000000000 14.391302500000052 75.000000000000000 16.652169999999956 75.000000000000000 C16.652169999999956 56.250000000000000 16.652169999999956 18.750000000000000 16.652169999999956 0.000000000000000 z" />
<glyph unicode="m" horiz-adv-x="87.652174000000002" d="M15.347830000000000 52.826090000000001 C15.402177499999993 51.358697500000005 15.510872500000005 48.423912500000029 15.565219999999954 46.956520000000012 Q21.391300000000001 53.826090000000022 31.260869999999954 53.826090000000022 Q42.347830000000044 53.826090000000022 46.347830000000044 45.304349999999999 Q48.956519999999955 49.130429999999990 53.195650000000001 51.478259999999977 Q57.434780000000046 53.826090000000022 63.173909999999978 53.826090000000022 Q80.565219999999954 53.826090000000022 80.869559999999979 35.391300000000001 C80.869559999999979 23.594200000000001 80.869559999999979 8.847825000000000 80.869559999999979 0.000000000000000 C78.608692499999961 0.000000000000000 74.086957500000040 0.000000000000000 71.826090000000022 0.000000000000000 C71.826090000000022 8.717392500000017 71.826090000000022 26.152177499999993 71.826090000000022 34.869570000000010 Q71.826090000000022 40.521740000000023 69.239129999999932 43.326084999999978 Q66.652169999999956 46.130429999999990 60.565219999999954 46.130429999999990 Q55.521740000000023 46.130429999999990 52.195654999999988 43.130429999999990 Q48.869569999999953 40.130429999999990 48.347830000000044 35.043479999999988 C48.347830000000044 23.362320000000011 48.347830000000044 8.760870000000011 48.347830000000044 0.000000000000000 C46.076090000000022 0.000000000000000 41.532609999999977 0.000000000000000 39.260869999999954 0.000000000000000 C39.260869999999954 8.652175000000000 39.260869999999954 25.956524999999999 39.260869999999954 34.608699999999999 Q39.260869999999954 46.130429999999990 28.000000000000000 46.130429999999990 Q19.086959999999976 46.130429999999990 15.826090000000022 38.565220000000011 C15.826090000000022 25.710146666666674 15.826090000000022 9.641304999999988 15.826090000000022 0.000000000000000 C13.565219999999954 0.000000000000000 9.043480000000045 0.000000000000000 6.782609999999977 0.000000000000000 C6.782609999999977 13.206522500000005 6.782609999999977 39.619567500000016 6.782609999999977 52.826090000000022 C8.923914999999965 52.826090000000022 13.206525000000056 52.826090000000022 15.347830000000044 52.826090000000022 z" />
<glyph unicode="n" horiz-adv-x="55.173912999999999" d="M15.391299999999999 52.826090000000001 C15.456517500000018 51.163045000000011 15.586952500000052 47.836954999999989 15.652169999999956 46.173909999999978 Q21.739130000000046 53.826090000000022 31.478259999999977 53.826090000000022 Q48.260869999999954 53.826090000000022 48.391300000000001 34.913040000000024 C48.391300000000001 23.275359999999978 48.391300000000001 8.728259999999977 48.391300000000001 0.000000000000000 C46.130432499999984 0.000000000000000 41.608697500000062 0.000000000000000 39.347830000000044 0.000000000000000 C39.347830000000044 8.739129999999989 39.347830000000044 26.217390000000023 39.347830000000044 34.956520000000012 Q39.304349999999999 40.652170000000012 36.739130000000046 43.391300000000001 Q34.173909999999978 46.130429999999990 28.739130000000046 46.130429999999990 Q24.347830000000044 46.130429999999990 21.043480000000045 43.782604999999990 Q17.739130000000046 41.434779999999989 15.869559999999979 37.652170000000012 C15.869559999999979 25.101446666666675 15.869559999999979 9.413042500000017 15.869559999999979 0.000000000000000 C13.608692499999961 0.000000000000000 9.086957500000040 0.000000000000000 6.826090000000022 0.000000000000000 C6.826090000000022 13.206522500000005 6.826090000000022 39.619567500000016 6.826090000000022 52.826090000000022 C8.967392499999960 52.826090000000022 13.249997499999949 52.826090000000022 15.391300000000001 52.826090000000022 z" />
<glyph unicode="o" horiz-adv-x="57.043478" d="M4.434780000000000 26.913039999999999 Q4.434780000000046 34.652170000000012 7.500000000000000 40.869564999999966 Q10.565219999999954 47.086959999999976 16.000000000000000 50.434779999999989 Q21.434780000000046 53.826090000000022 28.434780000000046 53.826090000000022 Q39.217390000000023 53.826090000000022 45.869564999999966 46.347829999999988 Q52.521740000000023 38.869570000000010 52.521740000000023 26.478259999999977 C52.521740000000023 26.260870000000011 52.521740000000023 25.989132499999982 52.521740000000023 25.826090000000022 Q52.521740000000023 18.130429999999990 49.586954999999989 11.999995000000013 Q46.652169999999956 5.869559999999979 41.130430000000047 2.434779999999989 Q35.652169999999956 -0.956520000000012 28.521740000000023 -0.956520000000012 Q17.782609999999977 -0.956520000000012 11.108695000000012 6.500000000000000 Q4.434780000000046 13.956520000000012 4.434780000000046 26.260870000000011 C4.434780000000046 26.478259999999977 4.434780000000046 26.749997500000006 4.434780000000046 26.913040000000024 zM13.521739999999999 25.826090000000001 Q13.521740000000023 17.043479999999988 17.608695000000012 11.717390000000023 Q21.695650000000001 6.391300000000001 28.521740000000023 6.391300000000001 Q35.391300000000001 6.391300000000001 39.456519999999955 11.782604999999990 Q43.521740000000023 17.173909999999978 43.521740000000023 26.913040000000024 Q43.521740000000023 35.608699999999999 39.391304999999988 41.000000000000000 Q35.260869999999954 46.391300000000001 28.434780000000046 46.391300000000001 Q21.739130000000046 46.391300000000001 17.630435000000034 41.065215000000023 Q13.521740000000023 35.739129999999989 13.521740000000023 25.826090000000022 z" />
<glyph unicode="p" horiz-adv-x="56.086956999999998" d="M51.478259999999999 25.826090000000001 Q51.478259999999977 13.782609999999977 45.956519999999955 6.413045000000011 Q40.434780000000046 -0.956520000000012 31.000000000000000 -0.956520000000012 Q21.391300000000001 -0.956520000000012 15.869559999999979 5.130440000000021 C15.869559999999979 -3.347823333333338 15.869559999999979 -13.945652499999994 15.869559999999979 -20.304349999999999 C13.608692499999961 -20.304349999999999 9.086957500000040 -20.304349999999999 6.826090000000022 -20.304349999999999 C6.826090000000022 -2.021740000000023 6.826090000000022 34.543479999999988 6.826090000000022 52.826090000000022 C8.891307500000039 52.826090000000022 13.021742499999959 52.826090000000022 15.086959999999976 52.826090000000022 C15.195654999999988 51.358697500000005 15.413045000000011 48.423912500000029 15.521740000000023 46.956520000000012 Q21.043480000000045 53.826090000000022 30.869569999999953 53.826090000000022 Q40.391300000000001 53.826090000000022 45.934780000000046 46.630435000000034 Q51.478259999999977 39.434779999999989 51.478259999999977 26.652170000000012 C51.478259999999977 26.376809999999978 51.478259999999977 26.032609999999977 51.478259999999977 25.826090000000022 zM42.434780000000003 26.869570000000000 Q42.434780000000046 35.782609999999977 38.630435000000034 40.956520000000012 Q34.826090000000022 46.130429999999990 28.173909999999978 46.130429999999990 Q19.956519999999955 46.130429999999990 15.869559999999979 38.869570000000010 C15.869559999999979 30.449279999999987 15.869559999999979 19.923917500000016 15.869559999999979 13.608699999999999 Q19.913040000000024 6.391300000000001 28.260869999999954 6.391300000000001 Q34.782609999999977 6.391300000000001 38.608695000000012 11.543475000000001 Q42.434780000000046 16.695650000000001 42.434780000000046 26.869570000000010 z" />
<glyph unicode="q" horiz-adv-x="56.826087000000001" d="M4.652170000000000 26.869570000000000 Q4.652169999999956 39.304349999999999 10.347825000000057 46.565220000000011 Q16.043480000000045 53.826090000000022 25.695650000000001 53.826090000000022 Q35.043480000000045 53.826090000000022 40.478259999999977 47.521740000000023 C40.608696666666674 49.289856666666651 40.771742499999959 51.500002499999994 40.869569999999953 52.826090000000022 C42.945654999999988 52.826090000000022 47.097825000000057 52.826090000000022 49.173909999999978 52.826090000000022 C49.173909999999978 34.543479999999988 49.173909999999978 -2.021740000000023 49.173909999999978 -20.304349999999999 C46.913040000000024 -20.304349999999999 42.391300000000001 -20.304349999999999 40.130430000000047 -20.304349999999999 C40.130430000000047 -14.010872500000005 40.130430000000047 -1.423917500000016 40.130430000000047 4.869559999999979 Q34.652169999999956 -0.956520000000012 25.565219999999954 -0.956520000000012 Q16.000000000000000 -0.956520000000012 10.326085000000035 6.478259999999977 Q4.652169999999956 13.913040000000024 4.652169999999956 26.217390000000023 C4.652169999999956 26.434783333333314 4.652169999999956 26.706524999999999 4.652169999999956 26.869570000000010 zM13.652170000000000 25.826090000000001 Q13.652169999999956 16.739129999999989 17.500000000000000 11.565215000000023 Q21.347830000000044 6.391300000000001 27.826090000000022 6.391300000000001 Q35.869569999999953 6.391300000000001 40.130430000000047 13.521740000000023 C40.130430000000047 22.144926666666663 40.130430000000047 32.923909999999978 40.130430000000047 39.391300000000001 Q35.826090000000022 46.391300000000001 27.913040000000024 46.391300000000001 Q21.391300000000001 46.391300000000001 17.521735000000035 41.195650000000001 Q13.652169999999956 36.000000000000000 13.652169999999956 25.826090000000022 z" />
<glyph unicode="r" horiz-adv-x="33.826087000000001" d="M32.391300000000001 44.739130000000003 Q30.304349999999999 45.086959999999976 27.913040000000024 45.086959999999976 Q19.043480000000045 45.086959999999976 15.869559999999979 37.521740000000023 C15.869559999999979 25.014493333333348 15.869559999999979 9.380434999999977 15.869559999999979 0.000000000000000 C13.608692499999961 0.000000000000000 9.086957500000040 0.000000000000000 6.826090000000022 0.000000000000000 C6.826090000000022 13.206522500000005 6.826090000000022 39.619567500000016 6.826090000000022 52.826090000000022 C9.021742499999959 52.826090000000022 13.413047499999948 52.826090000000022 15.608699999999999 52.826090000000022 C15.652177499999993 51.304349999999999 15.739132499999982 48.260870000000011 15.782609999999977 46.739129999999989 Q20.217390000000023 53.826090000000022 28.347830000000044 53.826090000000022 Q31.000000000000000 53.826090000000022 32.391300000000001 53.130429999999990 C32.391300000000001 50.333329999999989 32.391300000000001 46.836954999999989 32.391300000000001 44.739129999999989 z" />
<glyph unicode="s" horiz-adv-x="51.565216999999997" d="M37.608699999999999 14.000000000000000 Q37.608699999999999 17.695650000000001 34.847830000000044 19.717390000000023 Q32.086959999999976 21.739129999999989 25.217390000000023 23.173909999999978 Q18.347830000000044 24.652170000000012 14.326090000000022 26.695650000000001 Q10.304349999999999 28.739129999999989 8.347830000000044 31.565220000000011 Q6.434780000000046 34.434779999999989 6.434780000000046 38.347829999999988 Q6.434780000000046 44.826090000000022 11.934780000000046 49.326090000000022 Q17.434780000000046 53.826090000000022 25.956519999999955 53.826090000000022 Q34.956519999999955 53.826090000000022 40.543474999999944 49.173915000000022 Q46.130430000000047 44.521740000000023 46.130430000000047 37.304349999999999 C43.101446666666675 37.304349999999999 39.315217500000017 37.304349999999999 37.043480000000045 37.304349999999999 Q37.043480000000045 41.000000000000000 33.913045000000011 43.695650000000001 Q30.782609999999977 46.391300000000001 25.956519999999955 46.391300000000001 Q21.043480000000045 46.391300000000001 18.260869999999954 44.239129999999989 Q15.478259999999977 42.086959999999976 15.478259999999977 38.608699999999999 Q15.478259999999977 35.347829999999988 18.065214999999966 33.695654999999988 Q20.652169999999956 32.043479999999988 27.391300000000001 30.521740000000023 Q34.173909999999978 29.000000000000000 38.369564999999966 26.913045000000011 Q42.565219999999954 24.826090000000022 44.608699999999999 21.869570000000010 Q46.652169999999956 18.913040000000024 46.652169999999956 14.652170000000012 Q46.652169999999956 7.565220000000011 40.978259999999977 3.304349999999999 Q35.304349999999999 -0.956520000000012 26.260869999999954 -0.956520000000012 Q19.913040000000024 -0.956520000000012 15.043474999999944 1.282609999999977 Q10.173909999999978 3.521740000000023 7.391300000000001 7.521740000000023 Q4.652169999999956 11.565220000000011 4.652169999999956 16.260870000000011 C7.652169999999956 16.260870000000011 11.402169999999956 16.260870000000011 13.652169999999956 16.260870000000011 Q13.913040000000024 11.739129999999989 17.304345000000012 9.065215000000023 Q20.695650000000001 6.391300000000001 26.260869999999954 6.391300000000001 Q31.391300000000001 6.391300000000001 34.500000000000000 8.478259999999977 Q37.608699999999999 10.565220000000011 37.608699999999999 14.000000000000000 z" />
<glyph unicode="t" horiz-adv-x="32.652174000000002" d="M19.086960000000001 65.608699999999999 C19.086959999999976 62.413047500000005 19.086959999999976 56.021742500000016 19.086959999999976 52.826090000000022 C21.554349999999999 52.826090000000022 26.489130000000046 52.826090000000022 28.956519999999955 52.826090000000022 C28.956519999999955 51.086959999999976 28.956519999999955 47.608699999999999 28.956519999999955 45.869570000000010 C26.489130000000046 45.869570000000010 21.554349999999999 45.869570000000010 19.086959999999976 45.869570000000010 C19.086959999999976 37.673917500000016 19.086959999999976 21.282612500000027 19.086959999999976 13.086959999999976 Q19.086959999999976 9.913040000000024 20.413045000000011 8.326084999999978 Q21.739130000000046 6.739129999999989 24.913040000000024 6.739129999999989 Q26.478259999999977 6.739129999999989 29.217390000000023 7.304349999999999 C29.217390000000023 4.869566666666685 29.217390000000023 1.826087500000028 29.217390000000023 0.000000000000000 Q25.652169999999956 -0.956520000000012 22.260869999999954 -0.956520000000012 Q16.217390000000023 -0.956520000000012 13.130435000000034 2.695654999999988 Q10.043480000000045 6.347829999999988 10.043480000000045 13.086959999999976 C10.043480000000045 24.014496666666673 10.043480000000045 37.673917500000016 10.043480000000045 45.869570000000010 C7.641304999999988 45.869570000000010 2.836954999999989 45.869570000000010 0.434780000000046 45.869570000000010 C0.434780000000046 47.608699999999999 0.434780000000046 51.086959999999976 0.434780000000046 52.826090000000022 C2.836954999999989 52.826090000000022 7.641304999999988 52.826090000000022 10.043480000000045 52.826090000000022 C10.043480000000045 56.021742500000016 10.043480000000045 62.413047500000005 10.043480000000045 65.608699999999999 C12.304349999999999 65.608699999999999 16.826090000000022 65.608699999999999 19.086959999999976 65.608699999999999 z" />
<glyph unicode="u" horiz-adv-x="55.130434999999999" d="M39.434780000000003 5.217390000000000 Q34.173909999999978 -0.956520000000012 23.956519999999955 -0.956520000000012 Q15.521740000000023 -0.956520000000012 11.108695000000012 3.934784999999977 Q6.695650000000001 8.826090000000022 6.652169999999956 18.478259999999977 C6.652169999999956 29.927536666666697 6.652169999999956 44.239132499999982 6.652169999999956 52.826090000000022 C8.902169999999956 52.826090000000022 13.402169999999956 52.826090000000022 15.652169999999956 52.826090000000022 C15.652169999999956 44.293479999999988 15.652169999999956 27.228259999999977 15.652169999999956 18.695650000000001 Q15.652169999999956 6.695650000000001 25.434780000000046 6.695650000000001 Q35.782609999999977 6.695650000000001 39.217390000000023 14.391300000000001 C39.217390000000023 27.202896666666675 39.217390000000023 43.217392500000017 39.217390000000023 52.826090000000022 C41.478259999999977 52.826090000000022 46.000000000000000 52.826090000000022 48.260869999999954 52.826090000000022 C48.260869999999954 39.619567500000016 48.260869999999954 13.206522500000005 48.260869999999954 0.000000000000000 C46.108695000000012 0.000000000000000 41.804345000000012 0.000000000000000 39.652169999999956 0.000000000000000 C39.597822500000007 1.304347500000006 39.489127499999995 3.913042500000017 39.434780000000046 5.217390000000023 z" />
<glyph unicode="v" horiz-adv-x="48.434783000000003" d="M24.260870000000001 12.260870000000001 C27.532609999999977 22.402175000000000 34.076090000000022 42.684785000000034 37.347830000000044 52.826090000000022 C39.652177499999993 52.826090000000022 44.260872500000005 52.826090000000022 46.565219999999954 52.826090000000022 C41.836957500000040 39.619567500000016 32.380432499999984 13.206522500000005 27.652169999999956 0.000000000000000 C25.923909999999978 0.000000000000000 22.467390000000023 0.000000000000000 20.739130000000046 0.000000000000000 C15.956522500000005 13.206522500000005 6.391307500000039 39.619567500000016 1.608699999999999 52.826090000000022 C3.913047499999948 52.826090000000022 8.521742499999959 52.826090000000022 10.826090000000022 52.826090000000022 C14.184785000000034 42.684785000000034 20.902174999999943 22.402175000000000 24.260869999999954 12.260870000000011 z" />
<glyph unicode="w" horiz-adv-x="75.130435000000006" d="M53.608699999999999 12.434780000000000 C56.152177499999993 22.532607499999983 61.239132499999982 42.728262500000028 63.782609999999977 52.826090000000022 C66.032609999999977 52.826090000000022 70.532609999999977 52.826090000000022 72.782609999999977 52.826090000000022 C68.945652500000051 39.619567500000016 61.271737499999972 13.206522500000005 57.434780000000046 0.000000000000000 C55.597825000000057 0.000000000000000 51.923914999999965 0.000000000000000 50.086959999999976 0.000000000000000 C46.880437499999971 8.923912500000029 40.467392499999960 26.771737499999972 37.260869999999954 35.695650000000001 C34.130435000000034 26.771737499999972 27.869564999999966 8.923912500000029 24.739130000000046 0.000000000000000 C22.913042499999960 0.000000000000000 19.260867500000018 0.000000000000000 17.434780000000046 0.000000000000000 C13.597825000000057 13.206522500000005 5.923914999999965 39.619567500000016 2.086959999999976 52.826090000000022 C4.336959999999976 52.826090000000022 8.836959999999976 52.826090000000022 11.086959999999976 52.826090000000022 C13.684785000000034 42.934785000000034 18.880435000000034 23.152175000000000 21.478259999999977 13.260870000000011 C24.554347499999949 22.065217500000017 30.706522500000005 39.673912500000029 33.782609999999977 48.478259999999977 C35.597827499999994 48.478259999999977 39.228262500000028 48.478259999999977 41.043480000000045 48.478259999999977 C44.184785000000034 39.467390000000023 50.467395000000010 21.445650000000001 53.608699999999999 12.434779999999989 z" />
<glyph unicode="x" horiz-adv-x="49.565216999999997" d="M24.565220000000000 34.000000000000000 C27.489132499999982 38.706522500000005 33.336957500000040 48.119567500000016 36.260869999999954 52.826090000000022 C38.902174999999943 52.826090000000022 44.184785000000034 52.826090000000022 46.826090000000022 52.826090000000022 C42.500002499999937 46.402175000000000 33.847827499999994 33.554345000000012 29.521740000000023 27.130429999999990 C33.978262500000028 20.347822500000007 42.891307500000039 6.782607499999983 47.347830000000044 0.000000000000000 C44.739132499999982 0.000000000000000 39.521737499999972 0.000000000000000 36.913040000000024 0.000000000000000 C33.858692499999961 5.054347500000006 27.749997499999949 15.163042500000017 24.695650000000001 20.217390000000023 C21.652172500000006 15.163042500000017 15.565217500000017 5.054347500000006 12.521740000000023 0.000000000000000 C9.891304999999988 0.000000000000000 4.630435000000034 0.000000000000000 2.000000000000000 0.000000000000000 C6.456522500000005 6.782607499999983 15.369567500000016 20.347822500000007 19.826090000000022 27.130429999999990 C15.500002500000051 33.554345000000012 6.847827499999994 46.402175000000000 2.521740000000023 52.826090000000022 C5.141304999999988 52.826090000000022 10.380435000000034 52.826090000000022 13.000000000000000 52.826090000000022 C15.891304999999988 48.119567500000016 21.673914999999965 38.706522500000005 24.565219999999954 34.000000000000000 z" />
<glyph unicode="y" horiz-adv-x="47.304347999999997" d="M24.130430000000000 13.217390000000000 C27.206517500000018 23.119565000000023 33.358692499999961 42.923915000000022 36.434780000000046 52.826090000000022 C38.847825000000057 52.826090000000022 43.673914999999965 52.826090000000022 46.086959999999976 52.826090000000022 C40.782612500000027 37.576090000000022 30.173917500000016 7.076090000000022 24.869569999999953 -8.173909999999978 Q19.913040000000024 -21.347829999999988 9.173909999999978 -21.347829999999988 C8.608693333333349 -21.289856666666651 7.902172500000006 -21.217390000000023 7.478259999999977 -21.173909999999978 C6.630435000000034 -21.021737499999972 4.934785000000034 -20.717392500000017 4.086959999999976 -20.565220000000011 C4.086959999999976 -18.728262500000028 4.086959999999976 -15.054347500000006 4.086959999999976 -13.217390000000023 C4.695654999999988 -13.271737499999972 5.913045000000011 -13.380432499999984 6.521740000000023 -13.434779999999989 Q11.130440000000021 -13.434779999999989 13.695654999999988 -11.565215000000023 Q16.260869999999954 -9.695650000000001 17.913040000000024 -4.782609999999977 C18.579706666666652 -3.000000000000000 19.413040000000024 -0.771737499999972 19.913040000000024 0.565220000000011 C15.206519999999955 13.630437500000028 5.793480000000045 39.760872500000005 1.086959999999976 52.826090000000022 C3.554349999999999 52.826090000000022 8.489130000000046 52.826090000000022 10.956519999999955 52.826090000000022 C14.249997499999949 42.923915000000022 20.836952500000052 23.119565000000023 24.130430000000047 13.217390000000023 z" />
<glyph unicode="z" horiz-adv-x="49.565216999999997" d="M15.347830000000000 7.391300000000000 C23.076090000000022 7.391300000000001 38.532609999999977 7.391300000000001 46.260869999999954 7.391300000000001 C46.260869999999954 5.543475000000001 46.260869999999954 1.847825000000000 46.260869999999954 0.000000000000000 C35.771740000000023 0.000000000000000 14.793480000000045 0.000000000000000 4.304349999999999 0.000000000000000 C4.304349999999999 1.663042500000017 4.304349999999999 4.989127499999995 4.304349999999999 6.652170000000012 C11.586957500000040 16.326084999999978 26.152172500000006 35.673915000000022 33.434780000000046 45.347829999999988 C26.260867500000018 45.347829999999988 11.913042499999960 45.347829999999988 4.739130000000046 45.347829999999988 C4.739130000000046 47.217395000000010 4.739130000000046 50.956524999999999 4.739130000000046 52.826090000000022 C14.750000000000000 52.826090000000022 34.771740000000023 52.826090000000022 44.782609999999977 52.826090000000022 C44.782609999999977 51.228262500000028 44.782609999999977 48.032607499999983 44.782609999999977 46.434779999999989 C37.423914999999965 36.673909999999978 22.706525000000056 17.152170000000012 15.347830000000044 7.391300000000001 z" />
<glyph unicode="{" horiz-adv-x="33.826087000000001" d="M30.869570000000000 -17.869570000000000 Q22.217390000000023 -15.434779999999989 17.847825000000057 -9.847825000000000 Q13.478259999999977 -4.260870000000011 13.478259999999977 4.913040000000024 C13.478259999999977 8.159416666666687 13.478259999999977 12.217387499999973 13.478259999999977 14.652170000000012 Q13.478259999999977 26.521740000000023 3.130430000000047 26.521740000000023 C3.130430000000047 28.884059999999977 3.130430000000047 31.836959999999976 3.130430000000047 33.608699999999999 Q13.478259999999977 33.608699999999999 13.478259999999977 45.391300000000001 C13.478259999999977 48.782606666666652 13.478259999999977 53.021740000000023 13.478259999999977 55.565220000000011 Q13.565219999999954 64.521740000000023 17.847825000000057 70.000000000000000 Q22.130430000000047 75.478259999999977 30.869569999999953 78.000000000000000 C31.478263333333302 76.115943333333348 32.239130000000046 73.760872500000005 32.695650000000001 72.347829999999988 Q22.521740000000023 69.086959999999976 22.521740000000023 55.304349999999999 C22.521740000000023 52.028986666666697 22.521740000000023 47.934782499999983 22.521740000000023 45.478259999999977 Q22.521740000000023 34.391300000000001 14.347830000000044 30.043479999999988 Q22.521740000000023 25.652170000000012 22.521740000000023 14.434779999999989 C22.521740000000023 11.086953333333327 22.521740000000023 6.902170000000012 22.521740000000023 4.391300000000001 Q22.652169999999956 -9.043479999999988 32.695650000000001 -12.260870000000011 C32.086956666666651 -14.130436666666640 31.326090000000022 -16.467395000000010 30.869569999999953 -17.869570000000010 z" />
<glyph unicode="|" horiz-adv-x="24.347826000000001" d="M15.826090000000001 -13.173909999999999 C14.010872500000005 -13.173909999999978 10.380437499999971 -13.173909999999978 8.565219999999954 -13.173909999999978 C8.565219999999954 7.891307499999982 8.565219999999954 50.021742500000016 8.565219999999954 71.086959999999976 C10.380437499999971 71.086959999999976 14.010872500000005 71.086959999999976 15.826090000000022 71.086959999999976 C15.826090000000022 50.021742500000016 15.826090000000022 7.891307499999982 15.826090000000022 -13.173909999999978 z" />
<glyph unicode="}" horiz-adv-x="33.826087000000001" d="M0.913040000000000 -12.260870000000001 Q10.826090000000022 -9.086959999999976 11.173909999999978 3.913040000000024 C11.173909999999978 7.492750000000001 11.173909999999978 11.967387499999973 11.173909999999978 14.652170000000012 Q11.173909999999978 25.913040000000024 20.000000000000000 30.043479999999988 Q11.173909999999978 34.043479999999988 11.173909999999978 45.391300000000001 C11.173909999999978 48.695650000000001 11.173909999999978 52.826087499999971 11.173909999999978 55.304349999999999 Q11.173909999999978 69.086959999999976 0.956519999999955 72.347829999999988 C1.579709999999977 74.231886666666696 2.358697499999948 76.586957499999983 2.826090000000022 78.000000000000000 Q11.478259999999977 75.521740000000023 15.826085000000035 70.043479999999988 Q20.173909999999978 64.565220000000011 20.217390000000023 55.521740000000023 C20.217390000000023 52.101450000000000 20.217390000000023 47.826087499999971 20.217390000000023 45.260870000000011 Q20.217390000000023 33.608699999999999 30.565219999999954 33.608699999999999 C30.565219999999954 31.246379999999988 30.565219999999954 28.293479999999988 30.565219999999954 26.521740000000023 Q20.217390000000023 26.521740000000023 20.217390000000023 14.652170000000012 C20.217390000000023 11.362316666666686 20.217390000000023 7.250000000000000 20.217390000000023 4.782609999999977 Q20.217390000000023 -4.391300000000001 15.804345000000012 -9.913040000000024 Q11.391300000000001 -15.434779999999989 2.826090000000022 -17.869570000000010 C2.188406666666651 -16.000003333333325 1.391302500000052 -13.663045000000011 0.913040000000024 -12.260870000000011 z" />
<glyph unicode="~" horiz-adv-x="68" d="M61.652169999999998 37.956519999999998 Q61.652169999999956 30.217390000000023 57.086954999999989 24.913045000000011 Q52.521740000000023 19.608699999999999 45.869569999999953 19.608699999999999 Q42.347830000000044 19.608699999999999 39.217395000000010 20.913045000000011 Q36.086959999999976 22.217390000000023 31.956519999999955 25.826090000000022 Q27.826090000000022 29.434779999999989 26.021740000000023 30.326084999999978 Q24.217390000000023 31.217390000000023 22.173909999999978 31.217390000000023 Q18.347830000000044 31.217390000000023 16.304349999999999 28.586954999999989 Q14.260869999999954 25.956520000000012 14.260869999999954 21.391300000000001 C11.637680000000046 21.362316666666629 8.358692499999961 21.326087499999971 6.391300000000001 21.304349999999999 Q6.391300000000001 29.086959999999976 10.891300000000001 34.130434999999977 Q15.391300000000001 39.173909999999978 22.173909999999978 39.173909999999978 Q25.869569999999953 39.173909999999978 29.282609999999977 37.608695000000012 Q32.695650000000001 36.043479999999988 37.000000000000000 32.086959999999976 Q41.304349999999999 28.173909999999978 44.434780000000046 27.695650000000001 C44.913043333333349 27.666666666666686 45.510872500000005 27.630437499999971 45.869569999999953 27.608699999999999 Q49.565219999999954 27.608699999999999 51.891304999999988 30.434784999999977 Q54.217390000000023 33.260870000000011 54.217390000000023 37.869570000000010 C56.695650000000001 37.898553333333325 59.793474999999944 37.934782499999983 61.652169999999956 37.956520000000012 z" />
<glyph unicode="" horiz-adv-x="24.347826000000001" d="M8.304349999999999 33.391300000000001 C10.358697499999948 33.391300000000001 14.467392499999960 33.391300000000001 16.521740000000023 33.391300000000001 C16.673912500000029 20.652170000000012 16.978257500000041 -4.826090000000022 17.130430000000047 -17.565220000000011 C14.760864999999967 -17.565220000000011 10.021735000000035 -17.565220000000011 7.652169999999956 -17.565220000000011 C7.815214999999966 -4.826090000000022 8.141304999999988 20.652170000000012 8.304349999999999 33.391300000000001 zM17.478259999999999 48.652169999999998 Q17.478259999999977 46.434779999999989 16.130435000000034 44.913040000000024 Q14.782609999999977 43.391300000000001 12.173909999999978 43.391300000000001 Q9.521740000000023 43.391300000000001 8.152174999999943 44.913040000000024 Q6.782609999999977 46.434779999999989 6.782609999999977 48.652170000000012 Q6.782609999999977 50.826090000000022 8.152174999999943 52.282609999999977 Q9.521740000000023 53.739129999999989 12.173909999999978 53.739129999999989 Q14.782609999999977 53.739129999999989 16.130435000000034 52.282609999999977 Q17.478259999999977 50.826090000000022 17.478259999999977 48.652170000000012 z" />
<glyph unicode="" horiz-adv-x="54.695652000000003" d="M28.608699999999999 6.391300000000000 Q33.478259999999977 6.391300000000001 37.108695000000012 9.347825000000000 Q40.739130000000046 12.304349999999999 41.130430000000047 16.652170000000012 C43.971009999999978 16.652170000000012 47.521735000000035 16.652170000000012 49.652169999999956 16.652170000000012 Q49.347830000000044 10.478259999999977 44.521740000000023 5.586954999999989 Q39.695650000000001 0.695650000000001 32.652169999999956 -0.565220000000011 C32.652169999999956 -4.362320000000011 32.652169999999956 -9.108695000000012 32.652169999999956 -11.956520000000012 C30.402169999999956 -11.956520000000012 25.902169999999956 -11.956520000000012 23.652169999999956 -11.956520000000012 C23.652169999999956 -9.097825000000000 23.652169999999956 -3.380434999999977 23.652169999999956 -0.521740000000023 Q14.913040000000024 1.130440000000021 10.021735000000035 8.065220000000011 Q5.130430000000047 15.000000000000000 5.130440000000021 25.739129999999989 C5.130440000000021 26.304346666666675 5.130440000000021 27.010867500000018 5.130440000000021 27.434779999999989 Q5.130440000000021 37.782609999999977 10.065219999999954 44.739129999999989 Q15.000000000000000 51.695650000000001 23.652169999999956 53.304349999999999 C23.652169999999956 56.985509999999977 23.652169999999956 61.586959999999976 23.652169999999956 64.347829999999988 C25.902169999999956 64.347829999999988 30.402169999999956 64.347829999999988 32.652169999999956 64.347829999999988 C32.652169999999956 61.630437499999971 32.652169999999956 56.195652499999994 32.652169999999956 53.478259999999977 Q40.000000000000000 52.347829999999988 44.673914999999965 47.173914999999965 Q49.347830000000044 42.000000000000000 49.652169999999956 34.652170000000012 C46.811590000000024 34.652170000000012 43.260864999999967 34.652170000000012 41.130430000000047 34.652170000000012 Q40.739130000000046 39.782609999999977 37.239130000000046 43.086954999999989 Q33.739130000000046 46.391300000000001 28.608699999999999 46.391300000000001 Q21.739130000000046 46.391300000000001 17.956519999999955 41.434779999999989 Q14.173909999999978 36.478259999999977 14.173909999999978 27.086959999999976 C14.173909999999978 26.521740000000023 14.173909999999978 25.815215000000023 14.173909999999978 25.391300000000001 Q14.173909999999978 16.260870000000011 17.956519999999955 11.326084999999978 Q21.739130000000046 6.391300000000001 28.608699999999999 6.391300000000001 z" />
<glyph unicode="" horiz-adv-x="58.086956999999998" d="M21.913039999999999 30.391300000000001 C22.010867500000018 27.695650000000001 22.206522500000005 22.304349999999999 22.304349999999999 19.608699999999999 Q22.304349999999999 12.130429999999990 19.304349999999999 7.652170000000012 C31.231886666666696 7.652170000000012 46.141307500000039 7.652170000000012 55.086959999999976 7.652170000000012 C55.076090000000022 5.739127499999995 55.054349999999999 1.913042500000017 55.043480000000045 0.000000000000000 C42.445652500000051 0.000000000000000 17.249997499999949 0.000000000000000 4.652169999999956 0.000000000000000 C4.652169999999956 1.913042500000017 4.652169999999956 5.739127499999995 4.652169999999956 7.652170000000012 C5.586952500000052 7.652170000000012 7.456517500000018 7.652170000000012 8.391300000000001 7.652170000000012 Q10.347830000000044 8.086959999999976 11.565219999999954 11.304349999999999 Q12.782609999999977 14.521740000000023 12.869559999999979 19.173909999999978 C12.869559999999979 19.304346666666675 12.869559999999979 19.467392500000017 12.869559999999979 19.565220000000011 C12.782604999999990 22.271740000000023 12.608695000000012 27.684779999999989 12.521740000000023 30.391300000000001 C10.500000000000000 30.391300000000001 6.456519999999955 30.391300000000001 4.434780000000046 30.391300000000001 C4.434780000000046 32.304345000000012 4.434780000000046 36.130435000000034 4.434780000000046 38.043479999999988 C6.391302500000052 38.043479999999988 10.304347499999949 38.043479999999988 12.260869999999954 38.043479999999988 C12.152174999999943 41.217392500000017 11.934785000000034 47.565217500000017 11.826090000000022 50.739129999999989 Q11.826090000000022 60.434779999999989 17.804349999999999 66.260870000000011 Q23.782609999999977 72.086959999999976 33.565219999999954 72.086959999999976 Q42.826090000000022 72.086959999999976 48.239130000000046 66.913045000000011 Q53.652169999999956 61.739129999999989 53.652169999999956 53.086959999999976 C50.550723333333281 53.086959999999976 46.673914999999965 53.086959999999976 44.347830000000044 53.086959999999976 Q44.347830000000044 58.304349999999999 41.239130000000046 61.326090000000022 Q38.130430000000047 64.347829999999988 32.695650000000001 64.347829999999988 Q27.608699999999999 64.347829999999988 24.434785000000034 60.586959999999976 Q21.260869999999954 56.826090000000022 21.260869999999954 50.739129999999989 C21.405796666666674 46.507246666666674 21.586954999999989 41.217392500000017 21.695650000000001 38.043479999999988 C25.586954999999989 38.043479999999988 33.369564999999966 38.043479999999988 37.260869999999954 38.043479999999988 C37.260869999999954 36.130435000000034 37.260869999999954 32.304345000000012 37.260869999999954 30.391300000000001 C33.423912500000029 30.391300000000001 25.749997499999949 30.391300000000001 21.913040000000024 30.391300000000001 z" />
<glyph unicode="" horiz-adv-x="71.304348000000005" d="M53.869570000000003 5.478260000000000 Q46.086959999999976 -0.956520000000012 35.869569999999953 -0.956520000000012 Q25.782609999999977 -0.956520000000012 18.000000000000000 5.391300000000001 C15.826086666666697 3.173909999999978 13.108695000000012 0.402172500000006 11.478259999999977 -1.260870000000011 C9.891304999999988 0.380434999999977 6.717395000000010 3.663045000000011 5.130440000000021 5.304349999999999 C6.826090000000022 7.032609999999977 10.217390000000023 10.489129999999989 11.913040000000024 12.217390000000023 Q6.826090000000022 19.826090000000022 6.826090000000022 29.695650000000001 Q6.826090000000022 39.739129999999989 12.304349999999999 47.695650000000001 C9.913046666666673 50.159420000000011 6.923917500000016 53.239132499999982 5.130440000000021 55.086959999999976 C6.717395000000010 56.750002499999994 9.891304999999988 60.076087499999971 11.478259999999977 61.739129999999989 C13.271737499999972 59.902172500000006 16.858692499999961 56.228257499999984 18.652169999999956 54.391300000000001 Q26.347830000000044 60.260870000000011 35.869569999999953 60.260870000000011 Q45.478259999999977 60.260870000000011 53.217390000000023 54.347829999999988 C55.637680000000046 56.826090000000022 58.663042499999960 59.923915000000022 60.478259999999977 61.782609999999977 C62.097825000000057 60.108697500000005 65.336954999999989 56.760872500000005 66.956519999999955 55.086959999999976 C65.108695000000012 53.206524999999999 61.413045000000011 49.445654999999988 59.565219999999954 47.565220000000011 Q64.956519999999955 39.608699999999999 64.956519999999955 29.695650000000001 Q64.956519999999955 20.130429999999990 59.956519999999955 12.347829999999988 C62.289853333333326 10.000003333333325 65.206519999999955 7.065220000000011 66.956519999999955 5.304349999999999 C65.336954999999989 3.652175000000000 62.097825000000057 0.347825000000000 60.478259999999977 -1.304349999999999 C58.826087499999971 0.391302499999995 55.521742499999959 3.782607499999983 53.869569999999953 5.478259999999977 zM15.173909999999999 29.695650000000001 Q15.173909999999978 23.695650000000001 17.978259999999977 18.521740000000023 Q20.782609999999977 13.347829999999988 25.565219999999954 10.347829999999988 Q30.391300000000001 7.391300000000001 35.913040000000024 7.391300000000001 Q41.391300000000001 7.391300000000001 46.173909999999978 10.391300000000001 Q50.956519999999955 13.391300000000001 53.695650000000001 18.521740000000023 Q56.478259999999977 23.695650000000001 56.478259999999977 29.695650000000001 Q56.478259999999977 35.652170000000012 53.717390000000023 40.804345000000012 Q50.956519999999955 45.956520000000012 46.130430000000047 48.913040000000024 Q41.347830000000044 51.869570000000010 35.869569999999953 51.869570000000010 Q30.391300000000001 51.869570000000010 25.586954999999989 48.934785000000034 Q20.782609999999977 46.000000000000000 17.956519999999955 40.826090000000022 Q15.173909999999978 35.652170000000012 15.173909999999978 29.695650000000001 z" />
<glyph unicode="" horiz-adv-x="60.565216999999997" d="M30.000000000000000 38.173909999999999 C34.434782499999983 46.402172500000006 43.304347499999949 62.858697500000005 47.739130000000046 71.086959999999976 C50.413042499999960 71.086959999999976 55.760867500000018 71.086959999999976 58.434780000000046 71.086959999999976 C53.336954999999989 62.304349999999999 43.141304999999988 44.739129999999989 38.043480000000045 35.956520000000012 C41.847827499999994 35.956520000000012 49.456522500000005 35.956520000000012 53.260869999999954 35.956520000000012 C53.260869999999954 34.423912500000029 53.260869999999954 31.358697500000005 53.260869999999954 29.826090000000022 C48.576087499999971 29.826090000000022 39.206522500000005 29.826090000000022 34.521740000000023 29.826090000000022 C34.521740000000023 27.815220000000011 34.521740000000023 23.793479999999988 34.521740000000023 21.782609999999977 C39.206522500000005 21.782609999999977 48.576087499999971 21.782609999999977 53.260869999999954 21.782609999999977 C53.260869999999954 20.271740000000023 53.260869999999954 17.250000000000000 53.260869999999954 15.739129999999989 C48.576087499999971 15.739129999999989 39.206522500000005 15.739129999999989 34.521740000000023 15.739129999999989 C34.521740000000023 11.804347500000006 34.521740000000023 3.934782499999983 34.521740000000023 0.000000000000000 C32.163045000000011 0.000000000000000 27.445654999999988 0.000000000000000 25.086959999999976 0.000000000000000 C25.086959999999976 3.934782499999983 25.086959999999976 11.804347500000006 25.086959999999976 15.739129999999989 C20.478262500000028 15.739129999999989 11.260867500000018 15.739129999999989 6.652169999999956 15.739129999999989 C6.652169999999956 17.250000000000000 6.652169999999956 20.271740000000023 6.652169999999956 21.782609999999977 C11.260867500000018 21.782609999999977 20.478262500000028 21.782609999999977 25.086959999999976 21.782609999999977 C25.086959999999976 23.793479999999988 25.086959999999976 27.815220000000011 25.086959999999976 29.826090000000022 C20.478262500000028 29.826090000000022 11.260867500000018 29.826090000000022 6.652169999999956 29.826090000000022 C6.652169999999956 31.358697500000005 6.652169999999956 34.423912500000029 6.652169999999956 35.956520000000012 C10.467387499999973 35.956520000000012 18.097822500000007 35.956520000000012 21.913040000000024 35.956520000000012 C16.815214999999966 44.739129999999989 6.619564999999966 62.304349999999999 1.521740000000023 71.086959999999976 C4.206522500000005 71.086959999999976 9.576087499999971 71.086959999999976 12.260869999999954 71.086959999999976 C16.695652500000051 62.858697500000005 25.565217500000017 46.402172500000006 30.000000000000000 38.173909999999978 z" />
<glyph unicode="" horiz-adv-x="23.956522" d="M7.173910000000000 -13.173909999999999 C7.173909999999978 -3.521737499999972 7.173909999999978 15.782607499999983 7.173909999999978 25.434779999999989 C9.445650000000001 25.434779999999989 13.989130000000046 25.434779999999989 16.260869999999954 25.434779999999989 C16.260869999999954 15.782607499999983 16.260869999999954 -3.521737499999972 16.260869999999954 -13.173909999999978 C13.989130000000046 -13.173909999999978 9.445650000000001 -13.173909999999978 7.173909999999978 -13.173909999999978 zM16.260870000000001 34.086959999999998 C13.989130000000046 34.086959999999976 9.445650000000001 34.086959999999976 7.173909999999978 34.086959999999976 C7.173909999999978 43.336959999999976 7.173909999999978 61.836959999999976 7.173909999999978 71.086959999999976 C9.445650000000001 71.086959999999976 13.989130000000046 71.086959999999976 16.260869999999954 71.086959999999976 C16.260869999999954 61.836959999999976 16.260869999999954 43.336959999999976 16.260869999999954 34.086959999999976 z" />
<glyph unicode="" horiz-adv-x="61.347825999999998" d="M55.913040000000002 21.043479999999999 Q55.913040000000024 11.826090000000022 46.826090000000022 7.652170000000012 Q50.173909999999978 5.260870000000011 51.934780000000046 1.956520000000012 Q53.695650000000001 -1.347829999999988 53.695650000000001 -6.260870000000011 Q53.695650000000001 -14.434779999999989 47.347825000000057 -19.304345000000012 Q41.000000000000000 -24.173909999999978 29.869569999999953 -24.173909999999978 Q24.434780000000046 -24.173909999999978 19.521740000000023 -22.804345000000012 Q14.608699999999999 -21.434779999999989 11.173909999999978 -18.652170000000012 Q4.391300000000001 -13.130440000000021 4.391300000000001 -3.130429999999990 C7.420286666666698 -3.101446666666675 11.206519999999955 -3.065217500000017 13.478259999999977 -3.043479999999988 Q13.478259999999977 -9.391300000000001 17.869564999999966 -13.065215000000023 Q22.260869999999954 -16.739129999999989 29.869569999999953 -16.739129999999989 Q36.521740000000023 -16.739129999999989 40.565219999999954 -13.891304999999988 Q44.608699999999999 -11.043479999999988 44.608699999999999 -6.347829999999988 Q44.608699999999999 -2.000000000000000 41.152174999999943 0.565215000000023 Q37.695650000000001 3.130429999999990 27.478259999999977 6.173909999999978 Q18.608699999999999 8.478259999999977 13.913045000000011 11.195650000000001 Q9.217390000000023 13.913040000000024 6.956519999999955 17.695650000000001 Q4.695650000000001 21.478259999999977 4.695650000000001 26.913040000000024 Q4.695650000000001 36.000000000000000 13.565219999999954 40.304349999999999 Q10.347830000000044 42.695650000000001 8.608695000000012 46.000000000000000 Q6.869559999999979 49.304349999999999 6.869559999999979 54.217390000000023 Q6.869569999999953 62.304349999999999 13.391304999999988 67.195654999999988 Q19.913040000000024 72.086959999999976 30.782609999999977 72.086959999999976 Q42.086959999999976 72.086959999999976 48.434785000000034 66.565220000000011 Q54.782609999999977 61.043479999999988 54.782609999999977 51.043479999999988 C51.768116666666629 51.043479999999988 48.000000000000000 51.043479999999988 45.739130000000046 51.043479999999988 Q45.739130000000046 57.130429999999990 41.652174999999943 60.913040000000024 Q37.565219999999954 64.695650000000001 30.782609999999977 64.695650000000001 Q23.826090000000022 64.695650000000001 19.891304999999988 61.891304999999988 Q15.956519999999955 59.086959999999976 15.956519999999955 54.304349999999999 Q15.956519999999955 50.913040000000024 17.326085000000035 48.956520000000012 Q18.695650000000001 47.000000000000000 22.000000000000000 45.391300000000001 Q25.304349999999999 43.826090000000022 32.304349999999999 41.891304999999988 Q39.304349999999999 39.956520000000012 43.434780000000046 38.173909999999978 Q47.565219999999954 36.434779999999989 50.326090000000022 34.065215000000023 Q53.086959999999976 31.695650000000001 54.478259999999977 28.521740000000023 Q55.913040000000024 25.391300000000001 55.913040000000024 21.043479999999988 zM29.391300000000001 33.739130000000003 Q25.000000000000000 34.913040000000024 21.347830000000044 36.217390000000023 Q17.434780000000046 35.304349999999999 15.608695000000012 32.847825000000000 Q13.782609999999977 30.391300000000001 13.782609999999977 27.000000000000000 Q13.782609999999977 23.565220000000011 15.086954999999989 21.630434999999977 Q16.391300000000001 19.695650000000001 19.652169999999956 18.043479999999988 Q22.913040000000024 16.434779999999989 29.847825000000057 14.434779999999989 Q36.782609999999977 12.434779999999989 38.913040000000024 11.608699999999999 Q42.739130000000046 12.608699999999999 44.782609999999977 15.065220000000011 Q46.826090000000022 17.521740000000023 46.826090000000022 20.913040000000024 Q46.826090000000022 25.173909999999978 43.434785000000034 27.847825000000000 Q40.043480000000045 30.521740000000023 29.391300000000001 33.739129999999989 z" />
<glyph unicode="" horiz-adv-x="41.782609000000001" d="M5.000000000000000 66.956519999999998 Q5.000000000000000 69.130440000000021 6.326085000000035 70.630440000000021 Q7.652169999999956 72.130440000000021 10.304349999999999 72.130440000000021 Q12.956519999999955 72.130440000000021 14.304345000000012 70.630440000000021 Q15.652169999999956 69.130440000000021 15.652169999999956 66.956520000000012 Q15.652169999999956 64.739129999999989 14.304345000000012 63.282609999999977 Q12.956519999999955 61.826090000000022 10.304349999999999 61.826090000000022 Q7.652169999999956 61.826090000000022 6.326085000000035 63.282609999999977 Q5.000000000000000 64.739129999999989 5.000000000000000 66.956520000000012 zM25.956520000000001 66.826089999999994 Q25.956519999999955 69.043479999999988 27.304345000000012 70.565220000000011 Q28.652169999999956 72.086959999999976 31.304349999999999 72.086959999999976 Q33.956519999999955 72.086959999999976 35.304345000000012 70.565220000000011 Q36.652169999999956 69.043479999999988 36.652169999999956 66.869559999999979 Q36.652169999999956 64.652170000000012 35.304345000000012 63.195650000000001 Q33.956519999999955 61.739129999999989 31.304349999999999 61.739129999999989 Q28.652169999999956 61.739129999999989 27.304345000000012 63.195650000000001 Q25.956519999999955 64.652170000000012 25.956519999999955 66.826090000000022 z" />
<glyph unicode="" horiz-adv-x="78.565217000000004" d="M54.652169999999998 29.130430000000000 Q54.652169999999956 21.695650000000001 50.413040000000024 17.760870000000011 Q46.173909999999978 13.826090000000022 38.478259999999977 13.826090000000022 Q30.826090000000022 13.826090000000022 26.195654999999988 18.978259999999977 Q21.565219999999954 24.130429999999990 21.565219999999954 33.000000000000000 C21.565219999999954 34.797100000000000 21.565219999999954 37.043475000000001 21.565219999999954 38.391300000000001 Q21.565219999999954 46.956520000000012 26.239130000000046 52.108695000000012 Q30.913040000000024 57.260870000000011 38.478259999999977 57.260870000000011 Q46.304349999999999 57.260870000000011 50.500000000000000 53.260870000000011 Q54.695650000000001 49.260870000000011 54.695650000000001 42.000000000000000 C52.318840000000023 42.000000000000000 49.347827499999994 42.000000000000000 47.565219999999954 42.000000000000000 Q47.565219999999954 46.826090000000022 45.239130000000046 48.891304999999988 Q42.913040000000024 50.956520000000012 38.478259999999977 50.956520000000012 Q33.869569999999953 50.956520000000012 31.239135000000033 47.586954999999989 Q28.608699999999999 44.217390000000023 28.608699999999999 38.217390000000023 C28.608699999999999 36.376809999999978 28.608699999999999 34.076084999999978 28.608699999999999 32.695650000000001 Q28.608699999999999 26.869570000000010 31.239135000000033 23.500000000000000 Q33.869569999999953 20.130429999999990 38.478259999999977 20.130429999999990 Q42.956519999999955 20.130429999999990 45.239130000000046 22.173909999999978 Q47.521740000000023 24.217390000000023 47.521740000000023 29.130429999999990 C49.898550000000000 29.130429999999990 52.869562500000029 29.130429999999990 54.652169999999956 29.130429999999990 zM10.043480000000001 35.608699999999999 Q10.043480000000045 27.217390000000023 13.956525000000056 20.043475000000001 Q17.869569999999953 12.869559999999979 24.565219999999954 8.826090000000022 Q31.304349999999999 4.782609999999977 39.130430000000047 4.782609999999977 Q46.913040000000024 4.782609999999977 53.608695000000012 8.826090000000022 Q60.304349999999999 12.869570000000010 64.217390000000023 20.043479999999988 Q68.130440000000021 27.217390000000023 68.130440000000021 35.608699999999999 Q68.130440000000021 43.913040000000024 64.260869999999954 50.978259999999977 Q60.391300000000001 58.043479999999988 53.652169999999956 62.130429999999990 Q46.956519999999955 66.217390000000023 39.130430000000047 66.217390000000023 Q31.304349999999999 66.217390000000023 24.565219999999954 62.195650000000001 Q17.826090000000022 58.173909999999978 13.913040000000024 51.043479999999988 Q10.043480000000045 43.913040000000024 10.043480000000045 35.608699999999999 zM4.434780000000000 35.608699999999999 Q4.434780000000046 45.478259999999977 9.000000000000000 53.913045000000011 Q13.565219999999954 62.347829999999988 21.652169999999956 67.217390000000023 Q29.739130000000046 72.086959999999976 39.130430000000047 72.086959999999976 Q48.478259999999977 72.086959999999976 56.543480000000045 67.217395000000010 Q64.608699999999999 62.347829999999988 69.173909999999978 53.913040000000024 Q73.739130000000046 45.478259999999977 73.739130000000046 35.608699999999999 Q73.739130000000046 25.956520000000012 69.347825000000057 17.565215000000023 Q64.956519999999955 9.173909999999978 56.869569999999953 4.043479999999988 Q48.782609999999977 -1.043479999999988 39.130430000000047 -1.043479999999988 Q29.478259999999977 -1.043479999999988 21.413045000000011 4.021740000000023 Q13.347830000000044 9.086959999999976 8.869559999999979 17.478259999999977 Q4.434780000000046 25.869570000000010 4.434780000000046 35.608699999999999 z" />
<glyph unicode="" horiz-adv-x="44.695652000000003" d="M30.173909999999999 34.434780000000003 Q29.608699999999999 36.086959999999976 29.304349999999999 37.956520000000012 Q25.565219999999954 33.739129999999989 19.347830000000044 33.739129999999989 Q13.521740000000023 33.739129999999989 10.347825000000057 36.760870000000011 Q7.173909999999978 39.782609999999977 7.173909999999978 44.826090000000022 Q7.173909999999978 50.260870000000011 11.260869999999954 53.173914999999965 Q15.347830000000044 56.086959999999976 23.739130000000046 56.086959999999976 C25.492753333333326 56.086959999999976 27.684782499999983 56.086959999999976 29.000000000000000 56.086959999999976 C29.000000000000000 56.728262500000028 29.000000000000000 58.010867500000018 29.000000000000000 58.652170000000012 Q29.000000000000000 65.217390000000023 22.956519999999955 65.217390000000023 Q19.565219999999954 65.217390000000023 17.652174999999943 63.913045000000011 Q15.739130000000046 62.608699999999999 15.739130000000046 60.086959999999976 C13.115940000000023 60.289856666666651 9.836952500000052 60.543477499999995 7.869559999999979 60.695650000000001 Q7.869559999999979 65.739129999999989 12.065214999999966 68.913045000000011 Q16.260869999999954 72.086959999999976 22.956519999999955 72.086959999999976 Q29.434780000000046 72.086959999999976 33.195650000000001 68.586959999999976 Q36.956519999999955 65.086959999999976 36.956519999999955 58.565220000000011 C36.956519999999955 53.420290000000023 36.956519999999955 46.989127499999995 36.956519999999955 43.130429999999990 Q36.956519999999955 38.391300000000001 38.217390000000023 34.434779999999989 C35.536230000000046 34.434779999999989 32.184780000000046 34.434779999999989 30.173909999999978 34.434779999999989 zM21.260870000000001 40.434780000000003 Q23.347830000000044 40.434779999999989 25.500000000000000 41.413040000000024 Q27.652169999999956 42.391300000000001 29.000000000000000 43.695650000000001 C29.000000000000000 46.014490000000023 29.000000000000000 48.913040000000024 29.000000000000000 50.652170000000012 C27.630435000000034 50.652170000000012 24.891304999999988 50.652170000000012 23.521740000000023 50.652170000000012 Q19.478259999999977 50.565220000000011 17.304349999999999 49.043480000000045 Q15.130440000000021 47.521740000000023 15.130440000000021 45.000000000000000 Q15.130440000000021 40.434779999999989 21.260869999999954 40.434779999999989 z" />
<glyph unicode="" horiz-adv-x="48.565216999999997" d="M26.304349999999999 44.565219999999997 C26.032609999999977 44.195654999999988 25.489130000000046 43.456524999999999 25.217390000000023 43.086959999999976 Q24.173909999999978 41.608699999999999 22.891304999999988 39.043479999999988 Q21.608699999999999 36.478259999999977 20.565219999999954 32.956520000000012 Q19.565219999999954 29.434779999999989 19.565219999999954 25.434779999999989 Q19.565219999999954 21.304349999999999 20.586959999999976 17.869565000000023 Q21.608699999999999 14.434779999999989 22.869569999999953 11.869559999999979 Q24.173909999999978 9.304349999999999 25.217390000000023 7.826090000000022 C25.579709999999977 7.333336666666639 26.032609999999977 6.717395000000010 26.304349999999999 6.347829999999988 C24.684785000000034 5.021742500000016 21.445654999999988 2.369567500000016 19.826090000000022 1.043479999999988 Q19.652169999999956 1.173909999999978 18.304345000000012 3.065215000000023 Q16.956519999999955 4.956520000000012 15.347830000000044 8.173909999999978 Q13.782609999999977 11.434779999999989 12.456519999999955 15.804345000000012 Q11.130430000000047 20.173909999999978 11.130440000000021 25.434779999999989 Q11.130440000000021 30.652170000000012 12.456525000000056 35.065215000000023 Q13.782609999999977 39.478259999999977 15.347830000000044 42.695650000000001 Q16.956519999999955 45.956520000000012 18.304345000000012 47.847825000000000 Q19.652169999999956 49.739129999999989 19.826090000000022 49.869570000000010 C21.985509999999977 48.101453333333325 24.684785000000034 45.891307499999982 26.304349999999999 44.565220000000011 zM39.043480000000002 40.130429999999997 C38.836957500000040 39.847822500000007 38.423912500000029 39.282607499999983 38.217390000000023 39.000000000000000 Q37.434780000000046 37.869570000000010 36.434780000000046 35.847829999999988 Q35.434780000000046 33.826090000000022 34.608699999999999 31.173909999999978 Q33.826090000000022 28.521740000000023 33.826090000000022 25.434779999999989 Q33.826090000000022 22.304349999999999 34.630435000000034 19.652175000000000 Q35.434780000000046 17.000000000000000 36.391300000000001 15.000000000000000 Q37.347830000000044 13.043479999999988 38.130430000000047 11.913040000000024 C38.405793333333349 11.536229999999989 38.749997499999949 11.065217500000017 38.956519999999955 10.782609999999977 C37.358695000000012 9.445652499999994 34.163045000000011 6.771737499999972 32.565219999999954 5.434779999999989 Q32.434780000000046 5.521740000000023 31.326085000000035 7.086954999999989 Q30.217390000000023 8.652170000000012 28.913040000000024 11.304349999999999 Q27.608699999999999 13.956520000000012 26.543480000000045 17.565215000000023 Q25.478259999999977 21.173909999999978 25.478259999999977 25.434779999999989 Q25.478259999999977 29.652170000000012 26.543480000000045 33.304345000000012 Q27.608699999999999 36.956520000000012 28.913040000000024 39.608699999999999 Q30.217390000000023 42.260870000000011 31.326085000000035 43.782609999999977 Q32.434780000000046 45.304349999999999 32.565219999999954 45.478259999999977 C34.724640000000022 43.695650000000001 37.423914999999965 41.467387499999973 39.043480000000045 40.130429999999990 z" />
<glyph unicode="" horiz-adv-x="55.391303999999998" d="M46.782609999999998 18.304349999999999 C44.510869999999954 18.304349999999999 39.967390000000023 18.304349999999999 37.695650000000001 18.304349999999999 C37.695650000000001 21.532609999999977 37.695650000000001 27.989129999999989 37.695650000000001 31.217390000000023 C29.826085000000035 31.217390000000023 14.086954999999989 31.217390000000023 6.217390000000023 31.217390000000023 C6.217390000000023 33.173912500000029 6.217390000000023 37.086957499999983 6.217390000000023 39.043479999999988 C16.358695000000012 39.043479999999988 36.641304999999988 39.043479999999988 46.782609999999977 39.043479999999988 C46.782609999999977 33.858697500000005 46.782609999999977 23.489132499999982 46.782609999999977 18.304349999999999 z" />
<glyph unicode="" horiz-adv-x="27.608695999999998" d="M25.652170000000002 26.521740000000001 C19.695650000000001 26.521740000000023 7.782609999999977 26.521740000000023 1.826090000000022 26.521740000000023 C1.826090000000022 28.358697500000005 1.826090000000022 32.032612500000027 1.826090000000022 33.869570000000010 C7.782609999999977 33.869570000000010 19.695650000000001 33.869570000000010 25.652169999999956 33.869570000000010 C25.652169999999956 32.032612500000027 25.652169999999956 28.358697500000005 25.652169999999956 26.521740000000023 z" />
<glyph unicode="" horiz-adv-x="78.608695999999995" d="M4.391300000000000 35.608699999999999 Q4.391300000000001 45.478259999999977 8.956519999999955 53.913045000000011 Q13.521740000000023 62.347829999999988 21.608699999999999 67.217390000000023 Q29.695650000000001 72.086959999999976 39.086959999999976 72.086959999999976 Q48.434780000000046 72.086959999999976 56.500000000000000 67.217395000000010 Q64.565219999999954 62.347829999999988 69.130440000000021 53.913040000000024 Q73.695650000000001 45.478259999999977 73.695650000000001 35.608699999999999 Q73.695650000000001 25.956520000000012 69.304345000000012 17.565215000000023 Q64.913040000000024 9.173909999999978 56.826090000000022 4.043479999999988 Q48.739130000000046 -1.043479999999988 39.043480000000045 -1.043479999999988 Q29.434780000000046 -1.043479999999988 21.347825000000057 4.021740000000023 Q13.260869999999954 9.086959999999976 8.826090000000022 17.478259999999977 Q4.391300000000001 25.869570000000010 4.391300000000001 35.608699999999999 zM10.000000000000000 35.608699999999999 Q10.000000000000000 27.217390000000023 13.913045000000011 20.043475000000001 Q17.826090000000022 12.869559999999979 24.521740000000023 8.826090000000022 Q31.260869999999954 4.782609999999977 39.043480000000045 4.782609999999977 Q46.913040000000024 4.782609999999977 53.652169999999956 8.913045000000011 Q60.391300000000001 13.043479999999988 64.217390000000023 20.130429999999990 Q68.086959999999976 27.217390000000023 68.086959999999976 35.608699999999999 Q68.086959999999976 43.956520000000012 64.239130000000046 51.000000000000000 Q60.391300000000001 58.043479999999988 53.652169999999956 62.130429999999990 Q46.913040000000024 66.217390000000023 39.043480000000045 66.217390000000023 Q31.260869999999954 66.217390000000023 24.521740000000023 62.195650000000001 Q17.782609999999977 58.173909999999978 13.869559999999979 51.043479999999988 Q10.000000000000000 43.913040000000024 10.000000000000000 35.608699999999999 zM31.869570000000000 31.913039999999999 C31.869569999999953 27.793475000000001 31.869569999999953 19.554345000000012 31.869569999999953 15.434779999999989 C30.152177499999993 15.434779999999989 26.717392499999960 15.434779999999989 25.000000000000000 15.434779999999989 C25.000000000000000 25.793477499999995 25.000000000000000 46.510872500000005 25.000000000000000 56.869570000000010 C28.369564999999966 56.869570000000010 35.108695000000012 56.869570000000010 38.478259999999977 56.869570000000010 Q45.956519999999955 56.869570000000010 50.086954999999989 53.673915000000022 Q54.217390000000023 50.478259999999977 54.217390000000023 44.391300000000001 Q54.217390000000023 38.391300000000001 47.956519999999955 35.217390000000023 Q53.913040000000024 32.782609999999977 53.956519999999955 25.260870000000011 C53.956519999999955 24.260870000000011 53.956519999999955 23.010870000000011 53.956519999999955 22.260870000000011 Q53.956519999999955 18.086959999999976 54.782609999999977 16.217390000000023 C54.782609999999977 15.956520000000012 54.782609999999977 15.630432499999984 54.782609999999977 15.434779999999989 C53.010869999999954 15.434779999999989 49.467390000000023 15.434779999999989 47.695650000000001 15.434779999999989 Q47.000000000000000 17.173909999999978 47.000000000000000 21.695650000000001 Q47.000000000000000 26.217390000000023 46.869569999999953 27.043479999999988 Q46.086959999999976 31.739129999999989 40.478259999999977 31.913040000000024 C37.608696666666674 31.913040000000024 34.021742499999959 31.913040000000024 31.869569999999953 31.913040000000024 zM31.869570000000000 38.173909999999999 C33.782612500000027 38.173909999999978 37.608697499999948 38.173909999999978 39.521740000000023 38.173909999999978 Q43.000000000000000 38.260870000000011 45.152174999999943 39.891304999999988 Q47.304349999999999 41.521740000000023 47.304349999999999 44.130429999999990 Q47.304349999999999 47.695650000000001 45.413045000000011 49.195650000000001 Q43.521740000000023 50.695650000000001 38.608699999999999 50.695650000000001 C36.362323333333279 50.695650000000001 33.554352500000050 50.695650000000001 31.869569999999953 50.695650000000001 C31.869569999999953 47.565215000000023 31.869569999999953 41.304345000000012 31.869569999999953 38.173909999999978 z" />
<glyph unicode="" horiz-adv-x="45.782609000000001" d="M40.739130000000003 64.130439999999993 C32.021737499999972 64.130440000000021 14.586952500000052 64.130440000000021 5.869559999999979 64.130440000000021 C5.869559999999979 65.869570000000010 5.869559999999979 69.347829999999988 5.869559999999979 71.086959999999976 C14.586952500000052 71.086959999999976 32.021737499999972 71.086959999999976 40.739130000000046 71.086959999999976 C40.739130000000046 69.347829999999988 40.739130000000046 65.869570000000010 40.739130000000046 64.130440000000021 z" />
<glyph unicode="" horiz-adv-x="37.347825999999998" d="M6.347830000000000 59.391300000000001 Q6.347830000000044 64.434779999999989 9.978264999999965 68.260870000000011 Q13.608699999999999 72.086959999999976 18.782609999999977 72.086959999999976 Q23.869569999999953 72.086959999999976 27.456525000000056 68.304349999999999 Q31.043480000000045 64.521740000000023 31.043480000000045 59.391300000000001 Q31.043480000000045 54.217390000000023 27.456525000000056 50.543479999999988 Q23.869569999999953 46.869570000000010 18.782609999999977 46.869570000000010 Q13.652169999999956 46.869570000000010 10.000000000000000 50.543479999999988 Q6.347830000000044 54.217390000000023 6.347830000000044 59.391300000000001 zM18.782609999999998 53.130429999999997 Q21.434780000000046 53.130429999999990 23.239130000000046 54.869564999999966 Q25.043480000000045 56.608699999999999 25.043480000000045 59.391300000000001 Q25.043480000000045 62.217390000000023 23.239130000000046 64.043475000000001 Q21.434780000000046 65.869559999999979 18.782609999999977 65.869559999999979 Q16.130430000000047 65.869559999999979 14.282604999999990 63.934779999999989 Q12.434780000000046 62.000000000000000 12.434780000000046 59.391300000000001 Q12.434780000000046 56.739129999999989 14.282604999999990 54.934779999999989 Q16.130430000000047 53.130429999999990 18.782609999999977 53.130429999999990 z" />
<glyph unicode="" horiz-adv-x="53.434783000000003" d="M31.695650000000001 41.695650000000001 C36.141302500000052 41.695650000000001 45.032607500000040 41.695650000000001 49.478259999999977 41.695650000000001 C49.478259999999977 39.858695000000012 49.478259999999977 36.184785000000034 49.478259999999977 34.347829999999988 C45.032607500000040 34.347829999999988 36.141302500000052 34.347829999999988 31.695650000000001 34.347829999999988 C31.695650000000001 29.293482499999982 31.695650000000001 19.184787499999970 31.695650000000001 14.130440000000021 C29.652172500000006 14.130440000000021 25.565217500000017 14.130440000000021 23.521740000000023 14.130440000000021 C23.521740000000023 19.184787499999970 23.521740000000023 29.293482499999982 23.521740000000023 34.347829999999988 C18.826087499999971 34.347829999999988 9.434782499999983 34.347829999999988 4.739130000000046 34.347829999999988 C4.739130000000046 36.184785000000034 4.739130000000046 39.858695000000012 4.739130000000046 41.695650000000001 C9.434782499999983 41.695650000000001 18.826087499999971 41.695650000000001 23.521740000000023 41.695650000000001 C23.521740000000023 46.739129999999989 23.521740000000023 56.826090000000022 23.521740000000023 61.869570000000010 C25.565217500000017 61.869570000000010 29.652172500000006 61.869570000000010 31.695650000000001 61.869570000000010 C31.695650000000001 56.826090000000022 31.695650000000001 46.739129999999989 31.695650000000001 41.695650000000001 zM47.347830000000002 0.000000000000000 C37.163047499999948 0.000000000000000 16.793482499999982 0.000000000000000 6.608699999999999 0.000000000000000 C6.608699999999999 1.858695000000012 6.608699999999999 5.576084999999978 6.608699999999999 7.434779999999989 C16.793482499999982 7.434779999999989 37.163047499999948 7.434779999999989 47.347830000000044 7.434779999999989 C47.347830000000044 5.576084999999978 47.347830000000044 1.858695000000012 47.347830000000044 0.000000000000000 z" />
<glyph unicode="" horiz-adv-x="36.652174000000002" d="M33.347830000000002 32.565219999999997 C26.032612500000027 32.565220000000011 11.402177499999993 32.565220000000011 4.086959999999976 32.565220000000011 C4.086959999999976 33.880437499999971 4.086959999999976 36.510872500000005 4.086959999999976 37.826090000000022 C7.750002500000051 41.271742500000016 15.076087499999971 48.163047500000005 18.739130000000046 51.608699999999999 Q24.086959999999976 56.608699999999999 24.086959999999976 59.956520000000012 Q24.086959999999976 62.347829999999988 22.521740000000023 63.847829999999988 Q20.956519999999955 65.347829999999988 18.000000000000000 65.347829999999988 Q14.347830000000044 65.347829999999988 12.608695000000012 63.478265000000022 Q10.869559999999979 61.608699999999999 10.869559999999979 58.826090000000022 C8.318836666666698 58.826090000000022 5.130432499999984 58.826090000000022 3.217390000000023 58.826090000000022 Q3.217390000000023 64.391300000000001 7.304345000000012 68.021735000000035 Q11.391300000000001 71.652170000000012 17.826090000000022 71.652170000000012 Q24.260869999999954 71.652170000000012 28.021740000000023 68.543475000000001 Q31.782609999999977 65.434779999999989 31.782609999999977 60.043479999999988 Q31.782609999999977 55.000000000000000 26.565219999999954 49.739129999999989 C25.202900000000000 48.463766666666686 23.500000000000000 46.869562500000029 22.478259999999977 45.913040000000024 C20.326085000000035 44.141302499999995 16.021735000000035 40.597827499999994 13.869559999999979 38.826090000000022 C18.739127499999995 38.826090000000022 28.478262500000028 38.826090000000022 33.347830000000044 38.826090000000022 C33.347830000000044 37.260872500000005 33.347830000000044 34.130437499999971 33.347830000000044 32.565220000000011 z" />
<glyph unicode="" horiz-adv-x="36.652174000000002" d="M12.956519999999999 54.913040000000002 C13.978259999999977 54.913040000000024 16.021740000000023 54.913040000000024 17.043480000000045 54.913040000000024 Q20.652169999999956 54.913040000000024 22.413040000000024 56.413040000000024 Q24.173909999999978 57.913040000000024 24.173909999999978 60.260870000000011 Q24.173909999999978 62.434779999999989 22.630435000000034 63.869565000000023 Q21.086959999999976 65.304349999999999 17.695650000000001 65.304349999999999 Q14.913040000000024 65.304349999999999 13.065214999999966 64.043479999999988 Q11.217390000000023 62.782609999999977 11.217390000000023 60.782609999999977 C8.666666666666629 60.782609999999977 5.478262500000028 60.782609999999977 3.565219999999954 60.782609999999977 Q3.565219999999954 65.565220000000011 7.543480000000045 68.565220000000011 Q11.521740000000023 71.565220000000011 17.565219999999954 71.565220000000011 Q24.260869999999954 71.565220000000011 28.065219999999954 68.608695000000012 Q31.869569999999953 65.652170000000012 31.869569999999953 60.608699999999999 Q31.869569999999953 57.913040000000024 30.173914999999965 55.695650000000001 Q28.478259999999977 53.478259999999977 25.260869999999954 52.260870000000011 Q32.521740000000023 50.260870000000011 32.521740000000023 43.260870000000011 Q32.521740000000023 38.086959999999976 28.369564999999966 35.043479999999988 Q24.217390000000023 32.000000000000000 17.565219999999954 32.000000000000000 Q11.130440000000021 32.000000000000000 7.086959999999976 35.065214999999966 Q3.043480000000045 38.130429999999990 3.043480000000045 43.347829999999988 C5.608696666666674 43.347829999999988 8.815217500000017 43.347829999999988 10.739130000000046 43.347829999999988 Q10.739130000000046 41.173909999999978 12.673914999999965 39.695650000000001 Q14.608699999999999 38.217390000000023 17.869569999999953 38.217390000000023 Q21.304349999999999 38.217390000000023 23.086959999999976 39.695650000000001 Q24.869569999999953 41.173909999999978 24.869569999999953 43.652170000000012 Q24.869569999999953 49.173909999999978 17.217390000000023 49.260870000000011 C15.797100000000000 49.260870000000011 14.021737499999972 49.260870000000011 12.956519999999955 49.260870000000011 C12.956519999999955 50.673912500000029 12.956519999999955 53.499997500000006 12.956519999999955 54.913040000000024 z" />
<glyph unicode="" horiz-adv-x="31.347826000000001" d="M15.434780000000000 74.913039999999995 C18.163042499999960 74.913040000000024 23.619567500000016 74.913040000000024 26.347830000000044 74.913040000000024 C23.076090000000022 71.326084999999978 16.532609999999977 64.152175000000000 13.260869999999954 60.565220000000011 C11.445652500000051 60.565220000000011 7.815217500000017 60.565220000000011 6.000000000000000 60.565220000000011 C8.358695000000012 64.152175000000000 13.076085000000035 71.326084999999978 15.434780000000046 74.913040000000024 z" />
<glyph unicode="" horiz-adv-x="56.652174000000002" d="M16.565220000000000 52.826090000000001 C16.565219999999954 45.097827499999994 16.565219999999954 29.641302499999995 16.565219999999954 21.913040000000024 Q16.608699999999999 13.956520000000012 19.130435000000034 10.152175000000000 Q21.652169999999956 6.347829999999988 27.304349999999999 6.347829999999988 Q37.000000000000000 6.347829999999988 40.043480000000045 13.782609999999977 C40.043480000000045 26.797103333333325 40.043480000000045 43.065220000000011 40.043480000000045 52.826090000000022 C42.315217500000017 52.826090000000022 46.858692499999961 52.826090000000022 49.130430000000047 52.826090000000022 C49.130430000000047 39.619567500000016 49.130430000000047 13.206522500000005 49.130430000000047 0.000000000000000 C47.086952500000052 0.000000000000000 42.999997499999949 0.000000000000000 40.956519999999955 0.000000000000000 C40.847825000000057 1.402175000000000 40.630435000000034 4.206524999999999 40.521740000000023 5.608699999999999 Q36.000000000000000 -0.956520000000012 27.695650000000001 -0.956520000000012 Q20.521740000000023 -0.956520000000012 16.565219999999954 2.608699999999999 C16.565219999999954 -5.028983333333315 16.565219999999954 -14.576087499999971 16.565219999999954 -20.304349999999999 C14.304349999999999 -20.304349999999999 9.782609999999977 -20.304349999999999 7.521740000000023 -20.304349999999999 C7.521740000000023 -2.021740000000023 7.521740000000023 34.543479999999988 7.521740000000023 52.826090000000022 C9.782609999999977 52.826090000000022 14.304349999999999 52.826090000000022 16.565219999999954 52.826090000000022 z" />
<glyph unicode="" horiz-adv-x="48.869565000000001" d="M31.521740000000001 0.000000000000000 C31.521740000000023 6.347825000000000 31.521740000000023 19.043475000000001 31.521740000000023 25.391300000000001 C30.500000000000000 25.391300000000001 28.456519999999955 25.391300000000001 27.434780000000046 25.391300000000001 Q16.217390000000023 25.391300000000001 9.739130000000046 31.586954999999989 Q3.260869999999954 37.782609999999977 3.260869999999954 48.260870000000011 Q3.260869999999954 58.652170000000012 9.760869999999954 64.869564999999966 Q16.260869999999954 71.086959999999976 27.478259999999977 71.086959999999976 C31.855073333333280 71.086959999999976 37.326090000000022 71.086959999999976 40.608699999999999 71.086959999999976 C40.608699999999999 53.315220000000011 40.608699999999999 17.771740000000023 40.608699999999999 0.000000000000000 C38.336959999999976 0.000000000000000 33.793480000000045 0.000000000000000 31.521740000000023 0.000000000000000 z" />
<glyph unicode="" horiz-adv-x="26.086957000000002" d="M7.173910000000000 35.608699999999999 Q7.173909999999978 37.956520000000012 8.565214999999966 39.500000000000000 Q9.956519999999955 41.043479999999988 12.739130000000046 41.043479999999988 Q15.521740000000023 41.043479999999988 16.956519999999955 39.500000000000000 Q18.391300000000001 37.956520000000012 18.391300000000001 35.608699999999999 Q18.391300000000001 33.304349999999999 16.956519999999955 31.760870000000011 Q15.521740000000023 30.217390000000023 12.739130000000046 30.217390000000023 Q9.956519999999955 30.217390000000023 8.565214999999966 31.760870000000011 Q7.173909999999978 33.304349999999999 7.173909999999978 35.608699999999999 z" />
<glyph unicode="" horiz-adv-x="24.739129999999999" d="M13.913040000000001 0.000000000000000 C13.771737499999972 -0.630434999999977 13.489132499999982 -1.891304999999988 13.347830000000044 -2.521740000000023 Q20.782609999999977 -3.869570000000010 20.782609999999977 -11.000000000000000 Q20.782609999999977 -15.739129999999989 16.891304999999988 -18.500000000000000 Q13.000000000000000 -21.260870000000011 6.000000000000000 -21.260870000000011 C5.884056666666652 -19.507246666666674 5.739127499999995 -17.315217500000017 5.652169999999956 -16.000000000000000 Q9.521740000000023 -16.000000000000000 11.652174999999943 -14.739129999999989 Q13.782609999999977 -13.478259999999977 13.782609999999977 -11.173909999999978 Q13.782609999999977 -9.043479999999988 12.217390000000023 -8.021740000000023 Q10.652169999999956 -7.000000000000000 5.869559999999979 -6.521740000000023 C6.391300000000001 -4.347826666666663 7.043474999999944 -1.630434999999977 7.434780000000046 0.000000000000000 C9.054345000000012 0.000000000000000 12.293474999999944 0.000000000000000 13.913040000000024 0.000000000000000 z" />
<glyph unicode="" horiz-adv-x="36.652174000000002" d="M24.173909999999999 32.913040000000002 C22.260867500000018 32.913040000000024 18.434782499999983 32.913040000000024 16.521740000000023 32.913040000000024 C16.521740000000023 40.249997500000006 16.521740000000023 54.923912500000029 16.521740000000023 62.260870000000011 C13.880435000000034 61.565217500000017 8.597825000000057 60.173912500000029 5.956519999999955 59.478259999999977 C5.956519999999955 61.043477499999995 5.956519999999955 64.173912500000029 5.956519999999955 65.739129999999989 C10.293477499999995 67.163042500000017 18.967392499999960 70.010867500000018 23.304349999999999 71.434779999999989 C23.521740000000023 71.434779999999989 23.956519999999955 71.434779999999989 24.173909999999978 71.434779999999989 C24.173909999999978 61.804345000000012 24.173909999999978 42.543475000000001 24.173909999999978 32.913040000000024 z" />
</font>
</svg>
